<svg viewBox="0 0 565 501" fill="none" xmlns="http://www.w3.org/2000/svg">
<g id="crab">
<g id="crab-leg-right">
<path id="Vector" d="M186.433 312.723C136.66 275.223 100.41 258.969 77.6801 263.962C43.5864 271.453 -2.11506 364.237 7.45763 374.206C17.0303 384.175 41.9825 303.461 77.682 298.401C101.477 295.027 135.692 311.488 180.312 347.781L186.433 312.723Z" fill="#F06767"/>
<path id="Vector_2" d="M180.049 315.254L176.246 337.041C134.181 304.106 101.274 289.144 76.8585 292.606C60.4995 294.924 46.7024 308.856 31.1278 333.478C27.5629 339.111 15.9571 358.867 13.7112 362.323C13.4127 362.783 13.1219 363.222 12.841 363.64C13.3678 361.328 14.1366 358.66 15.1376 355.712C18.5405 345.697 24.322 333.238 31.2761 321.059C47.2624 293.059 65.7151 272.584 78.9346 269.681C99.0166 265.267 133.061 280.266 180.049 315.254ZM189.955 308.046C138.878 269.566 101.395 252.758 76.4234 258.245C58.8468 262.106 38.6751 284.489 21.1102 315.254C4.54439 344.266 -4.32976 370.385 3.23707 378.26C7.04195 382.223 11.9902 381.535 16.0136 378.104C18.3063 376.149 20.638 373.15 23.5278 368.703C25.9551 364.969 37.6098 345.131 41.0224 339.736C54.8137 317.929 66.7688 305.86 78.5015 304.198C100.199 301.123 133.169 316.982 176.619 352.319L184.365 358.62L192.816 310.202L189.955 308.046Z" fill="#524F75"/>
<path id="Vector_3" d="M69.1765 256.59C63.4868 258.013 61.4517 263.314 61.4438 269.511C61.9726 275.322 62.5678 279.548 63.2234 282.188C63.9941 285.293 65.5414 289.685 67.8634 295.365C71.4243 301.54 75.0438 304.551 80.7336 303.129C86.4234 301.706 88.5482 296.957 88.4663 290.208C88.0839 284.74 87.5629 280.676 86.9014 278.011C86.1365 274.93 84.517 270.378 82.0448 264.354C79.6526 258.592 74.8663 255.166 69.1765 256.59Z" fill="#F06767"/>
<path id="Vector_4" d="M70.5991 262.268C72.9894 261.669 75.1669 263.051 76.6323 266.574C79.005 272.358 80.5406 276.678 81.2235 279.419C81.7815 281.661 82.2596 285.372 82.6186 290.44C82.6518 295.088 81.6372 296.867 79.3172 297.449C77.0752 298.009 75.7074 297.164 73.1337 292.773C70.9933 287.515 69.5825 283.488 68.9074 280.775C68.3494 278.53 67.8011 274.649 67.3015 269.257C67.3484 264.875 68.4996 262.795 70.5991 262.268ZM67.7562 250.912C59.4498 252.99 55.602 260.165 55.5923 269.503V269.774L55.6157 270.044C56.1718 276.126 56.8001 280.602 57.5435 283.599C58.3962 287.031 60.0255 291.661 62.4469 297.581L62.5972 297.948L62.7962 298.29C67.8167 306.998 73.7913 310.902 82.1581 308.809C90.5816 306.699 94.4411 299.784 94.324 290.139L94.3103 289.804C93.9064 284.028 93.3464 279.665 92.5874 276.602C91.7386 273.185 90.0372 268.401 87.4557 262.11C83.9162 253.599 76.3006 248.772 67.7562 250.912Z" fill="#524F75"/>
</g>
<g id="crab-leg-right">
<path id="Vector_5" d="M180.371 307.513C118.392 301.004 78.9464 305.74 62.0371 321.728C36.6693 345.708 45.2839 448.78 58.6225 452.393C71.963 456.007 51.7795 373.968 79.7737 351.248C98.4371 336.099 136.238 332.59 193.179 340.713L180.371 307.513Z" fill="#F06767"/>
<path id="Vector_6" d="M176.203 312.971L184.164 333.605C131.147 327.037 95.2314 331.162 76.086 346.704C63.2548 357.115 58.6031 376.165 57.9377 405.291C57.7855 411.956 58.0099 434.868 57.8675 438.988C57.848 439.535 57.8245 440.062 57.7972 440.565C57.0558 438.311 56.3436 435.627 55.6841 432.585C53.4402 422.247 51.9806 408.587 51.6684 394.569C50.9523 362.335 56.2226 335.279 66.0587 325.984C81.0011 311.857 117.905 307.182 176.203 312.969V312.971ZM180.984 301.689C117.38 295.012 76.5953 299.911 58.0177 317.474C44.9387 329.837 39.1767 359.412 39.965 394.829C40.7065 428.229 46.5543 455.19 57.0948 458.044C62.3962 459.48 66.285 456.343 67.967 451.328C68.925 448.471 69.3816 444.7 69.567 439.398C69.7231 434.948 69.4948 411.941 69.6431 405.56C70.2343 379.767 74.2636 363.262 83.4636 355.796C100.478 341.982 136.907 338.598 192.355 346.508L202.234 347.919L184.545 302.066L180.984 301.689Z" fill="#524F75"/>
<path id="Vector_7" d="M50.9523 319.79C46.8079 323.941 47.7952 329.533 50.9796 334.848C54.4274 339.554 57.1123 342.871 59.0342 344.797C61.2937 347.061 64.882 350.028 69.7991 353.703C76.0333 357.164 80.6869 357.878 84.8293 353.728C88.9737 349.578 88.3493 344.413 84.804 338.67C81.6625 334.181 79.1201 330.963 77.1806 329.022C74.9367 326.778 71.2059 323.706 65.9845 319.818C60.962 316.108 55.0967 315.638 50.9523 319.79Z" fill="#F06767"/>
<path id="Vector_8" d="M55.0945 323.925C56.835 322.181 59.4145 322.241 62.4838 324.51C67.4965 328.245 71.036 331.154 73.036 333.154C74.6692 334.791 76.9892 337.726 79.9082 341.886C82.3297 345.853 82.3765 347.9 80.6887 349.593C79.0555 351.228 77.4458 351.209 72.9814 348.774C68.4389 345.365 65.1531 342.641 63.1784 340.663C61.5414 339.024 59.0731 335.984 55.8692 331.617C53.6526 327.831 53.5667 325.457 55.0945 323.925ZM45.957 337.857L46.0975 338.089L46.2555 338.307C49.8653 343.236 52.7101 346.748 54.8897 348.934C57.3892 351.435 61.1726 354.565 66.2965 358.391L66.6126 358.626L66.958 358.821C75.7462 363.699 82.8779 363.966 88.9716 357.865C95.1062 351.718 94.8526 343.802 89.7833 335.595L89.5979 335.312C86.277 330.571 83.5531 327.117 81.3228 324.883C78.8331 322.393 74.9111 319.168 69.4594 315.104C62.0467 309.632 53.034 309.42 46.8116 315.654C40.7589 321.714 41.1589 329.843 45.957 337.857Z" fill="#524F75"/>
</g>
<g id="crab-leg-right">
<path id="Vector_9" d="M218.39 332.272C156.156 335.539 117.939 346.39 103.737 364.827C82.435 392.479 107.067 492.934 120.808 494.417C134.55 495.896 101.781 418.027 125.875 391.205C141.937 373.326 178.724 363.945 236.236 363.063L218.39 332.272Z" fill="#F06767"/>
<path id="Vector_10" d="M215.126 338.317L226.217 357.453C172.825 359.258 137.998 368.95 121.518 387.297C110.478 399.588 108.862 419.127 112.757 447.999C113.649 454.608 117.456 477.201 117.957 481.293C118.023 481.839 118.084 482.362 118.137 482.86C117.054 480.752 115.932 478.214 114.8 475.309C110.97 465.451 107.389 452.189 104.888 438.389C99.1376 406.663 100.111 379.119 108.371 368.397C120.921 352.109 156.642 341.716 215.126 338.317ZM218.084 326.427C154.22 329.783 114.702 341.002 99.0985 361.252C88.1171 375.508 87.0517 405.623 93.3717 440.477C99.3288 473.353 109.321 499.063 120.178 500.235C125.641 500.823 128.989 497.115 129.865 491.9C130.367 488.93 130.224 485.131 129.579 479.867C129.038 475.445 125.214 452.756 124.361 446.43C120.907 420.862 122.306 403.933 130.226 395.117C144.872 378.813 180.322 369.771 236.324 368.912L246.304 368.758L221.66 326.241L218.084 326.427Z" fill="#524F75"/>
<path id="Vector_11" d="M92.4857 364.643C89.0418 369.39 90.8915 374.76 94.8662 379.511C99.0067 383.622 102.177 386.477 104.38 388.081C106.966 389.96 110.974 392.331 116.406 395.189C123.104 397.634 127.811 397.613 131.254 392.863C134.698 388.116 133.274 383.113 128.872 377.997C125.067 374.056 122.053 371.273 119.834 369.659C117.268 367.792 113.1 365.345 107.334 362.321C101.795 359.443 95.9276 359.894 92.4857 364.643Z" fill="#F06767"/>
<path id="Vector_12" d="M97.2252 368.081C98.6691 366.085 101.227 365.743 104.614 367.501C110.148 370.405 114.101 372.727 116.388 374.389C118.253 375.749 121.009 378.286 124.54 381.934C127.551 385.472 127.916 387.49 126.513 389.427C125.157 391.298 123.567 391.53 118.774 389.819C113.754 387.166 110.082 384.988 107.824 383.345C105.951 381.981 103.038 379.361 99.19 375.554C96.4115 372.167 95.9549 369.831 97.2252 368.081ZM90.3764 383.269L90.552 383.476L90.7432 383.667C95.0788 387.969 98.4369 390.994 100.934 392.811C103.793 394.891 108.019 397.39 113.678 400.37L114.029 400.553L114.4 400.69C123.844 404.133 130.931 403.281 135.992 396.299C141.089 389.269 139.6 381.493 133.309 374.176L133.085 373.929C129.061 369.763 125.828 366.781 123.278 364.922C120.431 362.851 116.051 360.28 110.033 357.117C101.857 352.875 92.9188 354.073 87.75 361.205C82.7198 368.139 84.3861 376.108 90.3764 383.269Z" fill="#524F75"/>
</g>
<g id="crab-claw-left">
<path id="Vector_13" d="M107.184 172.686C113.233 179.417 115.448 183.999 113.826 186.426C111.401 190.067 108.562 196.853 96.5581 194.26C95.4205 194.014 90.6069 189.062 82.1152 179.404C54.882 186.701 26.8078 170.235 19.4108 142.627L11.8069 114.254C7.20784 97.0934 17.3288 80.5627 31.9161 70.1237C48.6966 58.1139 85.4537 58.3715 93.0557 67.2456C100.788 76.4554 61.8752 89.991 64.1659 98.5491C71.5376 103.322 75.5747 107.025 76.281 109.651C77.0947 112.695 62.3161 122.258 63.2995 125.931C64.3961 130.03 79.7288 131.447 80.5288 134.428C81.3269 137.412 69.5961 145.308 71.2722 151.56C72.2459 155.187 86.7805 157.086 89.8381 160.239C92.2615 162.74 101.29 158.885 101.43 155.372C101.809 145.973 89.8713 149.706 88.5561 144.797C87.5688 141.109 99.7679 135.893 98.1132 129.716C97.5786 127.722 92.4371 125.452 82.6927 122.914C82.203 121.091 94.4703 110.752 94.2693 108.639C93.7171 102.789 80.2986 99.1325 82.9327 95.113C85.9688 90.4788 91.9727 89.8778 97.7113 88.3383C110.222 84.9861 125.573 101.694 128.97 114.379L131.227 122.803C136.73 143.335 126.215 164.334 107.401 172.237L107.184 172.686Z" fill="#F06767"/>
<path id="Vector_14" d="M83.4734 146.011C84.81 150.389 87.6334 151.814 92.6402 152.867C92.9056 152.924 93.889 153.123 94.1115 153.172C94.9719 153.353 95.5222 153.456 95.8675 153.542C95.609 153.7 95.342 153.843 95.0676 153.972C94.5993 154.186 94.1427 154.35 93.7563 154.448C91.8324 153.004 89.4441 152.243 83.331 150.541L82.5349 150.319C80.5134 149.753 79.1593 149.337 78.1407 148.959C78.6285 148.003 79.4207 146.842 80.6012 145.33C80.4353 145.54 82.0724 143.503 83.2432 141.997C82.9661 143.228 83.0207 144.534 83.4715 146.011H83.4734ZM93.4032 78.7306C98.2305 73.5306 99.7544 67.755 95.171 62.6721C84.3768 50.9277 43.928 53.4272 26.2871 67.0057C8.88803 80.4008 0.0763264 99.7511 5.70169 118.163L14.291 146.254C23.2197 175.464 53.0032 192.522 81.9885 185.671C91.3329 195.513 94.8197 198.686 97.7563 199.213C108.349 201.117 114.808 197.776 119.222 190.686C119.612 190.057 120.627 188.305 120.757 188.094C123.553 183.566 122.174 178.74 117.612 172.855C134.736 161.458 142.828 139.679 136.543 119.117L133.992 110.779C128.798 93.7862 109.579 77.3589 94.5329 81.9599C93.6841 82.2135 93.0773 82.3852 91.7427 82.754C90.1349 83.195 88.7046 83.6145 87.4207 84.0418C90.0061 82.0516 91.7876 80.473 93.4032 78.7306ZM91.5554 131.281C91.5802 131.292 91.6056 131.303 91.6314 131.312C91.1827 131.874 90.5622 132.545 89.7251 133.38C89.3934 133.714 88.1349 134.947 88.1973 134.889C87.528 135.546 87.0422 136.044 86.5836 136.545L86.3495 136.803C86.7593 135.462 86.7729 134.106 86.2812 132.508C85.8149 130.982 85.091 129.89 84.0685 129.027C87.2841 129.815 89.7915 130.575 91.5554 131.281ZM76.6324 125.849C76.1174 125.707 75.6016 125.569 75.0851 125.433L73.5632 125.029C72.5407 124.756 71.729 124.532 71.0383 124.323C71.2822 124.061 71.5456 123.784 71.8305 123.495C72.2832 123.031 72.7612 122.549 73.4363 121.876C76.5817 118.734 77.2022 118.098 78.3378 116.76C81.0188 113.595 82.2246 111.33 81.1749 107.892C80.0412 104.188 76.568 100.721 70.5212 96.6935C71.9222 95.3667 73.7876 93.8974 76.7358 91.7647C74.3456 95.7043 75.6471 99.4974 78.6558 102.333C79.4363 103.066 80.3202 103.741 81.4402 104.506C81.8402 104.775 82.2597 105.053 82.7944 105.398L84.088 106.233C85.2256 106.971 86.0197 107.519 86.6246 107.999C85.9651 108.779 85.1066 109.747 83.7173 111.287L83.6393 111.371C81.2997 113.96 80.4295 114.951 79.45 116.171C78.728 117.072 78.1661 117.856 77.7251 118.61C76.6519 120.455 76.1407 122.036 76.8471 124.346C77.0539 125.017 77.3739 125.638 77.7895 126.18C77.4052 126.065 77.0195 125.954 76.6324 125.849ZM79.6958 126.789C81.5241 127.435 82.97 128.096 84.0705 129.025C83.1612 128.801 82.1914 128.576 81.1671 128.346C79.8207 128.045 78.6243 127.277 77.7895 126.178C78.4919 126.385 79.1124 126.584 79.6939 126.789H79.6958ZM89.4773 95.7745C90.6871 95.2535 92.3905 94.7189 94.849 94.0418C95.8348 93.7759 96.817 93.4968 97.7954 93.2047C105.493 90.8516 119.263 102.621 122.8 114.2L125.35 122.539C130.658 139.892 122.443 158.344 106.406 165.749C105.093 166.355 104.051 167.425 103.481 168.754C103.395 168.957 103.395 168.957 103.302 169.164C102.834 170.227 102.694 171.405 102.898 172.548C103.102 173.691 103.641 174.748 104.447 175.583C107.237 178.479 109.087 180.836 109.973 182.516C110.063 182.686 110.137 182.838 110.195 182.965C109.838 183.575 109.438 184.256 109.288 184.498C107.403 187.523 105.651 188.563 100.863 187.86C100.244 187.353 99.3602 186.557 98.248 185.488C95.8422 183.177 92.451 179.706 88.0997 175.094C87.3512 174.299 86.3952 173.73 85.3401 173.451C84.2849 173.171 83.1726 173.193 82.129 173.513C58.2773 180.805 32.9056 167.094 25.489 142.832L16.9036 114.742C12.8841 101.607 19.5514 86.9706 33.4305 76.2857C40.0002 71.2282 51.6354 67.7979 63.889 67.0408C73.809 66.4282 82.3671 67.8018 85.6178 69.8389C85.4149 70.1043 85.1495 70.4165 84.8256 70.7657C82.8822 72.8613 80.0724 75.0467 74.1876 79.2087L73.0675 80.0008L71.9436 80.795C67.089 84.2409 64.3671 86.3384 62.0744 88.5726C58.1153 92.436 56.1231 96.1862 57.4851 100.641C57.9066 102.026 58.8314 103.207 60.0744 103.952C63.5827 106.054 66.2539 107.897 68.0549 109.435C68.2851 109.632 68.4958 109.823 68.691 110.003C68.0588 110.697 67.1788 111.581 65.1671 113.589C64.4529 114.303 63.9417 114.818 63.4383 115.334C61.6646 117.158 60.4002 118.592 59.4266 119.979C57.569 122.625 56.6636 125.068 57.5729 128.038C58.6988 131.726 61.4734 133.451 66.0002 135.004C67.2822 135.441 68.6071 135.827 70.5466 136.342L72.4002 136.838L71.37 138.126C66.8236 143.946 64.8451 148.18 66.4334 153.373C67.3583 156.411 69.5358 158.038 72.7944 159.429C74.5036 160.161 76.3378 160.742 79.3739 161.595L80.1934 161.821C83.1124 162.633 84.1212 162.93 85.2841 163.335C85.928 163.564 86.4314 163.769 86.7807 163.94C93.1319 169.968 108.115 163.004 108.162 154.448C108.201 146.994 104.314 143.628 97.6841 141.979L98.0061 141.657C103.118 136.541 105.378 132.684 103.694 127.179C102.545 123.427 99.1144 121.175 92.4022 119.133C94.5017 116.809 95.5007 115.671 96.4705 114.45C98.8236 111.495 99.688 110.032 99.3212 107.211C98.9427 104.284 97.4051 101.929 95.0617 99.8096C93.8051 98.6701 92.488 97.7257 90.451 96.4067L89.4773 95.7745Z" fill="#524F75"/>
</g>
<g id="crab-leg-left">
<path id="Vector_15" d="M377.9 286.66C427.756 249.618 464.066 233.566 486.833 238.498C520.983 245.898 566.759 337.544 557.171 347.388C547.582 357.234 522.587 277.511 486.833 272.514C462.995 269.181 428.73 285.439 384.033 321.287L377.9 286.66Z" fill="#F06767"/>
<path id="Vector_16" d="M384.299 289.213L388.09 310.639C430.238 278.089 463.204 263.301 487.643 266.717C504.008 269.004 517.834 282.772 533.432 307.09C537.003 312.659 548.628 332.169 550.876 335.584C551.184 336.052 551.485 336.499 551.776 336.924C551.146 334.302 550.384 331.714 549.493 329.17C546.088 319.285 540.299 306.985 533.339 294.961C517.325 267.305 498.851 247.09 485.594 244.22C465.454 239.855 431.358 254.665 384.299 289.213ZM374.41 281.96C425.559 243.96 463.093 227.365 488.072 232.776C505.66 236.586 525.873 258.704 543.469 289.092C560.096 317.802 568.995 343.638 561.366 351.472C557.567 355.371 552.658 354.698 548.638 351.32C546.34 349.386 544 346.419 541.106 342.021C538.673 338.329 526.999 318.735 523.584 313.408C509.77 291.87 497.799 279.954 486.025 278.309C464.261 275.267 431.229 290.94 387.698 325.851L379.992 332.028L371.506 284.118L374.41 281.96Z" fill="#524F75"/>
<path id="Vector_17" d="M495.348 231.217C501.048 232.623 503.087 237.859 503.094 243.98C502.564 249.718 501.971 253.894 501.311 256.501C500.54 259.566 498.991 263.905 496.663 269.515C493.095 275.617 489.469 278.59 483.774 277.183C478.076 275.777 475.945 271.088 476.027 264.421C476.41 259.022 476.933 255.006 477.596 252.374C478.363 249.332 479.982 244.834 482.458 238.885C484.855 233.193 489.651 229.81 495.348 231.217Z" fill="#F06767"/>
<path id="Vector_18" d="M493.947 236.901C491.518 236.3 489.323 237.671 487.863 241.133C485.489 246.838 483.953 251.102 483.27 253.802C482.716 256.007 482.238 259.664 481.879 264.659C481.844 269.203 482.843 270.924 485.177 271.5C487.46 272.064 488.839 271.223 491.409 266.897C493.551 261.712 494.96 257.74 495.635 255.07C496.191 252.86 496.739 249.037 497.237 243.724C497.192 239.439 496.057 237.42 493.947 236.901ZM496.753 225.533C505.065 227.584 508.937 234.707 508.948 243.97V244.243L508.923 244.516C508.365 250.532 507.737 254.959 506.991 257.929C506.133 261.326 504.498 265.904 502.07 271.757L501.918 272.124L501.717 272.467C496.685 281.074 490.712 284.922 482.371 282.864C473.941 280.784 470.055 273.917 470.176 264.347L470.187 264.005C470.591 258.292 471.155 253.976 471.918 250.94C472.773 247.558 474.478 242.826 477.065 236.608C480.617 228.188 488.23 223.429 496.753 225.533Z" fill="#524F75"/>
</g>
<g id="crab-leg-left">
<path id="Vector_19" d="M385.935 292.208C447.744 286.136 487.139 291.076 504.113 307.029C529.575 330.959 521.61 433.092 508.32 436.596C495.032 440.095 514.667 358.887 486.595 336.188C467.877 321.055 430.131 317.34 373.356 325.047L385.935 292.208Z" fill="#F06767"/>
<path id="Vector_20" d="M390.105 297.691L382.32 318.009C435.212 311.816 471.089 316.12 490.275 331.634C503.122 342.023 507.883 360.946 508.728 389.824C508.923 396.434 508.839 419.149 509.005 423.23C509.028 423.794 509.055 424.331 509.083 424.842C509.801 422.635 510.488 420.003 511.122 417.022C513.295 406.795 514.667 393.269 514.892 379.377C515.414 347.426 509.988 320.587 500.105 311.293C485.089 297.182 448.234 292.315 390.105 297.691ZM385.364 286.384C448.778 280.151 489.498 285.26 508.123 302.764C521.235 315.09 527.167 344.456 526.601 379.566C526.064 412.739 520.384 439.469 509.811 442.253C504.546 443.642 500.687 440.536 498.979 435.568C498.004 432.727 497.528 428.979 497.311 423.716C497.128 419.299 497.214 396.491 497.026 390.165C496.277 364.589 492.158 348.212 482.911 340.737C465.822 326.922 429.438 323.344 374.144 330.846L364.357 332.173L381.762 286.737L385.362 286.384H385.364Z" fill="#524F75"/>
<path id="Vector_21" d="M515.161 305.172C519.325 309.314 518.375 314.852 515.229 320.102C511.819 324.748 509.159 328.02 507.253 329.917C505.011 332.147 501.45 335.068 496.566 338.678C490.365 342.069 485.725 342.75 481.565 338.612C477.407 334.471 477.998 329.355 481.501 323.685C484.609 319.252 487.126 316.079 489.052 314.163C491.272 311.952 494.978 308.932 500.166 305.109C505.149 301.464 511.003 301.035 515.161 305.172Z" fill="#F06767"/>
<path id="Vector_22" d="M510.342 316.869C512.507 313.172 512.574 310.855 511.034 309.324C509.259 307.556 506.671 307.603 503.639 309.819C498.664 313.488 495.151 316.348 493.175 318.313C491.567 319.919 489.272 322.803 486.392 326.898C484.022 330.781 483.992 332.772 485.696 334.463C487.36 336.122 488.98 336.112 493.411 333.73C497.918 330.387 501.173 327.71 503.124 325.765C504.74 324.161 507.177 321.166 510.342 316.869ZM519.292 301.025C525.36 307.066 525.011 315.168 520.248 323.113L520.107 323.347L519.946 323.568C516.371 328.436 513.549 331.907 511.38 334.065C508.896 336.535 505.136 339.62 500.041 343.384L499.721 343.622L499.37 343.812C490.623 348.598 483.522 348.82 477.432 342.758C471.278 336.635 471.481 328.748 476.515 320.606L476.703 320.319C479.992 315.632 482.697 312.221 484.915 310.015C487.389 307.554 491.288 304.375 496.708 300.377C504.09 294.992 513.069 294.836 519.292 301.025Z" fill="#524F75"/>
</g>
<g id="crab-leg-left">
<path id="Vector_23" d="M376.888 301.548C432.035 330.118 462.382 355.716 467.928 378.342C476.246 412.276 413.945 493.597 400.892 489.295C387.84 484.992 448.537 427.58 437.356 393.254C429.899 370.368 400.263 346.698 348.453 322.239L376.888 301.548Z" fill="#F06767"/>
<path id="Vector_24" d="M377.397 308.417L359.803 321.217C407.536 344.83 435.28 367.978 442.921 391.441C448.039 407.152 441.729 425.613 426.706 450.296C423.268 455.945 410.829 474.948 408.745 478.464C408.461 478.948 408.189 479.412 407.936 479.859C410.016 478.145 412.008 476.327 413.904 474.411C421.296 467.016 429.815 456.421 437.569 444.891C455.403 418.378 465.471 392.912 462.242 379.736C457.337 359.722 429.077 335.566 377.397 308.417ZM379.579 296.35C436.156 325.666 467.528 352.124 473.612 376.948C477.897 394.425 466.88 422.29 447.28 451.426C428.761 478.953 409.442 498.28 399.058 494.854C393.887 493.15 392.34 488.444 393.614 483.349C394.343 480.436 395.986 477.033 398.669 472.501C400.921 468.696 413.415 449.613 416.702 444.208C430.01 422.347 435.471 406.368 431.787 395.065C424.981 374.171 396.412 351.351 345.953 327.531L337.024 323.314L376.369 294.686L379.579 296.35Z" fill="#524F75"/>
<path id="Vector_25" d="M478.205 382.805C479.44 388.542 475.629 392.67 470.129 395.361C464.737 397.398 460.728 398.694 458.093 399.246C454.999 399.9 450.421 400.405 444.357 400.776C437.309 400.245 433.05 398.288 431.814 392.551C430.581 386.811 433.863 382.842 439.891 379.995C444.911 377.97 448.749 376.68 451.407 376.122C454.478 375.478 459.229 374.965 465.664 374.581C471.83 374.241 476.97 377.066 478.205 382.803V382.805Z" fill="#F06767"/>
<path id="Vector_26" d="M472.482 384.034C471.955 381.585 469.762 380.216 466.012 380.424C459.842 380.787 455.337 381.277 452.613 381.849C450.386 382.317 446.89 383.488 442.242 385.355C438.145 387.318 437.034 388.971 437.54 391.318C438.035 393.617 439.395 394.489 444.41 394.906C450.01 394.555 454.197 394.087 456.892 393.519C459.12 393.051 462.798 391.868 467.795 389.986C471.622 388.064 472.939 386.161 472.482 384.034ZM483.93 381.576C485.727 389.945 481.023 396.547 472.703 400.62L472.459 400.741L472.199 400.836C466.548 402.975 462.293 404.348 459.298 404.977C455.867 405.699 451.036 406.235 444.712 406.618L444.312 406.641L443.916 406.612C433.977 405.863 427.897 402.181 426.094 393.783C424.266 385.293 428.734 378.789 437.387 374.7L437.7 374.565C443.013 372.425 447.136 371.035 450.201 370.393C453.616 369.675 458.615 369.137 465.339 368.735C474.467 368.233 482.082 372.992 483.93 381.574V381.576Z" fill="#524F75"/>
</g>
<g id="crab-claw-right">
<path id="Vector_27" d="M361.132 57.1307C365.592 58.7736 366.956 62.7229 366.258 67.0273C366.07 68.1668 365.758 69.3336 365.292 70.7405C365.124 71.2478 364.942 71.7668 364.706 72.4341C364.624 72.6527 364.23 73.7492 364.121 74.0536C363.493 75.8175 363.13 76.9805 362.925 77.9444C364.158 78.2078 365.676 78.4751 368.404 78.9258L368.531 78.9453C372.38 79.5834 373.832 79.8429 375.522 80.2253C376.755 80.5024 377.766 80.7892 378.636 81.1268C380.716 81.9346 382.14 82.879 383.026 85.1912C383.4 86.1649 383.507 87.2207 383.336 88.2495C383.164 89.2783 382.722 90.2427 382.053 91.0429C378.607 95.1678 376.16 98.4614 374.732 100.852C374.578 101.113 374.439 101.359 374.314 101.585C375.229 101.858 376.482 102.075 378.275 102.28C378.802 102.34 380.777 102.549 380.679 102.538C381.713 102.651 382.478 102.744 383.216 102.859C387.694 103.558 390.56 104.813 392.008 108.59C393.725 113.062 392.273 116.063 388.679 120.259C388.484 120.487 387.742 121.338 387.575 121.535C386.246 123.086 385.76 123.652 385.785 124.108C386.396 124.114 387.163 124.024 387.951 123.841C388.739 123.654 389.458 123.392 389.971 123.125C390.634 120.506 392.176 118.27 396.552 112.461L397.11 111.718C398.81 109.453 399.807 108.03 400.484 106.873C399.522 106.411 397.739 105.767 395.079 105.129C395.461 105.22 390.057 104.003 388.71 103.617C385.028 102.555 382.831 101.375 381.629 98.2429C380.396 95.0351 381.321 92.6117 383.502 89.2634C384.06 88.4049 384.716 87.4956 385.555 86.3834C385.873 85.9658 386.203 85.5346 386.646 84.9629L387.727 83.56C388.751 82.2292 389.469 81.2673 390.055 80.4166C389.399 80.3092 388.656 80.2019 387.818 80.0946C387.091 80.0029 386.334 79.9131 385.257 79.7922C380.326 79.2322 379.339 79.1092 377.436 78.7307C373.085 77.8683 370.599 76.7951 369.27 73.3297C367.748 69.3649 368.54 63.8644 371.309 55.9678L370.968 55.9288C368.238 55.6536 364.796 55.7005 358.738 56.0146L357.21 56.0946C357.179 56.0946 357.149 56.0985 357.118 56.1005C358.49 56.2949 359.836 56.6404 361.132 57.1307ZM337.824 56.0458C330.238 54.8946 325.171 51.117 325.735 43.8956C327.257 26.6527 364.661 1.23022 389.35 0.888756C413.803 0.549243 434.704 11.1678 442.246 30.8088L453.891 61.1424C465.945 92.5512 451.069 127.697 420.595 141.406C419.034 156.335 418.088 161.73 415.977 164.052C408.08 172.735 400.394 174.208 391.871 171.187C391.106 170.916 388.999 170.095 388.722 169.997C383.301 168.052 381.327 162.856 381.45 154.475C358.404 156.68 336.107 143.437 327.586 121.23L324.131 112.225C317.19 94.1492 322.962 67.0156 339.042 60.8419C340.067 60.442 341.087 60.0283 342.101 59.601C345.92 58.0127 348.87 56.9297 351.457 56.3853C345.132 56.6566 341.43 56.5922 337.824 56.0458ZM355.662 56.1785L357.116 56.1005C355.288 55.8605 353.485 55.96 351.459 56.3853C352.747 56.3307 354.138 56.2605 355.662 56.1785ZM346.603 70.4088C345.061 71.0488 344.336 71.3453 343.417 71.7005C334.429 75.1522 330.154 95.2517 335.057 108.028L338.515 117.031C345.807 136.036 366.148 146.592 385.926 141.89C387.317 141.559 388.782 141.749 390.043 142.424L390.492 142.66C391.536 143.208 392.39 144.059 392.943 145.101C393.495 146.142 393.72 147.327 393.588 148.499C393.085 152.986 393.054 156.356 393.426 158.483C393.485 158.834 393.553 159.113 393.618 159.328C394.412 159.632 395.426 160.024 395.779 160.149C399.861 161.597 402.503 161.203 406.636 156.899C406.874 155.898 407.122 154.561 407.389 152.807C407.955 149.129 408.593 143.767 409.305 136.748C409.415 135.671 409.821 134.645 410.478 133.784C411.136 132.924 412.019 132.262 413.03 131.874C439.74 121.622 453.128 91.8273 442.96 65.3356L431.315 35C425.778 20.5727 409.514 12.3112 389.512 12.5902C379.98 12.721 367.085 17.8136 355.502 25.6848C345.713 32.3385 338.738 39.88 337.563 44.0185C338.222 44.2189 338.896 44.3677 339.578 44.4634C342.827 44.957 346.868 44.918 355.036 44.4829L356.581 44.399L358.131 44.317C364.788 43.9697 368.628 43.919 372.152 44.278C378.113 44.8829 382.259 46.68 384.008 51.2419C384.535 52.6136 384.525 54.1336 383.984 55.4975C382.287 59.7746 381.161 63.2497 380.605 65.8663C380.486 66.4322 380.396 66.9297 380.332 67.3571C381.504 67.5678 382.751 67.718 386.576 68.1531C387.699 68.28 388.507 68.3756 389.303 68.479C392.099 68.8361 394.178 69.2049 395.957 69.7278C399.262 70.6995 401.604 72.1083 402.757 75.119C404.201 78.881 402.972 82.1375 400.107 86.4439C399.278 87.6927 398.365 88.9297 397.001 90.6995L395.132 93.1327C396.533 93.4546 397.834 93.7473 397.805 93.7414C405.67 95.6244 410.199 97.8683 412.267 103.248C413.452 106.337 412.671 109.101 410.804 112.409C409.799 114.186 408.579 115.935 406.474 118.739L405.9 119.499C403.844 122.231 403.141 123.189 402.375 124.366C401.938 125.029 401.618 125.579 401.411 126.001C399.928 135.16 382.683 139.217 377.118 132.253C371.912 125.741 373.352 120.2 378.54 114.083L376.94 113.911C369.091 113.014 364.618 111.289 362.437 105.609C360.915 101.634 362.574 97.2634 367.438 90.6312C367.165 90.5872 366.893 90.5424 366.62 90.4966C363.046 89.9034 361.378 89.6049 359.694 89.2185C355.764 88.317 354.074 87.6692 352.576 85.1619C350.976 82.4809 350.739 79.4917 351.348 76.1551C351.68 74.3405 352.199 72.6371 353.097 70.118L353.881 67.9131C352.232 68.1961 350.021 68.9863 346.603 70.4068V70.4088Z" fill="#524F75"/>
<path id="Vector_28" d="M387.78 147.843C386.66 157.833 387.635 163.38 390.706 164.481C395.317 166.134 402.365 170.327 411.657 160.11C412.535 159.142 413.696 151.552 415.14 137.339C444.857 125.933 459.764 92.756 448.435 63.2399L436.788 32.9062C429.746 14.557 409.641 6.46134 389.442 6.74036C366.203 7.06036 332.716 31.4857 331.577 44.4106C330.533 57.7179 375.04 44.194 378.554 53.3433C374.933 62.4574 373.664 68.4204 374.744 71.2282C375.992 74.4828 395.795 73.2945 397.3 77.2184C398.985 81.6028 385.877 92.953 387.103 96.1433C388.326 99.3335 404.244 98.6643 406.806 105.345C408.299 109.228 396.232 120.489 395.504 125.312C394.925 129.142 384.129 131.644 381.698 128.598C375.188 120.457 388.566 115.931 386.55 110.686C385.036 106.738 370.445 110.112 367.91 103.507C367.091 101.376 370.31 95.9677 377.569 87.2848C376.822 85.3374 358.814 84.1784 357.608 82.1609C354.279 76.5765 364.168 64.4789 359.122 62.6213C353.303 60.4828 347.411 63.8974 341.149 66.3033C327.495 71.5443 324.396 96.5609 329.602 110.124L333.06 119.127C341.485 141.078 364.88 152.908 387.292 147.583L387.78 147.843Z" fill="#F06767"/>
</g>
<g id="crab-body">
<path id="Vector_29" d="M141.091 241.886C126.695 237.543 116.82 234.427 111.522 232.567C106.367 230.756 98.7338 227.736 88.6538 223.517C88.5758 213.736 92.1407 204.953 99.4909 196.912C107.052 188.637 115.319 183.995 124.461 182.789C130.388 189.357 135.235 195.102 138.989 200.011C142.777 204.959 148.422 212.938 155.901 223.911L141.091 241.886ZM168.057 220.967C159.226 207.939 152.65 198.596 148.291 192.897C143.901 187.16 138.191 180.444 131.149 172.741C130.563 172.099 129.84 171.597 129.035 171.269C128.23 170.942 127.362 170.798 126.494 170.848C113.083 171.617 101.132 177.763 90.849 189.014C80.4665 200.378 75.8382 213.502 77.169 228.023C77.2656 229.078 77.647 230.088 78.2724 230.943C78.8978 231.799 79.7439 232.469 80.7202 232.881C92.6909 237.935 101.647 241.509 107.639 243.615C113.606 245.71 124.851 249.238 141.45 254.222C142.554 254.553 143.731 254.551 144.834 254.216C145.937 253.881 146.916 253.227 147.649 252.337L167.727 227.972C168.531 226.997 168.998 225.787 169.058 224.525C169.118 223.262 168.767 222.014 168.059 220.967H168.057Z" fill="#524F75"/>
<path id="Vector_30" d="M200.289 258.512C194.142 246.335 188.948 237.777 184.708 232.844C180.464 227.907 172.373 221.012 160.431 212.155C149.992 217.193 142.977 221.716 139.391 225.732C135.807 229.746 131.135 238.306 125.377 251.41C136.035 261.927 144.055 268.721 149.44 271.792C154.827 274.867 164.78 278.329 179.303 282.185L200.289 258.514V258.512Z" fill="#F06767"/>
<path id="Vector_31" d="M133.061 305.581C134.64 306.93 137.161 308.524 140.33 310.175C146.109 313.189 153.654 316.163 158.412 317.433L162.757 318.592V323.09C162.757 365.23 195.928 404.116 234.113 409.474C261.301 413.287 270.113 414.323 282.431 414.791C299.45 415.439 315.635 413.931 336.068 409.546C382.012 399.689 419.301 363.33 419.779 318.854C420.279 272.618 375.522 232.6 324.427 228.442C293.51 225.923 274.921 224.658 269.055 224.658C263.059 224.658 242.765 227.218 208.948 232.282C170.511 238.038 140.027 267.23 132.285 304.856C132.484 305.064 132.743 305.308 133.061 305.581ZM134.919 320.555C124.708 315.232 119.264 310.58 120.534 303.929C128.774 260.826 163.409 227.265 207.215 220.705C241.84 215.517 262.197 212.951 269.055 212.951C275.389 212.951 294.029 214.219 325.375 216.772C382.146 221.392 432.056 266.019 431.485 318.977C430.94 369.55 389.37 410.081 338.519 420.99C317.157 425.574 300.002 427.172 281.982 426.487C269.118 425.999 260.092 424.936 232.482 421.064C189.809 415.078 153.331 373.652 151.151 327.449C146.049 325.73 139.943 323.176 134.919 320.555Z" fill="#524F75"/>
<path id="Vector_32" d="M186.189 280.34C186.958 280.378 187.643 280.481 188.186 280.6C188.072 280.714 187.957 280.826 187.84 280.936C186.896 281.82 186.342 283.044 186.301 284.337C186.259 285.63 186.732 286.886 187.617 287.83C188.501 288.774 189.725 289.328 191.018 289.37C192.311 289.412 193.568 288.938 194.511 288.054C198.993 283.853 200.305 278.881 197.013 274.852C194.781 272.122 190.948 270.793 186.644 270.592C182.66 270.407 178.679 271.24 175.901 273.133C171.626 276.044 170.673 281.086 173.776 285.806C174.46 286.865 175.528 287.619 176.756 287.907C177.984 288.196 179.276 287.998 180.361 287.354C181.445 286.71 182.239 285.671 182.573 284.455C182.908 283.239 182.759 281.94 182.156 280.832C183.14 280.485 184.636 280.268 186.189 280.34ZM226.433 285.002C228.734 285.099 230.64 285.708 231.372 286.303C231.204 286.764 230.732 287.499 229.844 288.458C228.99 289.41 228.545 290.66 228.604 291.938C228.663 293.216 229.222 294.42 230.161 295.29C231.099 296.16 232.341 296.626 233.62 296.589C234.899 296.551 236.112 296.013 236.997 295.09C241.709 290.009 242.636 284.393 238.929 280.095C236.297 277.045 231.791 275.464 226.847 275.256C222.061 275.053 217.417 276.169 214.404 278.676C209.988 282.35 209.875 288.024 213.918 293.261C214.308 293.773 214.795 294.203 215.351 294.527C215.908 294.85 216.523 295.059 217.161 295.144C217.799 295.228 218.447 295.185 219.068 295.018C219.689 294.851 220.272 294.562 220.781 294.169C221.29 293.776 221.717 293.286 222.036 292.727C222.355 292.169 222.561 291.552 222.641 290.914C222.721 290.275 222.673 289.627 222.502 289.007C222.33 288.387 222.038 287.807 221.641 287.3C221.326 286.91 221.06 286.483 220.847 286.028C221.836 285.378 224.031 284.899 226.433 285.002Z" fill="#524F75"/>
<path id="Vector_33" d="M162.699 225.525C154.387 212.284 148.19 202.797 144.111 197.063C140.033 191.33 134.664 184.551 127.998 176.725C116.168 176.992 105.432 182.046 95.7895 191.886C86.1505 201.72 81.692 213.082 82.4217 225.964C94.1056 231.389 102.839 235.23 108.619 237.49C114.398 239.749 125.454 243.646 141.782 249.178L162.699 225.525Z" fill="#F06767"/>
<path id="Vector_34" d="M176.312 275.964C164.262 272.188 155.977 268.893 151.649 266.22C147.376 263.58 140.853 257.771 132.285 248.897C137.409 238.588 141.518 231.833 144.363 228.864C147.083 226.021 152.595 222.596 160.769 218.795C170.549 226.727 177.19 232.899 180.605 237.16C183.926 241.308 188.043 248.477 192.851 258.565L176.31 275.964H176.312ZM205.167 257.248C199.267 244.466 194.176 235.377 189.745 229.843C185.335 224.339 177.228 216.922 165.286 207.402C164.451 206.737 163.451 206.312 162.392 206.175C161.333 206.037 160.257 206.192 159.28 206.622C148.022 211.578 140.291 216.19 135.91 220.766C131.631 225.23 126.431 234.021 119.963 247.449C119.449 248.517 119.271 249.717 119.453 250.889C119.635 252.06 120.169 253.149 120.984 254.011C131.592 265.238 139.67 272.579 145.497 276.179C151.319 279.777 161.524 283.734 176.357 288.229C177.395 288.544 178.501 288.564 179.549 288.287C180.598 288.01 181.549 287.447 182.297 286.661L204.094 263.734C204.901 262.884 205.435 261.812 205.626 260.656C205.817 259.499 205.658 258.312 205.167 257.248Z" fill="#524F75"/>
<path id="Vector_35" d="M269.056 218.805C275.155 218.805 293.77 220.071 324.9 222.604C374.995 226.68 426.199 266.223 425.631 318.912C425.063 371.601 378.97 406.325 337.294 415.267C295.618 424.208 273.128 420.854 233.298 415.267C193.467 409.679 156.902 369.433 156.902 323.086C147.467 320.569 125.136 311.031 126.285 305.027C133.975 264.807 166.301 232.75 208.082 226.492C242.302 221.367 262.626 218.805 269.056 218.805Z" fill="#F06767"/>
<path id="Vector_36" d="M124.439 311.861C130.671 324.395 168.556 335.65 215.662 340.622C253.354 344.6 288.724 341.318 319.077 325.355C319.757 324.997 320.361 324.509 320.852 323.918C321.344 323.327 321.715 322.645 321.943 321.911C322.171 321.177 322.252 320.405 322.182 319.639C322.112 318.874 321.891 318.129 321.534 317.449C321.176 316.769 320.687 316.165 320.096 315.674C319.505 315.182 318.823 314.811 318.089 314.583C317.355 314.355 316.583 314.274 315.817 314.344C315.052 314.414 314.308 314.635 313.627 314.992C285.762 329.65 252.49 332.737 216.892 328.979C174.416 324.497 138.488 313.822 134.921 306.647C134.582 305.953 134.109 305.333 133.53 304.822C132.95 304.311 132.275 303.921 131.544 303.672C130.812 303.424 130.039 303.322 129.268 303.374C128.498 303.426 127.745 303.629 127.053 303.973C126.362 304.317 125.745 304.795 125.239 305.378C124.733 305.962 124.347 306.639 124.104 307.373C123.861 308.106 123.765 308.88 123.823 309.65C123.88 310.42 124.09 311.172 124.439 311.861Z" fill="#524F75"/>
<path id="Vector_37" d="M324.529 316.122C325.017 316.747 325.623 317.27 326.312 317.662C327.001 318.053 327.76 318.305 328.545 318.403C329.33 318.501 330.127 318.443 330.889 318.233C331.65 318.023 332.363 317.664 332.985 317.178C333.608 316.692 334.128 316.087 334.516 315.399C334.904 314.71 335.153 313.952 335.247 313.166C335.342 312.38 335.281 311.583 335.069 310.82C334.856 310.057 334.495 309.342 334.006 308.717C333.518 308.092 332.912 307.569 332.223 307.178C331.534 306.787 330.775 306.535 329.99 306.437C329.205 306.339 328.408 306.397 327.647 306.607C326.885 306.817 326.172 307.175 325.55 307.662C324.927 308.148 324.407 308.753 324.019 309.441C323.631 310.129 323.382 310.888 323.288 311.674C323.193 312.459 323.254 313.257 323.467 314.02C323.68 314.783 324.04 315.498 324.529 316.122Z" fill="#524F75"/>
<path id="Vector_38" d="M354.548 230.001C355.83 212.549 356.985 199.917 358.01 192.108C359.036 184.302 360.792 174.778 363.28 163.543C377.631 156.557 390.89 155.894 403.054 161.545C415.221 167.195 425.577 176.065 434.123 188.153C425.413 199.662 418.794 208.056 414.267 213.328C409.737 218.604 400.853 228.274 387.608 242.335L354.548 230.003V230.001Z" fill="#F06767"/>
<path id="Vector_39" d="M386.693 235.41C398.185 222.737 405.988 213.925 410.049 209.025C413.932 204.335 419.475 197.094 426.65 187.328C419.048 177.933 410.197 171.023 400.068 166.528C390.205 162.153 379.598 162.538 367.877 167.874C365.92 177.765 364.546 186.206 363.754 193.183C362.956 200.208 362.113 211.3 361.235 226.415L386.691 235.41H386.693ZM349.294 230.145C350.275 212.571 351.214 199.827 352.123 191.862C353.032 183.851 354.648 174.138 356.974 162.705C357.148 161.841 357.517 161.027 358.05 160.325C358.584 159.624 359.27 159.052 360.057 158.653C375.782 150.659 390.857 149.638 404.818 155.831C418.035 161.697 429.344 171.043 438.689 183.782C439.424 184.784 439.821 185.994 439.823 187.236C439.825 188.479 439.431 189.69 438.699 190.694C430.125 202.442 423.596 211.031 419.064 216.497C414.556 221.94 405.797 231.812 392.742 246.165C391.966 247.018 390.957 247.623 389.839 247.904C388.721 248.186 387.545 248.131 386.459 247.747L353.19 235.991C351.996 235.57 350.97 234.772 350.268 233.718C349.565 232.664 349.223 231.41 349.294 230.145Z" fill="#524F75"/>
<path id="Vector_40" d="M333.973 246.432C334.511 239.755 337.013 233.579 340.246 227.056C343.481 220.532 346.324 217.862 350.295 212.879C362.96 215.097 371.781 217.802 376.759 220.996C381.731 224.188 389.13 231.888 398.942 244.098C398.942 253.905 393.428 260.828 388.449 265.716C383.469 270.604 376.624 276.124 366.901 279.494" fill="#F06767"/>
<path id="Vector_41" d="M373.295 225.773C377.412 228.313 384.113 234.975 393.044 245.564C392.599 251.189 389.766 256.013 384.667 261.197C378.923 267.037 372.987 271.225 365.522 273.958C364.064 274.493 362.878 275.584 362.225 276.993C361.572 278.401 361.505 280.012 362.04 281.469C362.574 282.927 363.666 284.113 365.074 284.766C366.483 285.419 368.093 285.486 369.551 284.951C378.825 281.552 386.142 276.389 393.014 269.406C400.689 261.605 404.989 253.617 404.81 243.402C404.787 242.068 404.308 240.782 403.453 239.757C393.04 227.254 385.176 219.348 379.446 215.81C373.592 212.198 364.09 209.463 350.679 207.355C349.639 207.192 348.575 207.311 347.598 207.701C346.621 208.091 345.767 208.738 345.126 209.572C344.638 210.21 344.142 210.836 343.539 211.589C343.286 211.909 342.259 213.186 342.002 213.509C341.286 214.407 340.737 215.109 340.205 215.822C338.043 218.67 336.191 221.74 334.679 224.981C330.673 233.437 328.624 239.753 328.193 246.604C328.138 247.375 328.236 248.149 328.482 248.882C328.728 249.614 329.117 250.291 329.625 250.873C330.134 251.455 330.753 251.93 331.446 252.271C332.14 252.612 332.894 252.813 333.665 252.862C334.436 252.91 335.21 252.805 335.94 252.553C336.671 252.301 337.344 251.907 337.922 251.394C338.499 250.88 338.969 250.257 339.305 249.561C339.64 248.865 339.835 248.109 339.877 247.338C340.197 242.27 341.832 237.227 345.258 229.993C346.433 227.465 347.877 225.07 349.565 222.85C350.017 222.245 350.501 221.627 351.151 220.811C351.315 220.608 351.822 219.978 352.22 219.476C362.406 221.266 369.491 223.426 373.295 225.773Z" fill="#524F75"/>
<path id="Vector_42" d="M200.388 236.366C215.475 236.366 227.705 223.56 227.705 207.761C227.705 191.962 215.473 177.829 200.388 177.829C185.303 177.829 173.071 191.964 173.071 207.761C173.071 223.558 185.302 236.366 200.388 236.366Z" fill="white"/>
<path id="Vector_43" d="M200.388 242.219C182.008 242.219 167.218 226.733 167.218 207.761C167.218 188.61 182.147 171.976 200.388 171.976C218.63 171.976 233.559 188.61 233.559 207.761C233.559 226.733 218.769 242.219 200.388 242.219ZM200.388 230.512C212.18 230.512 221.852 220.385 221.852 207.761C221.852 194.811 211.866 183.683 200.388 183.683C188.911 183.683 178.925 194.811 178.925 207.761C178.925 220.385 188.595 230.512 200.388 230.512Z" fill="#524F75"/>
<path id="Vector_44" d="M184.722 215.763C186.154 217.625 188.269 218.805 190.63 218.805C194.94 218.805 198.435 214.873 198.435 210.025C198.435 205.176 194.94 201.244 190.63 201.244C186.373 201.244 182.909 205.08 182.825 209.847L188.612 210.793L184.722 215.763Z" fill="#232323"/>
<path id="Vector_45" d="M272.583 240.269C294.137 240.269 311.608 222.963 311.608 201.615C311.608 180.267 292.1 162.22 270.546 162.22C248.995 162.22 233.559 180.269 233.559 201.615C233.559 222.961 251.03 240.269 272.583 240.269Z" fill="white"/>
<path id="Vector_46" d="M272.584 246.122C247.811 246.122 227.706 226.208 227.706 201.614C227.706 176.58 246.154 156.366 270.547 156.366C295.505 156.366 317.462 177.189 317.462 201.614C317.462 226.208 297.356 246.122 272.584 246.122ZM272.584 234.414C290.915 234.414 305.754 219.718 305.754 201.614C305.754 183.798 289.173 168.073 270.547 168.073C252.87 168.073 239.413 182.818 239.413 201.614C239.413 219.718 254.252 234.414 272.584 234.414Z" fill="#524F75"/>
<path id="Vector_47" d="M251.973 212.124C253.866 214.475 256.535 216.074 259.501 216.633C262.467 217.192 265.535 216.676 268.155 215.175C270.774 213.675 272.772 211.29 273.791 208.449C274.809 205.608 274.781 202.496 273.711 199.674C272.641 196.851 270.599 194.503 267.953 193.051C265.307 191.599 262.23 191.138 259.274 191.751C256.319 192.365 253.679 194.012 251.829 196.397C249.98 198.782 249.041 201.749 249.182 204.764L257.625 205.946L251.973 212.124Z" fill="#232323"/>
</g>
</g>
</svg>
