<svg width="505" height="457" viewBox="0 0 505 457" fill="none" xmlns="http://www.w3.org/2000/svg">
<g id="dinosaur">
<g id="dinosaur-right-foot">
<path id="Vector" d="M210.577 391.703C211.543 386.306 207.889 381.159 202.415 380.205L193.695 378.689C188.222 377.736 183.005 381.34 182.039 386.741L177.457 412.371C177.187 413.884 176.622 415.33 175.793 416.625C174.964 417.92 173.888 419.04 172.627 419.919C171.365 420.798 169.943 421.42 168.441 421.749C166.939 422.079 165.387 422.109 163.873 421.838L163.826 421.83L148.197 418.968C142.773 418.027 137.682 421.539 136.739 426.81C135.787 432.135 139.366 437.225 144.757 438.213L179.941 444.652C180.536 444.878 181.163 445.052 181.814 445.165L190.534 446.681C191.974 446.934 193.452 446.873 194.866 446.501C198.513 445.604 201.467 442.669 202.164 438.782C202.173 438.712 204.979 423.018 210.577 391.703Z" fill="#6FCB6C"/>
<path id="Vector_2" d="M143.701 443.967C135.155 442.402 129.453 434.293 130.975 425.778C132.49 417.3 140.636 411.711 149.249 413.21L164.878 416.074C165.636 416.212 166.414 416.199 167.167 416.035C167.92 415.872 168.634 415.561 169.267 415.122C169.9 414.682 170.44 414.122 170.856 413.474C171.273 412.825 171.557 412.101 171.693 411.343L176.275 385.711C177.81 377.124 186.066 371.423 194.696 372.923L203.416 374.439C212.068 375.944 217.877 384.127 216.337 392.732L207.924 439.809C207.392 442.765 206.017 445.504 203.964 447.695C201.91 449.886 199.266 451.437 196.351 452.158C194.124 452.744 191.796 452.841 189.528 452.443L180.808 450.927C179.997 450.786 179.199 450.583 178.419 450.32L143.701 443.967ZM201.412 385.973L192.692 384.459C190.376 384.057 188.197 385.561 187.801 387.772L183.219 413.403C182.814 415.673 181.965 417.841 180.721 419.783C179.478 421.726 177.864 423.404 175.972 424.722C174.079 426.04 171.946 426.973 169.693 427.466C167.441 427.96 165.113 428.005 162.843 427.598L147.194 424.734C144.932 424.34 142.876 425.752 142.503 427.834C142.121 429.975 143.574 432.041 145.812 432.449L181.52 438.988L182.017 439.177C182.271 439.272 182.54 439.347 182.819 439.391L191.539 440.908C192.168 441.021 192.788 440.99 193.471 440.812C194.985 440.439 196.136 439.243 196.402 437.754L204.817 390.673C205.206 388.488 203.705 386.373 201.412 385.973Z" fill="#524F75"/>
</g>
<g id="dinosaur-left-foot">
<path id="Vector_3" d="M318.387 377.672C316.689 372.398 311.083 369.512 305.862 371.225L297.544 373.955C292.324 375.668 289.466 381.329 291.161 386.601L299.382 412.152C300.328 415.095 300.073 418.292 298.671 421.047C297.27 423.802 294.836 425.891 291.901 426.859L277.975 431.45C272.835 433.144 270.029 438.72 271.698 443.912C273.374 449.104 278.894 451.932 284.018 450.242L326.896 436.107C332.035 434.414 334.841 428.837 333.173 423.645C333.155 423.579 328.225 408.254 318.387 377.672Z" fill="#6FCB6C"/>
<path id="Vector_4" d="M338.749 421.852C341.397 430.096 336.935 438.962 328.73 441.666L285.854 455.799C277.627 458.513 268.8 453.977 266.127 445.701C263.477 437.456 267.942 428.587 276.143 425.891L290.07 421.298C291.538 420.813 292.754 419.768 293.455 418.391C294.156 417.013 294.284 415.415 293.811 413.943L285.59 388.39C282.911 380.062 287.426 371.108 295.715 368.388L304.035 365.659C312.351 362.933 321.268 367.522 323.959 375.873L338.749 421.852ZM307.686 376.788L299.366 379.516C297.214 380.222 296.018 382.593 296.73 384.812L304.95 410.363C307.91 419.551 302.894 429.399 293.733 432.422L279.803 437.015C277.731 437.7 276.582 439.982 277.264 442.115C277.949 444.228 280.15 445.358 282.183 444.685L325.062 430.552C327.134 429.867 328.285 427.582 327.6 425.448L312.806 379.469C312.107 377.272 309.813 376.09 307.686 376.788Z" fill="#524F75"/>
</g>
<g id="dinosaur-right-hand">
<path id="Vector_5" d="M212.911 224.964C187.955 232.644 169.21 237.969 156.667 240.937C144.133 243.91 129.98 246.375 114.213 248.341C112.975 253.325 110.476 256.736 106.724 258.576C101.096 261.335 91.0789 266.693 84.0467 265.034C77.0086 263.379 72.0545 261.526 68.3998 251.294C64.7433 241.065 67.0847 230.451 71.4242 225.84C75.7657 221.229 84.9735 217.961 90.7238 216.755C94.5579 215.953 98.9852 217.178 104.006 220.435C123.075 211.571 137.832 205.208 148.279 201.348C158.726 197.489 177.329 191.522 204.095 183.452" fill="#70C56E"/>
<path id="Vector_6" d="M109.307 263.831C109.053 263.952 108.788 264.084 108.419 264.268L107.44 264.752C106.597 265.165 105.937 265.491 105.266 265.811C102.306 267.235 99.7637 268.326 97.2193 269.206C91.8066 271.079 87.0398 271.752 82.7061 270.73C72.0642 268.225 66.8154 264.252 62.8876 253.261C58.7998 241.823 60.7627 228.617 67.1627 221.823C71.9295 216.761 81.0944 212.792 89.5198 211.025C94.2164 210.039 99.1647 211.058 104.331 213.827C122.189 205.575 136.146 199.589 146.244 195.856C156.837 191.946 175.53 185.953 202.402 177.85C203.138 177.628 203.91 177.553 204.675 177.63C205.44 177.706 206.183 177.933 206.86 178.296C207.538 178.66 208.137 179.153 208.624 179.748C209.11 180.343 209.475 181.028 209.697 181.764C209.919 182.5 209.994 183.273 209.918 184.038C209.841 184.803 209.615 185.545 209.251 186.223C208.888 186.9 208.394 187.499 207.799 187.986C207.204 188.473 206.519 188.838 205.783 189.06C179.126 197.099 160.609 203.036 150.306 206.841C140.037 210.636 125.409 216.941 106.472 225.747C105.573 226.164 104.583 226.347 103.595 226.277C102.606 226.208 101.651 225.889 100.819 225.351C96.9832 222.863 94.0369 222.047 91.9237 222.488C85.6271 223.807 78.4525 226.917 75.6856 229.854C72.5012 233.237 71.2271 241.805 73.9159 249.327C76.3725 256.195 78.3296 257.678 85.393 259.339C87.1335 259.749 89.8847 259.358 93.393 258.149C95.4456 257.438 97.6095 256.51 100.203 255.261C101.522 254.619 102.838 253.972 104.152 253.319C106.255 252.289 107.693 250.326 108.538 246.927C108.825 245.78 109.451 244.747 110.336 243.962C111.22 243.178 112.321 242.68 113.494 242.533C129.059 240.591 143.003 238.158 155.329 235.243C167.711 232.307 186.353 227.011 211.2 219.366C212.684 218.91 214.288 219.061 215.66 219.788C217.032 220.515 218.059 221.756 218.516 223.24C218.972 224.724 218.821 226.329 218.094 227.701C217.367 229.073 216.126 230.1 214.642 230.556C189.572 238.272 170.716 243.626 158.025 246.632C146.253 249.423 133.12 251.768 118.611 253.68C116.679 258.277 113.563 261.741 109.305 263.831H109.307Z" fill="#524F75"/>
<path id="Vector_7" d="M69.0692 237.565L83.7267 232.617C84.0938 232.481 84.4843 232.42 84.8751 232.438C85.266 232.456 85.6493 232.552 86.0024 232.721C86.3555 232.889 86.6712 233.127 86.9309 233.42C87.1905 233.712 87.3888 234.054 87.5141 234.425C87.6394 234.796 87.689 235.188 87.6602 235.578C87.6313 235.968 87.5244 236.349 87.346 236.697C87.1675 237.045 86.9211 237.354 86.6211 237.605C86.3212 237.857 85.974 238.045 85.5999 238.16L70.9424 243.11C70.5769 243.239 70.1895 243.294 69.8026 243.271C69.4158 243.249 69.0373 243.15 68.6889 242.981C68.3406 242.811 68.0294 242.574 67.7735 242.283C67.5175 241.992 67.3219 241.653 67.1979 241.286C67.0739 240.919 67.024 240.531 67.0511 240.144C67.0783 239.758 67.1819 239.381 67.356 239.034C67.5301 238.688 67.7711 238.38 68.0652 238.128C68.3593 237.876 68.7006 237.684 69.0692 237.565ZM73.5472 248.995L88.2068 244.045C88.9342 243.824 89.719 243.894 90.3953 244.242C91.0715 244.589 91.586 245.186 91.83 245.906C92.0739 246.626 92.028 247.413 91.7021 248.1C91.3762 248.787 90.7958 249.32 90.0838 249.586L75.4243 254.54C74.6887 254.788 73.8847 254.734 73.189 254.39C72.4932 254.046 71.9624 253.439 71.7131 252.704C71.5898 252.34 71.5395 251.956 71.5649 251.572C71.5904 251.189 71.6912 250.814 71.8615 250.47C72.0319 250.125 72.2684 249.818 72.5577 249.565C72.8469 249.312 73.1832 249.118 73.5472 248.995Z" fill="#524F75"/>
</g>
<path id="Vector_8" d="M380.025 282.336C387.309 285.134 389.701 300.681 387.198 328.982L343.481 312.195C360.556 289.493 372.74 279.54 380.025 282.336Z" fill="#B0E6BB"/>
<path id="Vector_9" d="M381.573 297.14C380.769 291.216 379.329 288.365 378.162 287.895C376.997 287.425 373.982 288.474 369.29 292.176C364.683 295.807 359.165 301.493 352.788 309.208L381.61 320.855C382.384 310.876 382.363 302.953 381.573 297.14ZM382.548 277.04C393.487 281.464 395.84 298.728 392.535 329.848C392.439 330.749 392.136 331.615 391.648 332.379C391.161 333.142 390.503 333.782 389.727 334.248C388.95 334.715 388.076 334.994 387.173 335.065C386.27 335.136 385.363 334.997 384.523 334.658L341.104 317.116C340.265 316.777 339.515 316.248 338.914 315.569C338.314 314.891 337.879 314.083 337.644 313.208C337.409 312.333 337.381 311.416 337.56 310.528C337.74 309.64 338.124 308.806 338.681 308.092C357.926 283.407 371.608 272.619 382.548 277.04Z" fill="#524F75"/>
<path id="Vector_10" d="M420.597 295.126C426.589 296.624 429.908 308.845 430.556 331.797L394.583 322.827C405.932 302.866 414.599 293.631 420.597 295.126Z" fill="#B0E6BB"/>
<path id="Vector_11" d="M422.152 307.237C421.216 302.908 420.105 301.076 419.721 300.957C419.341 300.837 417.393 301.737 414.199 304.804C411.06 307.815 407.387 312.34 403.227 318.357L423.67 324.607C423.581 317.292 423.071 311.487 422.152 307.237ZM423.144 289.76C432.917 292.748 435.944 306.748 435.315 332.642C435.292 333.545 435.061 334.43 434.64 335.229C434.218 336.028 433.618 336.718 432.886 337.247C432.153 337.775 431.309 338.127 430.418 338.275C429.527 338.423 428.614 338.363 427.75 338.1L392.295 327.259C391.431 326.995 390.641 326.534 389.985 325.914C389.329 325.293 388.826 324.529 388.514 323.682C388.203 322.834 388.091 321.926 388.189 321.029C388.287 320.131 388.591 319.268 389.077 318.508C403.036 296.689 413.376 286.777 423.144 289.76Z" fill="#524F75"/>
<path id="Vector_12" d="M456.886 304.443C462.392 304.927 467.05 315.13 470.856 335.05L437.809 332.158C445.018 313.202 451.377 303.963 456.886 304.443Z" fill="#B0E6BB"/>
<path id="Vector_13" d="M455.774 310.607C454.904 311.298 453.828 312.574 452.644 314.433C450.708 317.473 448.638 321.787 446.478 327.339L463.821 328.248C462.252 322.5 460.648 317.992 459.036 314.769C458.053 312.798 457.12 311.415 456.322 310.638C456.239 310.555 456.152 310.476 456.063 310.4C455.964 310.465 455.867 310.534 455.774 310.607ZM456.677 298.568C466.207 299.067 471.967 310.599 477.114 333.21C477.973 336.995 474.974 340.56 471.101 340.355L437.971 338.617C437.067 338.569 436.187 338.312 435.399 337.867C434.612 337.421 433.938 336.8 433.43 336.051C432.923 335.301 432.596 334.445 432.475 333.548C432.354 332.651 432.443 331.739 432.734 330.882C440.221 308.935 447.155 298.066 456.677 298.568Z" fill="#524F75"/>
<path id="Vector_14" d="M183.499 387.405C147.296 388.632 119.903 366.65 118.685 330.232C118.568 326.751 120.018 290.716 123.659 264.34C125.567 250.517 129.358 222.556 135.032 180.469C137.84 159.645 123.655 140.338 102.945 136.79C75.9378 132.166 57.4187 128.697 47.3875 126.383C26.2246 121.499 11.7075 106.609 11.7075 85.2295C11.7075 63.8012 31.048 52.3436 52.3026 50.9056C117.526 50.7124 150.974 50.7124 152.646 50.9056L229.918 50.7319C279.828 50.7319 320.285 91.4305 320.285 141.635V257.493C320.285 287.631 340.041 314.207 368.906 322.89C384.297 327.52 393.331 330.069 396.006 330.531C435.042 337.276 455.007 331.099 480.511 336.453C486.548 337.717 506.603 347.226 476.33 356.632C446.519 365.893 383.255 381.19 314.675 387.405C268.952 391.548 225.231 391.548 183.499 387.405Z" fill="#70C56E"/>
<path id="Vector_15" d="M183.499 387.405C225.229 391.547 268.952 391.547 314.675 387.405C383.253 381.188 446.515 365.893 476.33 356.632C506.603 347.229 486.542 337.721 480.511 336.453C455.013 331.099 435.042 337.276 396.006 330.531C393.331 330.068 384.297 327.52 368.905 322.89C340.041 314.211 320.285 287.635 320.285 257.493V141.635C320.285 91.4303 279.828 50.7317 229.918 50.7317L152.644 50.9054C150.972 50.7122 117.522 50.7122 52.3005 50.9054C31.0478 52.3415 11.7073 63.799 11.7073 85.2293C11.7073 106.609 26.2283 121.499 47.3912 126.382C57.4224 128.697 75.9415 132.166 102.948 136.79C123.659 140.336 137.844 159.645 135.036 180.468C129.362 222.558 125.571 250.517 123.662 264.34C120.021 290.716 118.572 326.747 118.689 330.232C119.906 366.65 147.298 388.632 183.499 387.405ZM106.987 330.62C106.704 322.172 109.093 284.263 112.064 262.74C113.971 248.933 117.76 220.983 123.434 178.905C125.399 164.328 115.469 150.814 100.972 148.332C73.7541 143.67 55.0732 140.17 44.7571 137.791C17.7912 131.567 0 111.705 0 85.2293C0 58.2966 22.3902 41.1942 51.5122 39.2254C115.487 39.0127 145.77 38.9951 152.619 39.2039L229.918 39.0244C286.306 39.0244 331.992 84.9795 331.992 141.635V257.493C331.993 269.655 335.912 281.493 343.168 291.253C350.424 301.013 360.631 308.176 372.277 311.68C386.98 316.103 396.023 318.65 398 318.993C414.24 321.799 424.925 322.367 445.512 322.297C455.136 322.263 459.22 322.312 464.54 322.621C471.003 322.993 476.939 323.735 482.919 324.991C490.242 326.531 498.675 331.077 502.361 337.965C505.984 344.743 504.525 352.445 498.794 358.053C494.751 362.01 488.566 365.085 479.805 367.807C438.17 380.742 374.919 393.7 315.735 399.065C269.573 403.249 225.36 403.272 183.102 399.128C140.187 400.232 108.392 372.687 106.987 330.62Z" fill="#524F75"/>
<path id="Vector_16" d="M164.006 216.585H179.412C185.252 216.585 190.937 218.457 195.635 221.925C200.333 225.393 203.796 230.275 205.516 235.856C212.402 258.193 216.417 272.997 217.565 280.263C218.456 285.908 219.584 299.463 220.948 320.935C222.589 346.747 202.995 369.001 177.182 370.64C176.194 370.703 175.203 370.735 174.212 370.736H173.98C149.024 370.736 128.794 350.505 128.794 325.549C128.794 324.082 128.866 322.615 129.007 321.155L136.815 241.253C138.183 227.255 149.949 216.585 164.006 216.585Z" fill="white"/>
<path id="Vector_17" d="M70.2441 54.1269L70.8198 44.9757C70.8178 39.5338 75.4793 35.1221 81.2236 35.1221C86.97 35.1221 91.5632 39.0869 93.3017 44.9757L93.6588 54.6343" fill="#6FCB6C"/>
<path id="Vector_18" d="M87.8051 54.849C87.8333 55.6172 88.0125 56.3724 88.3326 57.0713C88.6526 57.7702 89.1071 58.3993 89.6702 58.9226C90.2334 59.4459 90.8941 59.8531 91.6146 60.121C92.3351 60.389 93.1013 60.5123 93.8695 60.4842C94.6377 60.456 95.3928 60.2768 96.0918 59.9567C96.7907 59.6367 97.4198 59.1822 97.943 58.619C98.4663 58.0559 98.8735 57.3952 99.1415 56.6747C99.4094 55.9542 99.5328 55.188 99.5046 54.4198L99.1241 44.0256L98.9154 43.3193C96.4451 34.9427 89.5963 29.2686 81.2236 29.2686C72.3846 29.2686 65.0812 36.1193 64.9661 44.769L64.3983 53.7583C64.35 54.5256 64.4533 55.2949 64.7023 56.0223C64.9513 56.7497 65.3411 57.4209 65.8496 57.9976C66.358 58.5743 66.975 59.0453 67.6654 59.3835C68.3558 59.7218 69.1061 59.9207 69.8734 59.969C70.6407 60.0173 71.41 59.914 72.1374 59.665C72.8648 59.416 73.536 59.0262 74.1127 58.5178C74.6894 58.0094 75.1604 57.3923 75.4986 56.7019C75.8369 56.0115 76.0359 55.2612 76.0842 54.4939L76.6597 45.3446L76.6715 44.9759C76.6715 42.8412 78.6422 40.9759 81.2236 40.9759C83.9807 40.9759 86.328 42.7846 87.4812 46.0042L87.8051 54.849Z" fill="#524F75"/>
<path id="Vector_19" d="M80.279 45.7661C82.1268 45.7661 83.6234 47.2647 83.6234 49.1105V51.29C83.6229 52.1767 83.2704 53.027 82.6432 53.6538C82.0161 54.2807 81.1657 54.6328 80.279 54.6328C79.3923 54.6328 78.5418 54.2807 77.9147 53.6538C77.2875 53.027 76.935 52.1767 76.9346 51.29V49.1105C76.9341 48.6712 77.0202 48.236 77.1881 47.8301C77.356 47.4241 77.6023 47.0552 77.913 46.7445C78.2236 46.4339 78.5925 46.1875 78.9985 46.0196C79.4045 45.8518 79.8396 45.7656 80.279 45.7661Z" fill="#4E904C"/>
<path id="Vector_20" d="M33.1709 54.1269L33.7914 44.9757C33.7894 39.5338 38.808 35.1221 44.9972 35.1221C51.1865 35.1221 56.2031 39.5338 56.2031 44.9757L56.5855 54.6343" fill="#6FCB6C"/>
<path id="Vector_21" d="M44.9971 29.2686C35.8088 29.2686 28.0663 36.0081 27.9376 44.7534L27.3288 53.731C27.2695 54.5019 27.3634 55.2769 27.6053 56.0113C27.8472 56.7457 28.2322 57.4249 28.738 58.0096C29.2438 58.5944 29.8605 59.0732 30.5524 59.4183C31.2442 59.7634 31.9977 59.968 32.7691 60.0204C33.5405 60.0727 34.3146 59.9717 35.0468 59.7231C35.7789 59.4746 36.4546 59.0835 37.0347 58.5724C37.6149 58.0613 38.088 57.4403 38.4269 56.7453C38.7657 56.0503 38.9635 55.295 39.0088 54.5232L39.6293 45.372L39.6429 44.9759C39.6429 42.9466 41.8829 40.9759 44.9971 40.9759C48.1093 40.9759 50.3493 42.9466 50.3493 44.9759L50.3532 45.2061L50.7356 54.8646C50.7658 55.6328 50.947 56.3875 51.2689 57.0855C51.5908 57.7836 52.0471 58.4115 52.6117 58.9331C53.1763 59.4548 53.8382 59.8601 54.5595 60.1259C55.2808 60.3917 56.0475 60.5128 56.8156 60.4822C57.5838 60.4521 58.3384 60.2709 59.0365 59.9489C59.7346 59.627 60.3624 59.1707 60.8841 58.6061C61.4058 58.0415 61.8111 57.3796 62.0769 56.6583C62.3427 55.937 62.4637 55.1703 62.4332 54.4022L62.0566 44.8451C61.9805 36.0549 54.2185 29.2686 44.9971 29.2686Z" fill="#524F75"/>
<path id="Vector_22" d="M43.9765 45.7661C45.9667 45.7661 47.5784 47.3798 47.5784 49.368V51.0344C47.5778 51.9895 47.1979 52.9052 46.5223 53.5802C45.8466 54.2552 44.9306 54.6343 43.9755 54.634C43.0204 54.6338 42.1046 54.2542 41.4293 53.5788C40.754 52.9034 40.3746 51.9875 40.3745 51.0324V49.368C40.3743 48.895 40.4672 48.4265 40.6482 47.9893C40.8291 47.5522 41.0944 47.155 41.4289 46.8205C41.7635 46.486 42.1606 46.2207 42.5978 46.0398C43.0349 45.8588 43.5034 45.7659 43.9765 45.7661Z" fill="#4E904C"/>
<path id="Vector_23" d="M126.829 40.9758C126.829 48.2207 129.707 55.1689 134.83 60.2919C139.953 65.4148 146.901 68.2928 154.146 68.2928C161.391 68.2928 168.339 65.4148 173.462 60.2919C178.585 55.1689 181.463 48.2207 181.463 40.9758C181.463 33.7308 178.585 26.7826 173.462 21.6597C168.339 16.5367 161.391 13.6587 154.146 13.6587C146.901 13.6587 139.953 16.5367 134.83 21.6597C129.707 26.7826 126.829 33.7308 126.829 40.9758Z" fill="white"/>
<path id="Vector_24" d="M154.146 74.1466C135.824 74.1466 120.976 59.2959 120.976 40.9759C120.976 22.6559 135.824 7.80518 154.146 7.80518C172.468 7.80518 187.317 22.6559 187.317 40.9759C187.317 59.2959 172.464 74.1466 154.146 74.1466ZM154.146 62.4393C166 62.4393 175.61 52.8296 175.61 40.9759C175.61 29.1222 166 19.5125 154.146 19.5125C142.293 19.5125 132.683 29.1222 132.683 40.9759C132.683 52.8296 142.289 62.4393 154.146 62.4393Z" fill="#524F75"/>
<path id="dinosaur-eye" d="M139.746 47.2431C140.643 48.2823 141.787 49.0793 143.073 49.561C144.359 50.0428 145.745 50.1938 147.104 50.0003C148.463 49.8067 149.752 49.2748 150.852 48.4533C151.952 47.6318 152.828 46.5471 153.4 45.2988C153.971 44.0505 154.22 42.6786 154.123 41.309C154.027 39.9395 153.587 38.6162 152.846 37.4608C152.104 36.3053 151.084 35.3547 149.879 34.6961C148.675 34.0376 147.324 33.6923 145.951 33.6919C143.806 33.6915 141.746 34.5321 140.214 36.0332C138.682 37.5344 137.799 39.5765 137.756 41.7212L143.832 42.6031L139.746 47.2431Z" fill="#232323"/>
<path id="Vector_25" d="M215.61 80C193.518 80 175.61 62.0917 175.61 40C175.61 17.9083 193.518 0 215.61 0C237.702 0 255.61 17.9083 255.61 40C255.61 62.0917 237.698 80 215.61 80ZM215.61 68.2927C231.233 68.2927 243.903 55.6254 243.903 40C243.903 24.3746 231.233 11.7073 215.61 11.7073C199.986 11.7073 187.317 24.3746 187.317 40C187.317 55.6254 199.983 68.2927 215.61 68.2927Z" fill="#524F75"/>
<path id="Vector_26" d="M181.463 40.0003C181.463 44.4845 182.347 48.9248 184.063 53.0676C185.779 57.2104 188.294 60.9747 191.465 64.1455C194.635 67.3162 198.4 69.8314 202.542 71.5474C206.685 73.2635 211.126 74.1467 215.61 74.1467C220.094 74.1467 224.534 73.2635 228.677 71.5474C232.82 69.8314 236.584 67.3162 239.755 64.1455C242.926 60.9747 245.441 57.2104 247.157 53.0676C248.873 48.9248 249.756 44.4845 249.756 40.0003C249.756 35.5162 248.873 31.0759 247.157 26.9331C245.441 22.7903 242.926 19.026 239.755 15.8552C236.584 12.6845 232.82 10.1692 228.677 8.45323C224.534 6.73722 220.094 5.854 215.61 5.854C211.126 5.854 206.685 6.73722 202.542 8.45323C198.4 10.1692 194.635 12.6845 191.465 15.8552C188.294 19.026 185.779 22.7903 184.063 26.9331C182.347 31.0759 181.463 35.5162 181.463 40.0003Z" fill="white"/>
<path id="dinosaur-eye" d="M198.458 48.8451C200.105 50.752 202.367 52.0223 204.852 52.4355C207.337 52.8487 209.888 52.3787 212.063 51.1071C214.237 49.8355 215.898 47.8425 216.757 45.4742C217.616 43.1059 217.618 40.5117 216.763 38.1418C215.909 35.772 214.252 33.7761 212.079 32.5007C209.907 31.2252 207.356 30.7507 204.87 31.1595C202.385 31.5683 200.12 32.8346 198.471 34.7386C196.821 36.6425 195.89 39.064 195.84 41.5827L203.834 42.7456L198.458 48.8451Z" fill="#232323"/>
<path id="Vector_27" d="M146.948 91.7152C150.946 92.0371 155.947 102.441 161.951 122.927L134.634 119.471C138.839 100.646 142.945 91.3932 146.948 91.7152Z" fill="#FFF660"/>
<path id="Vector_28" d="M144.433 99.9961C142.81 103.653 141.128 109.05 139.411 116.142L156.47 118.3C154.197 111.058 152.094 105.432 150.179 101.45C149.057 99.118 148.029 97.4107 147.143 96.3551C147.024 96.212 146.899 96.074 146.769 95.9414C146.092 96.7122 145.286 98.0722 144.433 99.9961ZM165.694 121.83C165.876 122.452 165.9 123.109 165.765 123.743C165.63 124.376 165.339 124.966 164.919 125.459C164.499 125.952 163.963 126.333 163.359 126.567C162.755 126.801 162.102 126.881 161.459 126.8L134.142 123.344C133.603 123.276 133.084 123.096 132.619 122.816C132.154 122.536 131.752 122.161 131.439 121.717C131.127 121.272 130.911 120.768 130.805 120.235C130.699 119.702 130.705 119.153 130.823 118.622C135.614 97.1941 140.025 87.2468 147.258 87.8283C153.875 88.357 159.03 99.0809 165.694 121.83Z" fill="#524F75"/>
<path id="Vector_29" d="M111.973 91.7426C116.829 92.3865 121.132 101.481 124.878 119.025L95.6099 117.311C101.661 99.6197 107.114 91.0968 111.973 91.7426Z" fill="white"/>
<path id="Vector_30" d="M115.315 100.714C113.674 97.2449 112.232 95.7132 111.46 95.6098C109.709 95.3776 105.686 101.339 101.04 113.719L119.918 114.823C118.443 108.779 116.9 104.066 115.315 100.714ZM112.484 87.8732C119.821 88.8469 124.566 98.882 128.693 118.211C128.818 118.798 128.806 119.407 128.658 119.989C128.509 120.572 128.228 121.112 127.837 121.568C127.445 122.024 126.954 122.383 126.401 122.618C125.848 122.852 125.248 122.956 124.648 122.921L95.3796 121.208C94.7788 121.173 94.1943 120.999 93.6717 120.701C93.1491 120.403 92.7026 119.988 92.3671 119.488C92.0315 118.988 91.8161 118.418 91.7375 117.821C91.6589 117.225 91.7194 116.618 91.9142 116.049C98.6557 96.3454 104.734 86.8449 112.484 87.8732Z" fill="#524F75"/>
<path id="Vector_31" d="M75.1219 91.719C78.4233 92.0527 81.3502 99.8537 83.9024 115.122L62.439 112.488C67.5941 98.3083 71.8224 91.3854 75.1219 91.719Z" fill="white"/>
<path id="Vector_32" d="M72.8038 98.6947C71.3151 101.132 69.6546 104.648 67.8438 109.22L79.1141 110.603C78.156 105.727 77.159 101.914 76.1365 99.1903C75.6292 97.8361 75.1316 96.802 74.6848 96.1093C74.1502 96.6752 73.5102 97.5396 72.8038 98.6947ZM75.516 87.8362C81.6448 88.4547 84.8175 96.9171 87.7502 114.478C87.8503 115.077 87.8094 115.691 87.6306 116.271C87.4518 116.851 87.1401 117.382 86.7203 117.82C86.3004 118.259 85.7841 118.593 85.2123 118.797C84.6404 119.001 84.0289 119.069 83.4263 118.995L61.9629 116.359C61.3804 116.288 60.8215 116.086 60.3279 115.768C59.8342 115.451 59.4186 115.026 59.1118 114.526C58.805 114.025 58.615 113.462 58.5559 112.878C58.4969 112.295 58.5703 111.705 58.7707 111.153C64.7161 94.7981 69.3502 87.2137 75.516 87.8362Z" fill="#524F75"/>
<path id="Vector_33" d="M16.9579 112.158C95.0125 121.815 141.674 126.982 157.254 127.688C173.42 128.42 188.06 125.71 201.108 119.532C202.277 118.978 203.179 117.983 203.614 116.764C204.049 115.546 203.983 114.205 203.429 113.035C202.875 111.866 201.88 110.965 200.661 110.529C199.443 110.094 198.102 110.161 196.933 110.714C185.375 116.188 172.318 118.603 157.695 117.942C142.488 117.251 95.8711 112.088 18.1559 102.476C17.5176 102.392 16.8689 102.435 16.2474 102.603C15.6258 102.771 15.0436 103.06 14.5343 103.454C14.025 103.848 13.5987 104.339 13.2801 104.898C12.9614 105.458 12.7566 106.075 12.6775 106.714C12.5985 107.353 12.6467 108.001 12.8194 108.621C12.9921 109.241 13.2859 109.821 13.6838 110.327C14.0817 110.834 14.5758 111.256 15.1378 111.57C15.6997 111.884 16.3183 112.084 16.9579 112.158Z" fill="#524F75"/>
<path id="Vector_34" d="M227.181 239.24C227.038 240.255 227.096 241.288 227.353 242.28C227.609 243.273 228.059 244.205 228.676 245.024C229.293 245.842 230.065 246.532 230.948 247.052C231.831 247.572 232.808 247.913 233.823 248.056C234.838 248.199 235.871 248.14 236.864 247.883C237.856 247.627 238.788 247.177 239.607 246.56C240.425 245.943 241.115 245.171 241.635 244.288C242.155 243.404 242.496 242.427 242.638 241.412C242.781 240.397 242.723 239.364 242.466 238.372C242.21 237.379 241.76 236.447 241.143 235.628C240.526 234.81 239.754 234.12 238.871 233.6C237.988 233.08 237.011 232.739 235.996 232.596C234.981 232.453 233.948 232.512 232.955 232.769C231.963 233.025 231.031 233.475 230.212 234.092C229.394 234.709 228.705 235.481 228.184 236.364C227.664 237.248 227.323 238.225 227.181 239.24Z" fill="#524F75"/>
<g id="dinosaur-left-hand">
<path id="Vector_35" d="M253.487 241.503C264.806 243.361 281.734 244.536 304.271 245.028C305.852 249.912 308.581 253.137 312.452 254.714C318.257 257.07 328.626 261.716 335.528 259.574C342.426 257.433 347.244 255.233 350.177 244.775C353.111 234.316 350.035 223.888 345.384 219.593C340.734 215.298 331.321 212.681 325.501 211.881C321.621 211.347 317.289 212.88 312.506 216.478C290.938 208.473 274.48 202.773 263.148 199.372L234.527 188.583" fill="#70C56E"/>
<path id="Vector_36" d="M310.246 260.133L311.161 260.506L312.171 260.922C313.042 261.281 313.719 261.555 314.415 261.831C317.471 263.04 320.079 263.956 322.68 264.655C328.21 266.146 333.01 266.481 337.263 265.164C347.704 261.92 352.663 257.592 355.813 246.353C359.094 234.656 356.215 221.62 349.355 215.29C344.249 210.574 334.828 207.252 326.298 206.079C321.535 205.424 316.661 206.792 311.686 209.929C291.523 202.485 275.978 197.118 265.019 193.824L236.591 183.107C235.869 182.827 235.1 182.692 234.326 182.711C233.552 182.729 232.79 182.902 232.083 183.217C231.376 183.532 230.739 183.985 230.208 184.548C229.677 185.111 229.263 185.774 228.99 186.498C228.717 187.222 228.591 187.994 228.618 188.767C228.645 189.541 228.825 190.301 229.148 191.004C229.471 191.708 229.93 192.34 230.499 192.865C231.068 193.39 231.735 193.797 232.462 194.062L261.081 204.852L261.467 204.981C272.656 208.337 289.008 214.003 310.471 221.965C311.391 222.307 312.382 222.412 313.353 222.27C314.324 222.128 315.244 221.744 316.028 221.154C319.681 218.404 322.565 217.385 324.703 217.679C331.074 218.555 338.447 221.156 341.413 223.894C344.828 227.046 346.695 235.507 344.543 243.194C342.573 250.218 340.724 251.832 333.79 253.984C332.082 254.515 329.309 254.32 325.725 253.353C323.627 252.786 321.403 252.009 318.735 250.95C317.72 250.543 314.312 249.146 314.657 249.289C312.489 248.409 310.916 246.547 309.837 243.223C309.462 242.067 308.737 241.057 307.763 240.332C306.788 239.607 305.612 239.203 304.398 239.176C282.111 238.692 265.424 237.533 254.436 235.727C252.904 235.475 251.335 235.842 250.073 236.748C248.812 237.653 247.962 239.022 247.711 240.555C247.459 242.087 247.826 243.656 248.732 244.917C249.637 246.179 251.006 247.029 252.539 247.28C263.524 249.082 279.425 250.247 300.328 250.793C302.571 255.173 305.894 258.363 310.246 260.133Z" fill="#524F75"/>
<path id="Vector_37" d="M348.555 231.124L333.586 227.21C332.835 227.013 332.037 227.123 331.367 227.515C330.697 227.907 330.21 228.549 330.013 229.3C329.816 230.051 329.926 230.849 330.318 231.519C330.71 232.189 331.352 232.676 332.103 232.873L347.069 236.787C347.811 236.957 348.589 236.831 349.24 236.437C349.89 236.043 350.362 235.411 350.555 234.675C350.748 233.94 350.647 233.158 350.274 232.495C349.901 231.832 349.284 231.341 348.555 231.124ZM344.884 242.843L329.916 238.926C329.175 238.758 328.397 238.884 327.748 239.279C327.098 239.673 326.627 240.305 326.434 241.04C326.242 241.775 326.343 242.557 326.715 243.219C327.088 243.881 327.704 244.373 328.432 244.59L343.399 248.506C344.15 248.701 344.949 248.59 345.618 248.197C346.288 247.804 346.775 247.162 346.972 246.411C347.07 246.039 347.093 245.652 347.041 245.272C346.989 244.891 346.863 244.525 346.669 244.193C346.475 243.862 346.217 243.572 345.911 243.34C345.605 243.108 345.256 242.939 344.884 242.843Z" fill="#524F75"/>
</g>
</g>
</svg>
