<svg  viewBox="0 0 751 525" fill="none" xmlns="http://www.w3.org/2000/svg">
<g id="hippo">
<g id="hippo-foot-2">
<path id="Vector" d="M452.25 339L355.375 349.625C355.375 349.625 356.625 436.5 355.375 451.5C352.875 477.75 314.75 497.125 331 514.625C342.875 528.375 399.75 527.75 418.5 513.375C436.75 500.25 448 479.562 449.125 457.125C448.5 422.75 452.25 334.625 452.25 339Z" fill="url(#paint0_linear_19_29)"/>
<path id="Vector_2" d="M358.5 492.75C347.25 479.625 318.5 503.375 333.5 515.875C345.375 526.5 367.25 503.375 358.5 492.75Z" fill="#835A4A"/>
<path id="Vector_3" d="M386 497.125C370.375 493.375 352.25 520.875 372.25 523.375C392.25 525.875 399.125 500.25 386 497.125Z" fill="#835A4A"/>
</g>
<g id="hippo-foot-1">
<path id="Vector_4" d="M242.875 344C242.875 344 252.25 415.25 243.5 435.25C234.75 455.25 216.625 482.75 224.75 492.75C239.75 510.25 281 507.75 302.25 494.625C323.5 481.5 322.25 470.875 324.125 459.625C326 448.375 323.5 407.75 323.5 392.125C323.5 376.5 326 345.25 326 345.25L242.875 344Z" fill="url(#paint1_linear_19_29)"/>
<path id="Vector_5" d="M274.125 475.875C259.75 472.125 242.875 498.375 260.375 504.625C279.125 511.5 292.25 480.25 274.125 475.875Z" fill="#835A4A"/>
<path id="Vector_6" d="M243.5 469.625C231 465.25 211 487.125 227.875 497.125C242.875 507.125 261 475.875 243.5 469.625Z" fill="#835A4A"/>
</g>
<g id="hippo-foot-3">
<path id="Vector_7" d="M600.375 322.125C600.375 322.125 602.25 376.5 596.625 389.625C585.375 415.875 521.625 427.75 503.5 403.375C489.75 385.875 511.625 379 514.125 365.25C516.625 351.5 516.625 302.75 516.625 302.75L704.125 267.75C704.125 267.75 709.125 360.25 707.875 377.125C706.625 394 701 429 662.875 435.25C624.75 441.5 609.125 430.875 608.5 424.625C606.625 412.125 624.125 403.375 625.375 392.75C626.625 382.125 624.75 309 624.75 309L600.375 322.125Z" fill="url(#paint2_linear_19_29)"/>
<path id="Vector_8" d="M522.875 384C536.625 389.625 525.375 422.125 508.5 410.25C494.75 401.5 509.125 379 522.875 384Z" fill="#835A4A"/>
<path id="Vector_9" d="M554.125 389.625C567.25 392.125 558.5 421.5 541.625 419C524.75 416.5 537.875 386.5 554.125 389.625Z" fill="#835A4A"/>
<path id="Vector_10" d="M626.625 409C617.875 402.75 600.375 424.625 611 432.125C621.625 439.625 637.875 416.5 626.625 409Z" fill="#835A4A"/>
<path id="Vector_11" d="M649.75 415.25C637.25 413.375 621 435.25 636 439C651 442.75 664.75 417.75 649.75 415.25Z" fill="#835A4A"/>
</g>
<path id="hippo-body" d="M338.5 80.8751C338.5 80.8751 461 -18.4999 571.625 9.00013C695.375 40.2501 706 160.25 722.875 160.25C736.625 160.25 736 142.125 744.75 145.25C753.5 148.375 752.875 185.875 736.625 194.625C730.625 197.688 724 199.188 717.25 199C718 214.875 717.125 230.813 714.75 246.5C711 260.875 704.75 282.75 704.75 282.75C688.25 281.5 671.813 285.625 657.875 294.625C628.5 313.375 621.625 343.375 540.375 363.375C491 375.875 472.25 376.5 456 375.875C438.5 375.25 426.625 363.375 402.875 365.25C379.125 367.125 372.25 377.125 356.625 377.75C338.75 378.313 321 375.563 304.125 369.625L222.875 338.375L317.875 85.2501L338.5 80.8751Z" fill="url(#paint3_linear_19_29)"/>
<path id="Vector_13" d="M226 337.75C226 337.75 246 377.125 307.25 353.375C368.5 329.625 414.75 232.125 414.75 232.125L454.125 149.625L292.875 124L226 337.75Z" fill="url(#paint4_radial_19_29)"/>
<g id="hippo-head">
<path id="Vector_14" d="M323.5 130.25C333.5 119.187 341.562 106.5 347.25 92.7499C356 69.6249 357.25 37.1249 339.75 28.9999C296.625 8.99991 283.5 68.9999 281.625 68.9999C279.75 68.9999 261.625 55.8749 246.625 53.9999C237.384 52.9166 228.019 53.768 219.125 56.4999C219.125 56.4999 246.625 10.2499 212.25 2.12491C179.125 -5.37509 174.125 52.1249 174.125 52.1249C164.474 58.2615 155.651 65.6134 147.875 73.9999C138.5 85.2499 134.125 97.7499 126.625 100.25C119.125 102.75 89.1249 104 80.9999 132.75C72.8749 161.5 88.4999 186.5 81.6249 205.875C73.4999 229.625 62.8749 228.375 48.4999 234.625C9.74988 250.25 5.99988 265.875 3.49988 295.25C0.999879 329 24.7499 374 79.1249 389.625C133.5 405.25 170.375 389 191 375.875C209.75 363.375 215.375 346.5 228.5 344C253.812 337.75 277.062 325 296 307.125C326.625 279.625 349.125 254.625 337.25 188.375C334.375 168.625 329.812 149.187 323.5 130.25Z" fill="#B89379"/>
<path id="Vector_15" d="M198.5 27.125C191.625 50.25 165.375 65.875 152.875 91.5C140.375 117.125 137.875 147.125 128.5 169C116.625 197.75 87.2501 214.625 69.7501 224.625C46.6251 238.375 34.7501 235.25 21.6251 246.5C1.00007 264 4.75006 282.125 4.75006 282.125L189.125 305.25C189.125 305.25 203.5 294 202.25 285.25C198.5 256.5 163.5 214 174.75 180.25C186 146.5 214.75 125.25 247.25 115.25C275.375 106.5 295.375 100.875 295.375 100.875C297.938 86.4375 303.188 72.625 311 60.25C318.875 48.6875 327.625 37.875 337.25 27.75C326.625 22.6875 314.125 23.375 304.125 29.625C294.125 36.5 283.5 60.25 280.375 67.125C271.153 60.7352 260.737 56.2712 249.75 54C239.375 52.3125 228.75 52.75 218.5 55.25C218.5 55.25 247.875 7.125 209.75 0.25C205.063 8.8125 201.313 17.8125 198.5 27.125Z" fill="url(#paint5_radial_19_29)"/>
<path id="Vector_16" d="M317.875 167.75C294.125 159 262.25 189.625 251.625 223.375C241 257.125 242.25 292.75 271.625 298.375C296 302.75 321 279.625 333.5 252.125C346 224.625 347.25 178.375 317.875 167.75Z" fill="url(#paint6_radial_19_29)"/>
<path id="Vector_17" d="M240.375 261.5C240.375 261.5 265.375 267.75 265.375 257.125C265.375 246.5 250.375 243.375 247.25 244C244.125 244.625 230.375 245.875 240.375 261.5Z" fill="#0B0B0B"/>
<path id="Vector_18" d="M208.5 330.25C216.131 318.933 222.424 306.768 227.25 294C231.625 276.5 225.375 259 231 249C233.596 245.322 237.488 242.763 241.893 241.836C246.298 240.908 250.891 241.681 254.75 244C259.75 246.5 242.875 245.875 243.5 257.75C244.125 269.625 247.25 282.125 241.625 302.125C235.625 321.812 224.125 339.375 208.5 352.75C201 358.375 208.5 330.25 208.5 330.25Z" fill="#6B4433"/>
<path id="Vector_19" d="M99.75 264.625C123.25 259.562 147.5 259.562 171 264.625C208.5 273.375 220.375 297.125 217.25 332.125C215.375 353.375 186.625 381.5 141 378.375C95.375 375.25 77.25 346.5 77.25 346.5C77.25 346.5 51.625 366.5 18.5 345.25C2.87502 335.25 -2.12498 309 1.62502 287.125C4.12502 270.25 10.375 262.75 16 258.375C23.1844 252.166 31.8244 247.877 41.1141 245.91C50.4038 243.943 60.0405 244.361 69.125 247.125C80.625 250.312 91.1875 256.312 99.75 264.625Z" fill="#845A4A"/>
<path id="Vector_20" d="M123.5 300.25C117.25 307.125 111 315.25 117.25 321.5C123.5 327.75 133.5 319.625 140.375 312.125C147.25 304.625 150.375 298.375 144.75 292.75C139.125 287.125 131.625 290.875 123.5 300.25Z" fill="#0B0C0C"/>
<path id="Vector_21" d="M63.5 285.25C55.375 273.375 49.75 270.25 42.875 275.875C36 281.5 43.5 292.125 47.875 298.375C52.25 304.625 61 313.375 67.25 308.375C76.625 300.25 69.125 293.375 63.5 285.25Z" fill="#0B0C0C"/>
<path id="hippo-eye" d="M257.25 184.625C257.875 202.125 247.25 209.625 235.375 209.625C229.245 209.171 223.545 206.303 219.526 201.652C215.507 197 213.497 190.944 213.938 184.813C214.347 179.263 216.737 174.045 220.672 170.109C224.607 166.174 229.825 163.784 235.375 163.375C247.25 163.25 257.063 172.75 257.25 184.625Z" fill="#0B0C0C"/>
<path id="hippo-eye" d="M116.625 150.875C116.625 167.125 109.75 174 101 174C92.25 174 86 164.625 86 152.75C86 140.875 92.875 131.5 101 131.5C109.125 131.5 116 139 116.625 150.875Z" fill="#0B0C0C"/>
</g>
</g>
<defs>
<linearGradient id="paint0_linear_19_29" x1="389.619" y1="338.625" x2="389.619" y2="524.337" gradientUnits="userSpaceOnUse">
<stop offset="0.33" stop-color="#97715C"/>
<stop offset="0.48" stop-color="#A47D66"/>
<stop offset="0.72" stop-color="#B48C72"/>
<stop offset="0.9" stop-color="#BA9176"/>
</linearGradient>
<linearGradient id="paint1_linear_19_29" x1="271.075" y1="342.737" x2="278.325" y2="504.469" gradientUnits="userSpaceOnUse">
<stop offset="0.17" stop-color="#97715C"/>
<stop offset="0.26" stop-color="#A07962"/>
<stop offset="0.54" stop-color="#B38B71"/>
<stop offset="0.73" stop-color="#BA9176"/>
</linearGradient>
<linearGradient id="paint2_linear_19_29" x1="599.119" y1="273.062" x2="606.494" y2="439.125" gradientUnits="userSpaceOnUse">
<stop offset="0.17" stop-color="#97715C"/>
<stop offset="0.26" stop-color="#A07962"/>
<stop offset="0.54" stop-color="#B38B71"/>
<stop offset="0.73" stop-color="#BA9176"/>
</linearGradient>
<linearGradient id="paint3_linear_19_29" x1="489.506" y1="20.0001" x2="485.131" y2="368.438" gradientUnits="userSpaceOnUse">
<stop offset="0.27" stop-color="#855A4A"/>
<stop offset="0.43" stop-color="#956C5A"/>
<stop offset="0.64" stop-color="#AD8671"/>
<stop offset="0.75" stop-color="#B18873"/>
<stop offset="0.85" stop-color="#BB8D7A"/>
<stop offset="0.95" stop-color="#CE9686"/>
<stop offset="1" stop-color="#DA9C8E"/>
</linearGradient>
<radialGradient id="paint4_radial_19_29" cx="0" cy="0" r="1" gradientUnits="userSpaceOnUse" gradientTransform="translate(360.534 175.297) rotate(96.9112) scale(156.381 273.277)">
<stop offset="0.51" stop-color="#AD8671" stop-opacity="0"/>
<stop offset="0.65" stop-color="#B48975" stop-opacity="0.28"/>
<stop offset="0.85" stop-color="#C79382" stop-opacity="0.7"/>
<stop offset="1" stop-color="#DA9C8E"/>
</radialGradient>
<radialGradient id="paint5_radial_19_29" cx="0" cy="0" r="1" gradientUnits="userSpaceOnUse" gradientTransform="translate(191.105 161.317) rotate(-56.4695) scale(242.575 170.272)">
<stop stop-color="#845A4A"/>
<stop offset="0.26" stop-color="#8B6352"/>
<stop offset="0.68" stop-color="#A07D68"/>
<stop offset="1" stop-color="#B2947C"/>
</radialGradient>
<radialGradient id="paint6_radial_19_29" cx="0" cy="0" r="1" gradientUnits="userSpaceOnUse" gradientTransform="translate(302.308 256.415) rotate(24.2539) scale(45.7878 64.8851)">
<stop stop-color="#DA9C8E"/>
<stop offset="0.3" stop-color="#D69A8B" stop-opacity="0.7"/>
<stop offset="0.6" stop-color="#CA9484" stop-opacity="0.4"/>
<stop offset="0.89" stop-color="#B78B77" stop-opacity="0.11"/>
<stop offset="1" stop-color="#AD8671" stop-opacity="0"/>
</radialGradient>
</defs>
</svg>
