<svg width="429" height="491" viewBox="0 0 429 491" fill="none" xmlns="http://www.w3.org/2000/svg">
<path d="M248.732 376.874C304.149 373.817 345.097 371.315 371.577 369.372C411.296 366.457 422.045 383.06 422.582 396.726C423.118 410.394 394.115 430.701 388.123 433.071C382.133 435.442 365.185 429.448 376.213 420.133C387.241 410.818 414.757 388.62 376.213 388.62C350.515 388.62 308.024 400.501 248.732 424.261V376.874Z" fill="#F6BD4E"/>
<path d="M254.585 415.639C310.359 393.739 350.763 382.765 376.213 382.765C389.731 382.765 397.834 385.292 400.862 391.661C403.645 397.518 401.114 403.508 395.393 410.197C393.374 412.562 390.95 414.997 388.08 417.614C386.652 418.914 385.202 420.189 383.731 421.44C383.122 421.963 382.507 422.48 381.748 423.12L379.988 424.603C379.519 424.986 379.09 425.416 378.708 425.887C378.792 425.951 378.888 426.018 378.995 426.09C381.063 427.446 384.843 428.074 385.967 427.629C388.829 426.498 397.335 420.63 403.898 414.769C412.074 407.471 416.876 400.693 416.728 396.956C416.488 390.841 413.828 385.481 408.375 381.6C401.091 376.414 389.141 373.951 372.002 375.21C346.373 377.091 307.237 379.491 254.585 382.412V415.639ZM248.41 371.028C303.793 367.971 344.71 365.475 371.147 363.534C408.214 360.812 427.571 374.591 428.429 396.498C428.761 404.958 422.375 413.971 411.697 423.503C404.193 430.203 394.646 436.788 390.275 438.515C385.329 440.472 377.631 439.196 372.574 435.877C365.089 430.966 364.476 422.384 372.437 415.659L374.205 414.168C374.944 413.547 375.539 413.042 376.125 412.541C377.499 411.37 378.855 410.177 380.191 408.962C382.732 406.646 384.833 404.537 386.494 402.589C389.434 399.151 390.386 396.898 390.285 396.687C390.254 396.623 389.707 396.228 388.129 395.735C385.545 394.931 381.578 394.474 376.213 394.474C351.475 394.474 309.547 406.197 250.907 429.696L242.878 432.909V371.333L248.41 371.028Z" fill="#524F75"/>
<path d="M384.989 425.733C387.479 428.694 388.789 432.47 388.666 436.337C388.544 440.204 386.998 443.889 384.326 446.687L361.496 470.58L362.89 449.448L336.361 460.285L351.93 439.832L336.376 432.494L363.054 420.665C366.765 419.02 370.911 418.624 374.867 419.538C378.823 420.452 382.375 422.626 384.989 425.733Z" fill="#B57D47"/>
<path d="M380.066 443.346C381.803 441.652 382.853 439.375 383.014 436.954C383.176 434.532 382.437 432.136 380.94 430.226C379.219 428.028 376.83 426.449 374.133 425.726C371.437 425.003 368.578 425.175 365.988 426.217L350.786 432.332L354.7 434.347C355.475 434.747 356.151 435.315 356.678 436.009C357.205 436.703 357.571 437.507 357.748 438.36C357.925 439.214 357.909 440.096 357.702 440.943C357.494 441.79 357.1 442.58 356.548 443.255L353.867 446.537L360.611 444.053C364.671 442.556 368.894 445.83 368.458 450.135L367.951 455.173L380.066 443.346ZM334.051 436.882C329.596 434.583 329.898 428.117 334.548 426.246L361.617 415.358C366.561 413.369 372.017 413.039 377.165 414.419C382.312 415.799 386.872 418.813 390.158 423.009C393.434 427.19 395.05 432.434 394.697 437.734C394.344 443.034 392.047 448.017 388.246 451.727L364.593 474.806C360.679 478.624 354.133 475.469 354.681 470.027L355.869 458.277L337.768 464.944C332.173 467.005 327.44 460.359 331.213 455.744L342.909 441.444L334.051 436.882Z" fill="#524F75"/>
<path d="M69.9864 339.702L116.455 354.716L129.358 392.412C135.661 410.823 125.846 430.857 107.434 437.161C103.761 438.42 99.9045 439.062 96.0215 439.062H78.1054C69.2087 439.061 60.5792 436.021 53.6468 430.445C46.7144 424.869 41.8954 417.092 39.9883 408.402L32.4001 373.826C28.9347 358.039 38.9249 342.429 54.7122 338.966C59.7788 337.853 65.0503 338.106 69.9864 339.702Z" fill="#F6BD4E"/>
<path d="M111.867 359.385L68.1872 345.272C64.2388 343.996 60.022 343.792 55.9687 344.681C43.3365 347.456 35.3463 359.942 38.119 372.572L45.7073 407.147C47.3286 414.534 51.425 421.144 57.3176 425.883C63.2102 430.622 70.5453 433.206 78.1072 433.206H96.0233C99.2624 433.206 102.476 432.669 105.539 431.622C120.892 426.367 129.077 409.661 123.822 394.308L111.867 359.385ZM71.7853 334.131L121.044 350.047L134.897 390.517C142.248 411.988 130.8 435.35 109.331 442.699C105.047 444.166 100.551 444.915 96.0233 444.915H78.1072C67.8764 444.915 57.9527 441.419 49.9806 435.007C42.0084 428.595 36.4665 419.652 34.2731 409.659L26.6829 375.083C22.5248 356.137 34.5112 337.405 53.4575 333.249C59.5369 331.912 65.8624 332.217 71.7853 334.131Z" fill="#524F75"/>
<path d="M66.8861 406.675H104.65C116.332 406.675 125.801 416.146 125.801 427.826C125.801 439.506 116.33 448.978 104.65 448.978H66.8861C55.2041 448.978 45.7349 439.506 45.7349 427.826C45.7349 416.144 55.2041 406.675 66.8861 406.675Z" fill="#F6BD4E"/>
<path d="M51.5882 427.826C51.5882 431.884 53.1999 435.775 56.0687 438.643C58.9376 441.512 62.8286 443.124 66.8857 443.124H104.65C108.707 443.124 112.598 441.512 115.467 438.643C118.336 435.775 119.947 431.884 119.947 427.826C119.947 423.769 118.336 419.878 115.467 417.009C112.598 414.141 108.707 412.529 104.65 412.529H66.8857C62.8286 412.529 58.9376 414.141 56.0687 417.009C53.1999 419.878 51.5882 423.769 51.5882 427.826ZM66.8857 400.822H104.65C119.565 400.822 131.655 412.911 131.655 427.826C131.655 442.742 119.563 454.831 104.65 454.831H66.8857C51.9706 454.831 39.8809 442.74 39.8809 427.826C39.8809 412.913 51.9706 400.822 66.8857 400.822Z" fill="#524F75"/>
<path d="M65.356 429.846V445.44C65.356 446.992 65.9727 448.481 67.0705 449.579C68.1682 450.677 69.6571 451.294 71.2096 451.294C72.7621 451.294 74.251 450.677 75.3488 449.579C76.4466 448.481 77.0633 446.992 77.0633 445.44V429.846C77.0633 428.293 76.4466 426.804 75.3488 425.707C74.251 424.609 72.7621 423.992 71.2096 423.992C69.6571 423.992 68.1682 424.609 67.0705 425.707C65.9727 426.804 65.356 428.293 65.356 429.846Z" fill="#524F75"/>
<path d="M292.843 339.701L246.373 354.716L233.469 392.412C227.167 410.823 236.983 430.857 255.393 437.161C259.067 438.419 262.924 439.062 266.808 439.061H284.724C293.621 439.061 302.25 436.021 309.182 430.445C316.115 424.869 320.934 417.092 322.841 408.402L330.429 373.826C333.895 358.039 323.902 342.429 308.117 338.966C303.05 337.853 297.779 338.106 292.843 339.701Z" fill="#F6BD4E"/>
<path d="M294.642 345.272C298.59 343.996 302.807 343.792 306.86 344.681C319.493 347.456 327.483 359.942 324.71 372.572L317.122 407.149C315.5 414.535 311.404 421.146 305.511 425.885C299.619 430.624 292.284 433.208 284.722 433.208H266.806C263.567 433.208 260.351 432.671 257.29 431.624C241.936 426.369 233.75 409.663 239.005 394.31L250.962 359.385L294.642 345.272ZM291.044 334.131L241.785 350.045L227.932 390.515C220.581 411.986 232.029 435.348 253.5 442.697C257.784 444.164 262.28 444.913 266.808 444.913H284.724C294.955 444.913 304.878 441.417 312.85 435.005C320.823 428.593 326.365 419.65 328.558 409.657L336.146 375.083C340.306 356.137 328.316 337.405 309.372 333.249C303.292 331.912 296.967 332.217 291.044 334.131Z" fill="#524F75"/>
<path d="M295.943 406.675H258.18C246.498 406.675 237.026 416.146 237.026 427.826C237.026 439.506 246.498 448.978 258.178 448.978H295.943C307.625 448.978 317.095 439.506 317.095 427.826C317.095 416.144 307.625 406.675 295.943 406.675Z" fill="#F6BD4E"/>
<path d="M295.944 412.529C300.001 412.529 303.892 414.141 306.761 417.009C309.629 419.878 311.241 423.769 311.241 427.826C311.241 431.884 309.629 435.775 306.761 438.643C303.892 441.512 300.001 443.124 295.944 443.124H258.18C254.123 443.124 250.232 441.512 247.363 438.643C244.494 435.775 242.882 431.884 242.882 427.826C242.882 423.769 244.494 419.878 247.363 417.009C250.232 414.141 254.123 412.529 258.18 412.529H295.944ZM295.944 400.822H258.18C243.265 400.822 231.173 412.911 231.173 427.826C231.173 442.742 243.265 454.831 258.178 454.831H295.944C310.859 454.831 322.948 442.74 322.948 427.826C322.948 412.913 310.859 400.822 295.944 400.822Z" fill="#524F75"/>
<path d="M297.473 429.846V445.44C297.434 446.966 296.8 448.417 295.706 449.482C294.613 450.548 293.146 451.144 291.619 451.144C290.092 451.144 288.626 450.548 287.533 449.482C286.439 448.417 285.805 446.966 285.766 445.44V429.846C285.766 428.293 286.382 426.804 287.48 425.707C288.578 424.609 290.067 423.992 291.619 423.992C293.172 423.992 294.661 424.609 295.758 425.707C296.856 426.804 297.473 428.293 297.473 429.846Z" fill="#524F75"/>
<path d="M82.8779 277.415H278V398.39C278 419.943 260.529 437.415 238.976 437.415H121.902C100.349 437.415 82.8779 419.943 82.8779 398.39V277.415Z" fill="#F6BD4E"/>
<path d="M88.7317 398.39C88.7317 416.71 103.582 431.561 121.902 431.561H238.976C257.296 431.561 272.146 416.71 272.146 398.39V283.268H88.7317V398.39ZM283.854 271.561V398.39C283.854 423.177 263.762 443.268 238.976 443.268H121.902C97.1161 443.268 77.0244 423.177 77.0244 398.39V271.561H283.854Z" fill="#524F75"/>
<path d="M162.86 349.61H196.074C214.379 349.61 229.22 364.449 229.22 382.753C229.22 385.393 228.903 388.022 228.283 390.585L227.499 393.809C224.881 404.574 218.723 414.147 210.013 420.993C201.303 427.84 190.546 431.561 179.467 431.561C168.389 431.561 157.631 427.84 148.921 420.993C140.211 414.147 134.053 404.574 131.436 393.809L130.654 390.585C126.33 372.798 137.243 354.872 155.03 350.546C157.594 349.924 160.222 349.61 162.86 349.61Z" fill="#FFE281"/>
<path d="M144.342 457.861C126.662 457.861 112.498 444.07 107.333 423.247L104.494 383.005C104.385 381.456 103.665 380.014 102.492 378.996C101.32 377.978 99.791 377.467 98.2421 377.577C96.6932 377.686 95.2512 378.406 94.2332 379.578C93.2152 380.751 92.7046 382.279 92.8138 383.828L95.7231 425.05L95.8363 425.52C102.066 451.434 120.521 469.569 144.342 469.569C167.758 469.569 179.686 454.378 185.409 425.284L185.46 424.985L186.911 414.866C187.132 413.329 186.733 411.768 185.802 410.525C184.871 409.282 183.484 408.46 181.947 408.24C180.411 408.019 178.849 408.419 177.606 409.35C176.364 410.28 175.542 411.667 175.321 413.204L173.893 423.171C169.116 447.331 160.814 457.861 144.342 457.861Z" fill="#524F75"/>
<path d="M125.522 439.77H163.159C174.858 439.77 184.341 449.253 184.341 460.95C184.341 472.648 174.858 482.131 163.161 482.131H125.522C113.824 482.133 104.341 472.648 104.341 460.95C104.341 449.253 113.824 439.77 125.522 439.77Z" fill="#F6BD4E"/>
<path d="M125.522 445.623C117.058 445.623 110.195 452.484 110.195 460.95C110.195 469.416 117.058 476.277 125.522 476.277H163.159C167.224 476.277 171.122 474.662 173.997 471.788C176.871 468.914 178.486 465.015 178.486 460.95C178.486 456.885 176.871 452.987 173.997 450.112C171.122 447.238 167.224 445.623 163.159 445.623H125.522ZM125.522 433.916H163.159C178.09 433.916 190.195 446.019 190.195 460.95C190.195 475.881 178.09 487.984 163.161 487.984H125.522C110.593 487.986 98.4878 475.883 98.4878 460.95C98.4878 446.017 110.593 433.916 125.522 433.916Z" fill="#524F75"/>
<path d="M123.941 462.976V478.589C123.941 480.142 124.558 481.631 125.656 482.729C126.754 483.826 128.243 484.443 129.795 484.443C131.348 484.443 132.836 483.826 133.934 482.729C135.032 481.631 135.649 480.142 135.649 478.589V462.976C135.649 461.423 135.032 459.934 133.934 458.837C132.836 457.739 131.348 457.122 129.795 457.122C128.243 457.122 126.754 457.739 125.656 458.837C124.558 459.934 123.941 461.423 123.941 462.976ZM153.034 462.976V478.589C153.034 480.142 153.651 481.631 154.749 482.729C155.846 483.826 157.335 484.443 158.888 484.443C160.44 484.443 161.929 483.826 163.027 482.729C164.125 481.631 164.741 480.142 164.741 478.589V462.976C164.741 461.423 164.125 459.934 163.027 458.837C161.929 457.739 160.44 457.122 158.888 457.122C157.335 457.122 155.846 457.739 154.749 458.837C153.651 459.934 153.034 461.423 153.034 462.976Z" fill="#524F75"/>
<path d="M257.941 380.254C258.019 379.489 258.246 378.747 258.611 378.07C258.975 377.393 259.469 376.794 260.065 376.308C260.66 375.822 261.346 375.458 262.082 375.237C262.819 375.016 263.591 374.942 264.356 375.02C265.121 375.097 265.863 375.325 266.54 375.689C267.217 376.053 267.816 376.547 268.302 377.143C268.788 377.739 269.152 378.424 269.373 379.16C269.594 379.897 269.668 380.669 269.59 381.434L265.067 426.107L264.968 426.503C258.554 452.714 243.817 468.102 220.326 468.102C207.959 468.102 198.576 463.358 191.945 454.295C186.62 447.019 183.218 437.391 180.482 423.793L176.287 408.492C176.084 407.75 176.028 406.976 176.124 406.213C176.22 405.451 176.466 404.714 176.846 404.046C177.615 402.697 178.888 401.709 180.385 401.299C181.883 400.888 183.482 401.089 184.831 401.858C186.18 402.627 187.168 403.9 187.579 405.397L191.828 420.892L191.924 421.292C196.923 446.267 204.33 456.392 220.33 456.392C237.524 456.392 248.211 445.339 253.504 424.107L257.941 380.254Z" fill="#524F75"/>
<path d="M205.149 442.63H243.534C255.026 442.63 264.341 451.945 264.341 463.436C264.341 474.929 255.026 484.244 243.534 484.244H205.149C193.656 484.244 184.341 474.929 184.341 463.436C184.341 451.945 193.656 442.63 205.149 442.63Z" fill="#F6BD4E"/>
<path d="M205.149 448.484C201.183 448.484 197.38 450.059 194.576 452.864C191.772 455.668 190.196 459.471 190.196 463.437C190.196 467.403 191.772 471.206 194.576 474.011C197.38 476.815 201.183 478.39 205.149 478.39H243.534C247.47 478.345 251.23 476.75 253.997 473.951C256.765 471.151 258.317 467.374 258.317 463.437C258.317 459.501 256.765 455.723 253.997 452.923C251.23 450.124 247.47 448.529 243.534 448.484H205.149ZM205.149 436.777H243.534C258.26 436.777 270.195 448.712 270.195 463.436C270.195 478.162 258.26 490.098 243.534 490.098H205.149C190.423 490.098 178.488 478.162 178.488 463.436C178.488 448.712 190.423 436.777 205.149 436.777Z" fill="#524F75"/>
<path d="M203.941 461.522V476.861C203.981 478.387 204.615 479.838 205.708 480.903C206.802 481.969 208.268 482.565 209.795 482.565C211.322 482.565 212.788 481.969 213.882 480.903C214.975 479.838 215.609 478.387 215.649 476.861V461.522C215.649 459.97 215.032 458.481 213.934 457.383C212.836 456.285 211.348 455.668 209.795 455.668C208.243 455.668 206.754 456.285 205.656 457.383C204.558 458.481 203.941 459.97 203.941 461.522ZM233.034 461.522V476.861C233.034 478.413 233.651 479.902 234.749 481C235.846 482.098 237.335 482.714 238.888 482.714C240.44 482.714 241.929 482.098 243.027 481C244.125 479.902 244.741 478.413 244.741 476.861V461.522C244.741 459.97 244.125 458.481 243.027 457.383C241.929 456.285 240.44 455.668 238.888 455.668C237.335 455.668 235.846 456.285 234.749 457.383C233.651 458.481 233.034 459.97 233.034 461.522Z" fill="#524F75"/>
<path d="M174.585 390.585C174.585 392.655 175.408 394.641 176.871 396.104C178.335 397.568 180.32 398.39 182.39 398.39C184.46 398.39 186.446 397.568 187.909 396.104C189.373 394.641 190.195 392.655 190.195 390.585C190.195 388.515 189.373 386.53 187.909 385.066C186.446 383.603 184.46 382.781 182.39 382.781C180.32 382.781 178.335 383.603 176.871 385.066C175.408 386.53 174.585 388.515 174.585 390.585Z" fill="#524F75"/>
<path d="M112.425 22.3377C140.394 14.6889 165.78 11.325 188.582 12.2479C205.639 12.9386 223.274 14.9016 241.483 18.1328C292.642 27.2138 332.568 67.4791 341.212 118.712L353.871 193.719C365.155 260.589 320.156 323.965 253.304 335.356C230.677 339.212 211.112 341.341 194.615 341.744C173.961 342.25 147.038 339.538 113.846 333.61C49.2001 322.063 5.04594 261.743 13.5767 196.63L22.9679 124.941C29.403 75.844 64.6635 35.4011 112.425 22.3377Z" fill="#FFE281"/>
<path d="M112.425 22.3376C64.6635 35.401 29.403 75.8439 22.9698 124.94L13.5786 196.63C5.04787 261.742 49.202 322.062 113.848 333.61C147.038 339.538 173.961 342.25 194.617 341.744C211.114 341.34 230.679 339.21 253.305 335.356C320.158 323.965 365.157 260.589 353.873 193.719L341.214 118.712C332.568 67.479 292.642 27.2136 241.485 18.1327C223.276 14.9015 205.641 12.9385 188.583 12.2478C165.78 11.3249 140.396 14.6888 112.425 22.3376ZM109.339 11.0439C138.406 3.09462 164.974 -0.425377 189.056 0.550233C206.652 1.26243 224.812 3.28195 243.53 6.60487C299.561 16.5502 343.288 60.6497 352.757 116.763L365.415 191.77C377.774 265.009 328.49 334.421 255.27 346.894C232.125 350.837 212.016 353.028 194.902 353.446C173.348 353.975 145.69 351.188 111.789 345.132C40.9854 332.486 -7.37359 266.419 1.96885 195.106L11.3601 123.417C18.4059 69.6488 57.0264 25.3522 109.339 11.0439Z" fill="#524F75"/>
<path d="M177.594 72.5366H203.274C250.539 72.5366 290.689 107.175 297.692 153.994L303.413 192.258C320.265 280.935 280.447 307.861 212.018 316.055C208.207 316.509 204.4 316.991 200.566 317.155L175.247 318.242C117.036 320.736 65.9492 292.176 65.3346 217.19C65.2878 211.586 65.3014 205.982 65.9493 200.416L70.9209 157.76C76.3336 111.327 114.474 75.6195 161.095 73.3425L177.594 72.5366Z" fill="#F3B438"/>
<path d="M161.379 79.1902C117.619 81.3287 81.8164 114.847 76.7354 158.439L71.7617 201.095C71.2446 205.538 71.1256 209.772 71.1861 217.143C71.7188 282.254 112.486 315.073 174.995 312.392L200.314 311.307C203.077 311.186 205.336 310.96 210.488 310.341L211.323 310.242C247.387 305.924 271.137 296.739 285.28 280.494C301.001 262.439 305.487 234.529 297.662 193.35L291.902 154.858C285.329 110.907 247.637 78.3902 203.274 78.3902H177.738L161.379 79.1902ZM294.109 288.181C277.66 307.079 251.385 317.237 212.712 321.867L211.885 321.967C206.437 322.622 203.976 322.87 200.813 323.005L175.494 324.092C106.763 327.038 60.07 289.448 59.4788 217.241C59.4144 209.413 59.5451 204.796 60.1325 199.74L65.1061 157.085C70.8505 107.809 111.327 69.9161 160.808 67.4985L177.309 66.6907L203.274 66.6829C253.438 66.6829 296.049 103.446 303.479 153.128L309.184 191.28C317.588 235.602 312.519 267.034 294.109 288.181Z" fill="#524F75"/>
<path d="M170.224 202.96C174.037 198.016 178.585 195.518 183.869 195.464C189.153 195.409 193.705 197.908 197.52 202.96C201.762 214.051 204.33 221.737 205.221 226.016C206.113 230.299 206.96 238.976 207.756 252.049H161.696C160.671 242.466 160.671 234.73 161.696 228.837C162.72 222.944 165.561 214.318 170.224 202.96Z" fill="#FFD074"/>
<path d="M166.884 246.591C176.71 245.026 183.132 244.244 186.149 244.244C189.269 244.244 196.777 245.081 208.673 246.757C210.225 246.976 211.706 247.546 213.003 248.425C214.301 249.304 215.38 250.467 216.159 251.827C216.938 253.187 217.395 254.706 217.497 256.27C217.599 257.834 217.342 259.4 216.746 260.849C215.224 264.55 212.727 267.769 209.52 270.163C206.313 272.556 202.516 274.034 198.535 274.439C191.827 275.124 187.696 275.463 186.149 275.463C184.334 275.463 178.908 274.995 169.868 274.057C167.045 273.763 164.384 272.598 162.254 270.724C160.124 268.849 158.631 266.358 157.981 263.596L157.331 260.833C156.962 259.267 156.92 257.641 157.208 256.057C157.496 254.474 158.107 252.967 159.004 251.63C159.9 250.294 161.063 249.156 162.419 248.289C163.775 247.422 165.295 246.844 166.884 246.591Z" fill="#9B764F"/>
<path d="M167.387 252.455C165.876 252.81 164.568 253.751 163.751 255.071C162.934 256.391 162.675 257.982 163.03 259.493L163.68 262.257C164.051 263.835 164.905 265.258 166.122 266.329C167.339 267.4 168.86 268.065 170.472 268.232C179.245 269.143 184.632 269.608 186.15 269.608C187.415 269.608 191.473 269.272 197.943 268.613C200.871 268.315 203.664 267.228 206.022 265.468C208.381 263.708 210.218 261.34 211.337 258.618C211.593 257.994 211.702 257.32 211.658 256.646C211.614 255.973 211.416 255.319 211.08 254.734C210.744 254.148 210.279 253.648 209.72 253.27C209.162 252.892 208.524 252.646 207.856 252.552C196.263 250.921 188.884 250.097 186.148 250.097C183.553 250.097 177.315 250.858 167.807 252.373C167.666 252.394 167.526 252.421 167.387 252.455ZM186.148 238.39C189.651 238.39 197.288 239.243 209.489 240.96C211.924 241.303 214.248 242.198 216.284 243.577C218.32 244.956 220.014 246.781 221.237 248.915C222.46 251.048 223.179 253.433 223.339 255.887C223.499 258.341 223.097 260.799 222.162 263.073C220.237 267.754 217.078 271.825 213.021 274.852C208.965 277.879 204.163 279.748 199.128 280.261C192.178 280.97 187.98 281.317 186.148 281.317C184.037 281.317 178.572 280.845 169.262 279.879C165.231 279.46 161.43 277.797 158.387 275.12C155.344 272.442 153.211 268.884 152.283 264.938L151.633 262.174C151.081 259.824 151.019 257.385 151.451 255.01C151.883 252.635 152.8 250.374 154.146 248.369C155.491 246.365 157.235 244.659 159.269 243.359C161.303 242.058 163.583 241.191 165.967 240.812C176.107 239.196 182.712 238.39 186.148 238.39Z" fill="#524F75"/>
<path d="M100.958 119.415L79.3758 107.573C68.2968 101.493 59.5866 90.6732 65.9319 79.4224C66.8627 77.7717 76.929 65.2507 78.2227 63.8615C87.8227 53.5668 99.6783 60.5678 109.721 69.9337C110.691 70.8371 111.585 71.8205 112.394 72.8722L125.138 88.2771" fill="#F3B438"/>
<path d="M113.705 65.6411C107.339 59.7035 101.436 55.7015 95.4889 53.9084C87.5259 51.5084 79.9903 53.364 73.9357 59.8557C72.0196 61.9103 61.9162 74.601 60.8274 76.5328C53.1377 90.1698 61.1299 104.224 76.5562 112.689L98.1367 124.531C98.8112 124.909 99.554 125.151 100.322 125.241C101.091 125.33 101.869 125.267 102.613 125.054C103.356 124.841 104.05 124.483 104.655 124.001C105.259 123.518 105.762 122.92 106.134 122.242C106.506 121.564 106.74 120.819 106.823 120.05C106.905 119.281 106.834 118.503 106.614 117.761C106.394 117.02 106.029 116.329 105.541 115.73C105.052 115.13 104.45 114.633 103.768 114.267L82.1874 102.425C71.7367 96.6908 67.3015 88.8879 71.0245 82.283C71.2079 81.9572 73.6508 78.7728 76.5133 75.1747C79.2274 71.7659 82.0118 68.3591 82.4957 67.8401C87.8752 62.0723 95.0264 64.2284 105.721 74.201C106.457 74.8879 107.136 75.6333 107.75 76.4313L107.877 76.5913L120.621 91.9962C121.111 92.5886 121.713 93.0787 122.392 93.4385C123.071 93.7983 123.815 94.0207 124.581 94.0931C125.346 94.1655 126.118 94.0864 126.853 93.8604C127.588 93.6343 128.271 93.2657 128.863 92.7757C129.456 92.2856 129.946 91.6837 130.306 91.0042C130.666 90.3248 130.888 89.5811 130.96 88.8157C131.033 88.0502 130.954 87.278 130.728 86.5432C130.502 85.8083 130.133 85.1252 129.643 84.5328L116.96 69.202C115.972 67.9299 114.884 66.739 113.705 65.6411Z" fill="#524F75"/>
<path d="M105.602 82.5717L108.287 85.6565C109.858 87.4609 110.772 89.745 110.877 92.1354C110.983 94.5259 110.275 96.8815 108.868 98.8175C107.492 100.712 105.482 102.05 103.202 102.588C100.923 103.125 98.5266 102.827 96.4488 101.746L92.6128 99.7541C91.2308 99.0361 90.0235 98.0231 89.0763 96.787C88.129 95.5509 87.465 94.1217 87.131 92.6006C86.7971 91.0795 86.8015 89.5035 87.1438 87.9843C87.4862 86.4651 88.1582 85.0396 89.1122 83.8087L89.721 83.0263C90.6517 81.8256 91.8368 80.8461 93.1912 80.158C94.5456 79.47 96.0356 79.0907 97.5541 79.0472C99.0726 79.0037 100.582 79.2972 101.973 79.9066C103.365 80.516 104.604 81.4262 105.602 82.5717Z" fill="#E1A126"/>
<path d="M254.066 115.512L275.649 103.67C286.728 97.5922 293.26 87.1024 286.917 75.8517C285.984 74.201 277.446 62.8234 275.701 61.2742C264 51.2624 255.346 56.6693 245.305 66.0351C244.334 66.9385 243.442 67.922 242.63 68.9737L229.889 84.3785" fill="#F3B438"/>
<path d="M241.323 61.7522C247.957 55.5669 252.859 52.1698 258.418 50.722C265.569 48.8605 272.574 50.884 279.518 56.8235C281.692 58.7513 290.626 70.4917 292.027 72.9737C299.752 86.6752 293.233 100.702 278.476 108.8L256.894 120.642C256.219 121.026 255.474 121.272 254.703 121.366C253.933 121.46 253.151 121.399 252.403 121.188C251.656 120.976 250.959 120.618 250.351 120.135C249.743 119.651 249.238 119.051 248.865 118.37C248.491 117.689 248.257 116.941 248.176 116.169C248.094 115.396 248.167 114.616 248.391 113.872C248.614 113.128 248.983 112.436 249.477 111.836C249.97 111.237 250.578 110.741 251.264 110.379L272.845 98.5366C282.472 93.2547 285.883 85.9122 281.83 78.7239C281.569 78.2615 279.302 75.1337 276.968 72.0664C274.478 68.7922 272.199 65.9786 271.826 65.6488C264.437 59.3288 259.791 60.5386 249.307 70.3122C248.571 70.9986 247.893 71.7446 247.28 72.5425L247.155 72.7005L234.412 88.1054C233.925 88.7079 233.324 89.2078 232.643 89.5762C231.961 89.9446 231.214 90.1742 230.443 90.2516C229.673 90.329 228.894 90.2528 228.154 90.0273C227.413 89.8018 226.724 89.4314 226.127 88.9378C225.53 88.4442 225.037 87.8371 224.677 87.1516C224.317 86.4661 224.096 85.716 224.027 84.9445C223.959 84.1731 224.044 83.3958 224.278 82.6575C224.512 81.9193 224.891 81.2349 225.391 80.6439L238.072 65.3132C239.059 64.0415 240.146 62.8507 241.323 61.7522Z" fill="#524F75"/>
<path d="M249.895 78.5853L246.882 81.8829C245.279 83.6392 244.332 85.8948 244.2 88.2688C244.067 90.6428 244.758 92.9897 246.156 94.9131C247.533 96.8076 249.543 98.1452 251.822 98.6827C254.101 99.2202 256.498 98.9218 258.576 97.8419L262.412 95.8497C263.814 95.1214 265.042 94.0995 266.013 92.8534C266.984 91.6073 267.675 90.1665 268.039 88.6292C268.403 87.0919 268.431 85.4942 268.121 83.9451C267.811 82.396 267.171 80.9319 266.244 79.6526L266.135 79.5024C264.503 77.2492 262.042 75.7365 259.295 75.297C256.548 74.8576 253.738 75.5273 251.485 77.159C250.907 77.5785 250.375 78.0565 249.895 78.5853Z" fill="#E1A126"/>
<path d="M194.104 165.914C194.103 169.977 194.903 174.001 196.457 177.755C198.012 181.51 200.291 184.921 203.163 187.794C206.036 190.668 209.447 192.947 213.201 194.502C216.955 196.057 220.979 196.858 225.042 196.858C229.105 196.858 233.129 196.057 236.883 194.502C240.637 192.947 244.048 190.668 246.921 187.794C249.794 184.921 252.072 181.51 253.627 177.755C255.181 174.001 255.981 169.977 255.981 165.914C255.981 161.851 255.181 157.827 253.627 154.073C252.072 150.319 249.794 146.908 246.921 144.034C244.048 141.161 240.637 138.881 236.883 137.326C233.129 135.771 229.105 134.971 225.042 134.971C220.979 134.971 216.955 135.771 213.201 137.326C209.447 138.881 206.036 141.161 203.163 144.034C200.291 146.908 198.012 150.319 196.457 154.073C194.903 157.827 194.103 161.851 194.104 165.914Z" fill="white"/>
<path d="M225.042 202.705C204.718 202.705 188.244 186.234 188.244 165.912C188.244 145.594 204.718 129.122 225.042 129.122C245.362 129.122 261.838 145.594 261.838 165.912C261.84 186.234 245.362 202.705 225.042 202.705ZM225.042 190.997C238.9 190.997 250.131 179.766 250.131 165.912C250.133 152.061 238.9 140.829 225.042 140.829C211.185 140.829 199.951 152.061 199.951 165.912C199.951 179.768 211.185 190.997 225.042 190.997Z" fill="#524F75"/>
<path id="popup-eye" d="M205.356 175.727C206.682 177.263 208.446 178.357 210.412 178.861C212.377 179.366 214.45 179.258 216.352 178.55C218.254 177.843 219.895 176.571 221.053 174.905C222.211 173.239 222.833 171.259 222.833 169.229C222.86 166.591 221.838 164.05 219.991 162.166C218.145 160.281 215.625 159.207 212.987 159.18C210.349 159.154 207.808 160.176 205.924 162.022C204.039 163.869 202.965 166.388 202.938 169.026L210.314 170.098L205.356 175.727Z" fill="#232323"/>
<path d="M110.203 165.341C110.203 174.429 113.813 183.145 120.24 189.571C126.666 195.998 135.382 199.608 144.47 199.608C153.559 199.608 162.275 195.998 168.701 189.571C175.127 183.145 178.738 174.429 178.738 165.341C178.738 156.252 175.127 147.536 168.701 141.11C162.275 134.684 153.559 131.073 144.47 131.073C135.382 131.073 126.666 134.684 120.24 141.11C113.813 147.536 110.203 156.252 110.203 165.341Z" fill="white"/>
<path d="M144.47 205.463C122.308 205.463 104.341 187.499 104.341 165.34C104.341 143.182 122.308 125.219 144.47 125.219C166.632 125.219 184.597 143.182 184.597 165.34C184.597 187.499 166.632 205.463 144.47 205.463ZM144.47 193.756C160.166 193.756 172.89 181.034 172.89 165.342C172.89 149.649 160.166 136.927 144.47 136.927C128.773 136.927 116.049 149.649 116.049 165.34C116.049 181.032 128.773 193.756 144.47 193.756Z" fill="#524F75"/>
<path id="popup-eye" d="M147.099 177.824C148.751 179.738 151.021 181.014 153.516 181.428C156.01 181.843 158.571 181.372 160.754 180.095C162.937 178.819 164.604 176.819 165.466 174.442C166.329 172.064 166.331 169.46 165.474 167.082C164.616 164.703 162.953 162.699 160.772 161.419C158.592 160.138 156.032 159.661 153.537 160.071C151.041 160.481 148.768 161.752 147.112 163.663C145.456 165.574 144.521 168.004 144.47 170.533L152.494 171.699L147.099 177.824Z" fill="#232323"/>
<path d="M112.025 209.415C66.79 194.535 39.3559 186.698 28.7763 185.733C28.0029 185.647 27.2202 185.716 26.4739 185.937C25.7276 186.157 25.0328 186.524 24.43 187.016C23.8272 187.508 23.3286 188.116 22.9633 188.803C22.5981 189.49 22.3734 190.243 22.3026 191.018C22.2318 191.793 22.3162 192.574 22.5509 193.316C22.7855 194.058 23.1658 194.746 23.6694 195.339C24.1729 195.932 24.7897 196.419 25.4837 196.771C26.1777 197.123 26.9348 197.333 27.711 197.389C37.0066 198.24 64.2085 206.01 108.365 220.535C109.095 220.775 109.865 220.869 110.632 220.812C111.398 220.754 112.146 220.547 112.832 220.2C113.518 219.854 114.13 219.376 114.631 218.793C115.133 218.211 115.515 217.535 115.755 216.805C115.995 216.075 116.089 215.304 116.032 214.538C115.975 213.771 115.767 213.023 115.421 212.337C115.074 211.651 114.596 211.04 114.014 210.538C113.431 210.037 112.755 209.655 112.025 209.415ZM254.706 209.415C299.943 194.535 327.373 186.696 337.955 185.731C339.484 185.62 340.995 186.114 342.164 187.107C343.333 188.099 344.066 189.51 344.205 191.036C344.345 192.563 343.88 194.084 342.91 195.271C341.941 196.459 340.544 197.218 339.02 197.387C329.725 198.238 302.523 206.008 258.365 220.533C257.635 220.773 256.864 220.867 256.098 220.809C255.332 220.752 254.584 220.544 253.898 220.198C252.512 219.498 251.462 218.277 250.976 216.803C250.491 215.329 250.612 213.722 251.311 212.336C252.011 210.951 253.232 209.9 254.706 209.415ZM340.054 234.591C340.546 234.542 340.893 234.503 341.147 234.468C341.286 234.449 341.286 234.449 341.496 234.412C341.736 234.384 341.736 234.384 342.921 233.963C343.541 233.688 343.541 233.688 344.864 232.521C345.725 231.442 345.725 231.442 346.292 229.323C346.197 226.845 346.197 226.845 345.153 225.12C343.254 223.374 343.254 223.374 342.384 223.106C341.779 222.927 341.779 222.927 341.457 222.868C340.731 222.78 340.732 222.78 340.515 222.78C340.074 222.773 339.34 222.81 337.844 222.901C335.288 223.057 330.638 223.374 323.873 223.852C310.374 224.806 288.451 226.406 258.095 228.65C257.329 228.706 256.581 228.914 255.894 229.259C255.208 229.605 254.596 230.083 254.094 230.665C253.592 231.247 253.209 231.923 252.969 232.653C252.728 233.383 252.633 234.153 252.69 234.92C252.746 235.687 252.954 236.435 253.299 237.121C253.645 237.808 254.123 238.419 254.705 238.921C255.287 239.423 255.963 239.806 256.693 240.047C257.423 240.288 258.193 240.383 258.96 240.326C280.87 238.696 302.783 237.098 324.698 235.53C331.424 235.054 336.047 234.739 338.556 234.587C339.171 234.628 339.608 234.636 340.054 234.591ZM340.316 234.488C340.17 234.49 340.17 234.49 339.483 234.408C339.167 234.351 339.167 234.351 338.568 234.174C337.703 233.906 337.703 233.906 335.803 232.164C334.761 230.439 334.761 230.439 334.665 227.963C335.233 225.844 335.233 225.844 336.093 224.767C337.412 223.6 337.412 223.6 338.029 223.329C339.186 222.917 339.186 222.917 339.368 222.901L339.528 222.874C339.469 222.884 339.235 222.909 338.888 222.944C337.343 223.099 335.922 223.861 334.939 225.063C333.955 226.264 333.489 227.807 333.643 229.352C333.775 230.672 334.352 231.907 335.278 232.856C336.204 233.805 337.425 234.412 338.741 234.577C339.676 234.521 340.331 234.488 340.316 234.488ZM180.439 277.415V310.585C180.439 312.138 181.056 313.627 182.153 314.724C183.251 315.822 184.74 316.439 186.292 316.439C187.845 316.439 189.334 315.822 190.432 314.724C191.529 313.627 192.146 312.138 192.146 310.585V277.415C192.146 275.862 191.529 274.373 190.432 273.275C189.334 272.178 187.845 271.561 186.292 271.561C184.74 271.561 183.251 272.178 182.153 273.275C181.056 274.373 180.439 275.862 180.439 277.415ZM38.0017 238.56C80.6671 238.538 106.689 238.482 116.105 238.39C117.658 238.375 119.14 237.743 120.227 236.634C121.314 235.526 121.916 234.03 121.9 232.478C121.885 230.925 121.253 229.443 120.144 228.356C119.036 227.269 117.541 226.667 115.988 226.683C106.624 226.777 80.6144 226.833 37.9939 226.853C37.2252 226.853 36.4641 227.005 35.7541 227.3C35.0441 227.594 34.3991 228.026 33.8559 228.57C33.3127 229.114 32.8819 229.759 32.5882 230.47C32.2945 231.18 32.1436 231.941 32.1442 232.71C32.1447 233.479 32.2966 234.24 32.5912 234.95C32.8859 235.66 33.3175 236.305 33.8614 236.848C34.4053 237.391 35.0509 237.822 35.7613 238.116C36.4717 238.41 37.233 238.56 38.0017 238.56Z" fill="#524F75"/>
</svg>
