<svg width="351" height="461" viewBox="0 0 351 461" fill="none" xmlns="http://www.w3.org/2000/svg">
<path d="M88.7649 402.062L108.187 385.223C108.41 385.031 108.587 384.792 108.705 384.522C108.822 384.252 108.877 383.959 108.866 383.665C108.855 383.371 108.777 383.084 108.64 382.824C108.502 382.564 108.307 382.338 108.07 382.164L97.9474 374.644C97.5774 374.37 97.1254 374.23 96.6656 374.247C96.2058 374.265 95.7654 374.437 95.4166 374.738C75.5474 390.195 65.3971 398.033 64.964 398.259L54.1523 403.877C53.0468 404.451 52.0815 405.262 51.3249 406.252C50.6533 407.129 50.1632 408.131 49.8835 409.2C49.6038 410.269 49.54 411.383 49.6959 412.477C49.8518 413.571 50.2242 414.623 50.7914 415.571C51.3585 416.519 52.1091 417.345 52.9991 418L100.884 453.852C101.485 454.299 102.287 454.378 102.964 454.055L112.972 449.29C113.579 449.003 113.92 448.197 114 446.88C110.544 436.732 101.762 425.512 96.283 420.199C94.8781 418.837 92.4625 416.802 89.0362 414.088C88.2325 413.452 87.5619 412.663 87.0628 411.768C86.5637 410.873 86.2459 409.888 86.1274 408.87C86.0089 407.852 86.0921 406.821 86.3722 405.835C86.6524 404.849 87.1239 403.928 87.76 403.124C88.0605 402.736 88.3981 402.38 88.7649 402.062Z" fill="#FFC62E"/>
<path d="M63.5611 392.007C65.4852 390.535 67.4059 389.058 69.3231 387.576C74.3767 383.674 81.8499 377.873 91.7387 370.183C93.0974 369.067 94.79 368.438 96.5475 368.395C98.305 368.352 100.026 368.897 101.438 369.945L111.561 377.463C112.502 378.16 113.274 379.06 113.82 380.095C114.367 381.131 114.674 382.276 114.718 383.446C114.762 384.616 114.543 385.781 114.077 386.855C113.611 387.929 112.909 388.884 112.024 389.65L92.6011 406.487C92.3839 406.675 92.2109 406.909 92.0944 407.172C91.978 407.434 91.921 407.72 91.9276 408.007C91.9341 408.294 92.0039 408.576 92.1322 408.834C92.2604 409.091 92.4439 409.316 92.6694 409.494C96.2382 412.316 98.7767 414.46 100.357 415.992C107.903 423.303 116.197 435.166 119.542 444.987L119.912 446.078L119.842 447.231C119.647 450.45 118.502 453.133 115.487 454.571L105.479 459.336C104.183 459.952 102.744 460.203 101.316 460.062C99.8885 459.921 98.5261 459.394 97.3757 458.536L49.5085 422.692C47.9957 421.575 46.7204 420.168 45.7572 418.553C44.7939 416.938 44.1619 415.147 43.898 413.286C43.6341 411.424 43.7436 409.528 44.2201 407.709C44.6966 405.89 45.5305 404.184 46.6733 402.69C47.953 401.018 49.5851 399.649 51.4538 398.679L61.926 393.237C62.4236 392.868 62.9172 392.495 63.5611 392.007ZM99.2489 379.161L99.0889 379.289C99.1436 379.246 99.1982 379.205 99.2489 379.161ZM92.2089 424.394C90.9777 423.202 88.687 421.266 85.4031 418.667C83.8282 417.42 82.5477 415.841 81.6528 414.043C80.7579 412.245 80.2707 410.271 80.2258 408.263C80.1808 406.255 80.5794 404.262 81.393 402.425C82.2066 400.589 83.4153 398.955 84.9328 397.639L100.695 383.972L96.7962 381.079C75.1358 397.925 68.605 402.962 67.6626 403.451L56.8509 409.069C56.5084 409.247 56.2093 409.498 55.9748 409.804C55.1319 410.903 55.3523 412.448 56.5075 413.307L102.533 447.769L107.183 445.553C103.895 438.247 97.6977 429.713 92.2089 424.394Z" fill="#524F75"/>
<path d="M272.624 407.944L253.645 379.036C253.38 378.63 252.974 378.336 252.505 378.212C252.036 378.088 251.538 378.141 251.106 378.363L239.941 384.102C238.843 384.822 238.595 386.055 239.194 386.972L271.422 446.668C271.832 447.821 272.484 448.873 273.337 449.752C274.106 450.546 275.025 451.18 276.042 451.616C277.058 452.051 278.15 452.281 279.256 452.292C280.361 452.302 281.458 452.093 282.482 451.676C283.506 451.259 284.437 450.643 285.221 449.864L328.057 407.419C328.878 406.474 328.79 405.22 327.969 404.5C322.273 399.747 319.229 397.407 318.837 397.479C307.984 399.458 299.489 402.826 293.35 407.587C292.275 408.435 291.231 409.322 290.218 410.244V410.242C288.963 411.365 287.481 412.205 285.871 412.703C284.262 413.2 282.565 413.345 280.894 413.127C279.224 412.909 277.621 412.333 276.193 411.438C274.766 410.544 273.549 409.352 272.624 407.944Z" fill="#FFC62E"/>
<path d="M236.736 379.208L236.995 379.038L248.431 373.157C250.148 372.275 252.13 372.059 253.996 372.551C255.862 373.043 257.48 374.207 258.539 375.821L277.518 404.73C277.981 405.434 278.589 406.03 279.303 406.477C280.017 406.924 280.819 407.212 281.654 407.321C282.489 407.43 283.338 407.357 284.143 407.108C284.947 406.859 285.689 406.439 286.316 405.877C287.432 404.862 288.583 403.887 289.768 402.954C296.728 397.557 306.084 393.85 317.791 391.715C318.769 391.525 319.779 391.592 320.722 391.91C321.099 392.031 321.426 392.174 321.746 392.334C322.113 392.523 322.468 392.734 322.857 392.989C323.425 393.362 324.119 393.873 324.984 394.537C326.58 395.764 328.82 397.581 331.83 400.096C335.144 403.001 335.352 407.947 332.478 411.257L332.182 411.575L289.347 454.02C288.013 455.343 286.43 456.389 284.689 457.097C282.949 457.804 281.085 458.16 279.206 458.142C277.327 458.125 275.47 457.735 273.743 456.995C272.016 456.255 270.453 455.18 269.144 453.832C267.82 452.475 266.781 450.866 266.088 449.101L234.129 389.902C231.92 386.226 233.124 381.575 236.736 379.208ZM296.939 412.213C296.252 412.745 295.307 413.547 294.127 414.607C286.902 421.073 275.797 420.461 269.329 413.235C268.746 412.586 268.213 411.893 267.735 411.163L250.673 385.177L246.141 387.506L276.796 444.291L276.947 444.72C277.075 445.081 277.28 445.409 277.544 445.678C277.774 445.918 278.049 446.109 278.354 446.24C278.659 446.372 278.987 446.442 279.32 446.445C279.652 446.448 279.981 446.385 280.289 446.259C280.596 446.134 280.876 445.948 281.11 445.713L320.917 406.267C319.909 405.44 318.888 404.626 317.856 403.828C317.791 403.78 317.729 403.729 317.663 403.682C308.753 405.526 301.858 408.402 296.939 412.213Z" fill="#524F75"/>
<path d="M133.04 222.958C72.3377 217.947 51.1611 205.857 47.0948 189.547C43.0284 173.237 74.8099 155.521 132.911 138.53" fill="#3D96C8"/>
<path d="M134.898 215.146C80.8859 213.524 57.1668 204.884 52.7434 190.42C49.4478 179.637 77.0556 161.499 132.109 142.217C132.835 141.963 133.503 141.568 134.076 141.056C134.649 140.543 135.116 139.923 135.449 139.23C135.782 138.537 135.976 137.786 136.019 137.018C136.062 136.25 135.953 135.482 135.699 134.756C135.444 134.031 135.05 133.363 134.537 132.789C134.025 132.216 133.404 131.75 132.712 131.417C132.019 131.083 131.267 130.89 130.5 130.847C129.732 130.804 128.964 130.913 128.238 131.167C66.1268 152.921 35.239 173.214 41.5454 193.842C47.9941 214.937 75.8595 225.087 134.544 226.847C135.317 226.878 136.088 226.755 136.813 226.486C137.538 226.217 138.203 225.807 138.769 225.279C139.334 224.752 139.79 224.117 140.109 223.413C140.428 222.708 140.604 221.948 140.627 221.175C140.651 220.402 140.521 219.632 140.245 218.909C139.969 218.187 139.552 217.526 139.02 216.966C138.487 216.405 137.848 215.955 137.141 215.643C136.433 215.331 135.671 215.162 134.898 215.146Z" fill="#524F75"/>
<path d="M62.0643 376.419C84.4701 390.185 132.464 399.225 173.171 399.606C190.277 399.764 221.194 396.055 265.932 388.478C292.486 381.028 311.731 371.161 314.831 332.935C319.336 277.354 320.072 241.13 317.028 224.265C314.568 210.609 310.232 186.712 304.017 152.576C295.091 103.53 252.585 67.9023 202.993 67.9023H179.809C130.546 67.9023 88.2243 103.073 78.9482 151.717L56.4975 277.838C54.6087 288.449 44.476 295.518 33.8672 293.631C31.4554 293.2 29.146 292.32 27.0594 291.036L22.0916 287.982C17.7521 285.744 9.96672 288.831 6.98721 293.465C4.0077 298.099 10.3648 321.53 15.4243 330.326C20.4857 339.11 39.6565 362.656 62.0643 376.419Z" fill="#3D96C8"/>
<path d="M58.9991 381.409C39.401 369.368 18.279 347.017 10.3493 333.237C3.73075 321.733 -2.31414 297.099 2.06245 290.291C6.63025 283.184 17.6059 279.079 24.7727 282.771L30.1268 286.047C32.0227 287.214 34.175 287.9 36.3965 288.045C38.618 288.19 40.8413 287.79 42.8729 286.88C44.9044 285.969 46.6826 284.576 48.0527 282.821C49.4227 281.066 50.3431 279.003 50.7337 276.812L73.1981 150.621C82.999 99.2215 127.733 62.0488 179.809 62.0488H202.993C255.417 62.0488 300.345 99.7054 309.776 151.528C315.99 185.668 320.326 209.567 322.788 223.229C325.949 240.771 325.21 277.303 320.661 333.409C319.079 352.939 313.372 366.732 303.229 376.468C294.792 384.566 284.248 389.419 267.508 394.113C221.846 401.879 190.667 405.62 173.112 405.456C129.682 405.056 81.6566 395.327 58.9991 381.409ZM12.1698 299.438C12.3883 301.992 12.9854 305.3 13.8771 308.935C15.6527 316.172 18.3454 323.653 20.4995 327.399C27.481 339.53 47.2449 360.445 65.1298 371.43C85.6351 384.029 131.727 393.362 173.225 393.748C189.844 393.901 220.406 390.242 264.648 382.753C279.51 378.564 288.443 374.427 295.124 368.018C303.03 360.425 307.627 349.313 308.995 332.453C313.458 277.395 314.181 241.483 311.266 225.296C308.804 211.643 304.47 187.75 298.256 153.616C289.838 107.356 249.75 73.7561 202.993 73.7561H179.809C133.362 73.7561 93.4498 106.925 84.7122 152.743L62.2615 278.862C59.8068 292.654 46.6342 301.846 32.8429 299.391C29.7067 298.834 26.7039 297.689 23.9922 296.018L19.2995 293.13C17.9161 292.615 13.8244 294.142 12.1444 296.297C12.0508 297.243 12.0664 298.23 12.1698 299.438Z" fill="#524F75"/>
<path d="M298.585 155.49C302.822 178.545 307.039 201.603 311.237 224.665C314.195 240.936 313.481 275.888 309.098 329.52C306.084 366.403 287.371 375.925 261.545 383.114C218.043 390.425 187.972 394.005 171.336 393.851C160.177 393.748 147.732 392.675 135.258 391.008C137.141 388.751 139.346 386.783 141.801 385.166C161.213 372.378 173.272 335.541 175.171 323.988C179.03 300.505 179.426 271.982 179.169 189.082C179.032 144.897 210.761 107.049 254.292 99.4727C258.208 98.7899 262.177 98.4575 266.152 98.4795C283.105 113.264 294.54 133.363 298.585 155.49Z" fill="white"/>
<path d="M276.927 151.916C276.927 156.564 277.659 161.166 279.082 165.461C280.505 169.755 282.59 173.657 285.219 176.944C287.848 180.231 290.969 182.838 294.404 184.616C297.839 186.395 301.521 187.311 305.239 187.311C308.957 187.311 312.639 186.395 316.074 184.616C319.509 182.838 322.63 180.231 325.259 176.944C327.888 173.657 329.973 169.755 331.396 165.461C332.819 161.166 333.551 156.564 333.551 151.916C333.551 147.267 332.819 142.665 331.396 138.37C329.973 134.076 327.888 130.174 325.259 126.887C322.63 123.601 319.509 120.994 316.074 119.215C312.639 117.436 308.957 116.521 305.239 116.521C301.521 116.521 297.839 117.436 294.404 119.215C290.969 120.994 287.848 123.601 285.219 126.887C282.59 130.174 280.505 134.076 279.082 138.37C277.659 142.665 276.927 147.267 276.927 151.916Z" fill="white"/>
<path d="M306.423 184.113C322.95 184.113 335.883 168.634 335.883 150.01C335.883 131.385 322.948 115.906 306.423 115.906C289.897 115.906 276.964 131.385 276.964 150.01C276.964 168.634 289.9 184.113 306.423 184.113ZM306.423 172.406C296.872 172.406 288.671 162.587 288.671 150.01C288.671 137.432 296.876 127.614 306.423 127.614C315.971 127.614 324.176 137.432 324.176 150.01C324.176 162.587 315.971 172.406 306.423 172.406Z" fill="#524F75"/>
<path id="popup-eye" d="M319.186 155.37C317.85 157.11 315.885 158.211 313.688 158.211C309.674 158.211 306.423 154.538 306.423 150.01C306.423 145.481 309.674 141.809 313.688 141.809C317.651 141.809 320.872 145.391 320.952 149.844L315.567 150.728L319.186 155.372V155.37Z" fill="#232323"/>
<path d="M283.06 238.741C293.093 237.957 301.772 237.666 317.27 226.257C323.733 221.498 335.438 211.935 340.898 205.377C346.068 199.169 344.416 191.666 340.898 186.693C333.663 176.466 322.841 175.885 310.582 172.056C305.873 170.587 295.007 167.459 281.101 164.815C284.66 175.436 286.23 188.236 285.803 203.215C285.432 216.292 284.519 228.134 283.06 238.741Z" fill="#FFC62E"/>
<path d="M291.588 197.631C292.911 186.244 293.011 175.912 291.869 166.63C299.18 168.948 305.725 171.342 310.948 173.49C312.388 174.082 313.867 174.651 315.582 175.28C316.246 175.524 316.919 175.766 317.785 176.078L319.896 176.835C330.012 180.476 333.904 182.868 337.042 188.249C339.446 192.366 339.34 196.743 336.314 199.789C331.557 204.583 320.749 212.363 312.064 217.656C302.015 223.781 295.479 225.855 287.178 226.226C288.919 217.467 290.386 207.937 291.588 197.631ZM279.889 237.963L281.167 237.976C282.911 237.994 283.836 238 284.903 237.99C296.462 237.894 305.323 235.475 318.158 227.65C327.586 221.906 339.046 213.654 344.624 208.035C351.773 200.829 352.021 190.685 347.151 182.345C342.238 173.933 336.361 170.318 323.857 165.818L321.734 165.057C320.892 164.755 320.244 164.521 319.615 164.288C318.199 163.774 316.792 163.23 315.397 162.659C307.705 159.498 297.42 155.875 286.019 152.657C281.715 151.442 277.692 155.311 278.741 159.662C281.188 169.828 281.61 182.037 279.957 196.279C278.47 209.077 276.562 220.587 274.232 230.809C274.038 231.662 274.037 232.548 274.23 233.401C274.424 234.255 274.805 235.054 275.348 235.74C275.891 236.426 276.58 236.982 277.366 237.367C278.152 237.751 279.014 237.955 279.889 237.963Z" fill="#524F75"/>
<path d="M216.439 155.819C216.439 165.206 219.422 174.209 224.731 180.847C230.041 187.485 237.242 191.214 244.751 191.214C252.26 191.214 259.461 187.485 264.771 180.847C270.081 174.209 273.063 165.206 273.063 155.819C273.063 146.432 270.081 137.429 264.771 130.791C259.461 124.153 252.26 120.424 244.751 120.424C237.242 120.424 230.041 124.153 224.731 130.791C219.422 137.429 216.439 146.432 216.439 155.819Z" fill="white"/>
<path d="M245.868 197.691C266.765 197.691 283.497 179.459 283.497 157.209C283.497 134.958 266.767 116.726 245.868 116.726C224.966 116.726 208.236 134.958 208.236 157.209C208.236 179.459 224.966 197.691 245.868 197.691ZM245.868 185.984C231.67 185.984 219.944 173.208 219.944 157.209C219.944 141.209 231.668 128.433 245.868 128.433C260.067 128.433 271.789 141.209 271.789 157.209C271.789 173.208 260.063 185.984 245.868 185.984Z" fill="#524F75"/>
<path id="popup-eye" d="M262.507 166.178C260.673 168.496 257.969 169.965 254.946 169.965C249.43 169.965 244.956 165.069 244.956 159.03C244.956 152.991 249.43 148.096 254.946 148.096C260.396 148.096 264.823 152.872 264.931 158.81L257.526 159.988L262.507 166.178Z" fill="#232323"/>
<path d="M35.2623 299.958C45.3677 302.065 53.6038 302.771 60.0818 302.016C66.355 301.28 71.2057 299.22 75.5355 295.991C76.9384 294.943 80.1052 292.184 80.4135 291.961C81.0363 291.511 81.5642 290.942 81.9671 290.288C82.3699 289.633 82.6399 288.906 82.7615 288.147C82.8831 287.388 82.8539 286.613 82.6757 285.865C82.4975 285.117 82.1737 284.412 81.7228 283.79C81.2724 283.167 80.7036 282.639 80.0489 282.236C79.3942 281.832 78.6665 281.562 77.9074 281.441C77.1482 281.319 76.3726 281.348 75.6248 281.527C74.8769 281.705 74.1716 282.029 73.5491 282.48C72.6906 283.101 69.4379 285.936 68.5345 286.607C65.7852 288.658 62.8487 289.905 58.7179 290.389C53.6857 290.978 46.6262 290.369 37.6487 288.498C36.8903 288.326 36.1051 288.306 35.339 288.44C34.573 288.575 33.8414 288.86 33.1869 289.281C32.5325 289.701 31.9684 290.247 31.5276 290.888C31.0868 291.529 30.7781 292.251 30.6195 293.012C30.461 293.774 30.4557 294.559 30.6041 295.323C30.7525 296.086 31.0516 296.813 31.4838 297.459C31.9161 298.106 32.4728 298.66 33.1216 299.089C33.7704 299.518 34.4981 299.813 35.2623 299.958Z" fill="#524F75"/>
<path d="M235.06 93.9116C272.774 81.6589 297.088 43.1079 290.698 23.4217C284.302 3.73701 245.688 37.9242 207.979 50.1796C170.269 62.4313 118.743 70.7977 125.141 90.4819C131.538 110.166 197.348 106.164 235.06 93.9116Z" fill="#FFD04F"/>
<path d="M235.31 100.727C215.381 106.067 188.7 108.774 166.357 107.676C139.73 106.367 121.986 100.246 118.548 87.4103C115.583 76.3432 123.068 68.4512 137.75 62.4588C147.501 58.4785 157.18 55.9718 181.568 50.5076L185.194 49.6936C195.116 47.4611 201.402 45.9667 207.518 44.3279C212.319 43.0416 217.393 41.3305 222.89 39.1829C229.122 36.7475 235.221 34.0507 244.104 29.899C265.806 19.7549 268.707 18.4826 275.859 16.5784C287.485 13.4815 295.978 15.9588 298.691 26.0737C305.52 51.5628 273.772 90.421 235.31 100.727ZM232.278 89.419C249.011 84.9354 264.434 74.5226 275.252 61.2792C284.979 49.3724 289.457 36.8543 287.381 29.108C286.746 26.737 285.059 26.2457 278.871 27.8937C272.735 29.5276 269.748 30.8393 249.057 40.5082C239.965 44.7585 233.672 47.5414 227.15 50.091C221.273 52.387 215.798 54.2317 210.546 55.6411C204.239 57.3309 197.826 58.8554 187.76 61.1181L184.125 61.9347C160.478 67.2345 151.063 69.6705 142.171 73.2993C132.306 77.3265 128.92 80.8983 129.854 84.3831C133.394 97.5951 191.168 100.434 232.278 89.419Z" fill="#524F75"/>
<path d="M181.459 91.9015C207.167 78.9993 228.012 55.1466 223.927 41.7696C219.843 28.3902 191.766 7.0246 136.181 24.3891C80.5887 41.7575 78.3331 94.0207 84.7269 113.706C91.1244 133.39 155.746 104.803 181.459 91.9015Z" fill="#FD6B4D"/>
<path d="M126.925 18.1689C142.994 28.6701 159.099 38.8063 167.516 47.4654C174.634 54.7898 183.89 68.068 195.284 87.3041C197.362 90.8157 147.237 116.258 146.151 113.783C138.218 95.6965 133.065 81.1007 130.697 69.9927C128.002 57.3662 126.528 35.0377 126.925 18.1689ZM129.43 18.1685C153.438 12.0787 172.775 9.80625 188.518 10.816C204.259 11.824 216.867 25.3151 233.32 39.8083L228.671 64.6542C214.688 47.8731 202.748 35.3363 192.852 27.0452C185.939 21.2537 173.519 17.0831 155.594 14.5311C147.862 13.4315 139.21 18.6647 129.43 18.1685ZM118.478 21.6564C103.457 50.9763 98.1226 63.8008 100.352 76.5175C102.582 89.2323 106.774 105.821 112.927 126.282L76.8709 121.101C76.7014 117.242 74.0964 113.845 74.1065 110.249C74.1623 89.6498 77.1706 73.3298 83.1268 61.2942C90.1258 47.1571 101.201 39.404 118.478 21.6564Z" fill="#FF8B74"/>
<path d="M179.935 93.5215C206.286 81.9843 228.352 59.257 224.971 45.6812C221.594 32.1062 194.674 9.29748 138.249 23.7317C81.8281 38.1648 76.8404 90.243 82.1947 110.233C87.5538 130.226 153.583 105.059 179.935 93.5215ZM126.092 125.046C114.04 128.128 103.838 129.684 95.5896 129.382C83.2333 128.923 73.7997 124.136 70.8873 113.267C66.9548 98.5904 68.5091 77.9673 76.3441 60.1802C86.5762 36.9472 106.292 19.8249 135.352 12.3917C163.289 5.24337 187.162 5.97345 205.795 13.3091C221.89 19.6481 233.374 30.9577 236.335 42.8523C241.515 63.6929 216.031 90.5018 184.63 104.249C166.047 112.381 144.221 120.411 126.092 125.046Z" fill="#524F75"/>
<path d="M138.362 12.7323C137.959 11.2252 137.262 9.81254 136.31 8.57503C135.359 7.33751 134.173 6.29938 132.819 5.51993C131.465 4.74048 129.969 4.23499 128.419 4.03229C126.868 3.8296 125.292 3.93369 123.781 4.33863C122.27 4.74356 120.853 5.44141 119.611 6.3923C118.369 7.3432 117.327 8.52853 116.544 9.88058C115.762 11.2326 115.253 12.7249 115.048 14.2722C114.843 15.8196 114.946 17.3916 115.35 18.8985C115.753 20.4057 116.45 21.8183 117.402 23.0558C118.353 24.2933 119.539 25.3315 120.893 26.1109C122.247 26.8904 123.742 27.3959 125.293 27.5986C126.844 27.8012 128.42 27.6971 129.931 27.2922C131.442 26.8873 132.859 26.1894 134.101 25.2385C135.343 24.2876 136.385 23.1023 137.168 21.7503C137.95 20.3982 138.459 18.9059 138.664 17.3586C138.869 15.8113 138.766 14.2393 138.362 12.7323Z" fill="#FFD04F"/>
<path d="M130.942 31.0584C122.508 33.3183 113.84 28.3283 111.584 19.9073C109.328 11.4863 114.341 2.83037 122.773 0.570944C131.206 -1.68848 139.875 3.30105 142.132 11.722C144.39 20.1425 139.375 28.799 130.942 31.0584ZM128.924 23.5189C129.939 23.2493 130.89 22.7825 131.724 22.1452C132.558 21.5079 133.258 20.7126 133.785 19.8047C134.311 18.8967 134.654 17.894 134.793 16.8537C134.932 15.8134 134.864 14.7559 134.595 13.7416C134.321 12.7283 133.851 11.7789 133.21 10.9475C132.57 10.1161 131.772 9.41894 130.862 8.89594C129.952 8.37294 128.948 8.0343 127.907 7.89933C126.866 7.76437 125.809 7.83574 124.795 8.10937C123.781 8.37887 122.829 8.84565 121.995 9.48304C121.16 10.1204 120.46 10.916 119.933 11.8242C119.407 12.7324 119.064 13.7354 118.925 14.7761C118.786 15.8167 118.854 16.8746 119.124 17.8891C119.397 18.9023 119.868 19.8516 120.509 20.6829C121.15 21.5142 121.948 22.2111 122.858 22.7339C123.768 23.2566 124.772 23.595 125.813 23.7297C126.854 23.8645 127.911 23.7928 128.924 23.5189Z" fill="#524F75"/>
<path d="M107.678 275.637C46.9754 270.627 25.7988 258.537 21.7325 242.229C17.6661 225.92 49.4476 208.203 107.549 191.212" fill="#3D96C8"/>
<path d="M108.63 269.155C54.7081 265.647 31.3032 256.188 27.389 241.573C24.47 230.683 52.6964 213.518 108.39 196.168C109.134 195.948 109.827 195.582 110.428 195.092C111.029 194.602 111.527 193.997 111.893 193.313C112.258 192.629 112.484 191.879 112.557 191.106C112.63 190.334 112.549 189.555 112.318 188.814C112.088 188.073 111.712 187.386 111.213 186.792C110.715 186.198 110.103 185.708 109.413 185.353C108.724 184.997 107.971 184.782 107.198 184.72C106.424 184.658 105.646 184.75 104.909 184.991C42.0739 204.568 10.4973 223.768 16.0798 244.605C21.789 265.912 49.2837 277.027 107.869 280.833C109.418 280.934 110.943 280.416 112.109 279.392C113.276 278.369 113.988 276.923 114.089 275.375C114.189 273.826 113.671 272.301 112.647 271.135C111.624 269.968 110.179 269.256 108.63 269.155Z" fill="#524F75"/>
<path d="M119.857 276.683C119.857 278.753 120.68 280.738 122.143 282.202C123.607 283.665 125.592 284.488 127.662 284.488C129.732 284.488 131.717 283.665 133.181 282.202C134.645 280.738 135.467 278.753 135.467 276.683C135.467 274.613 134.645 272.628 133.181 271.164C131.717 269.7 129.732 268.878 127.662 268.878C125.592 268.878 123.607 269.7 122.143 271.164C120.68 272.628 119.857 274.613 119.857 276.683Z" fill="#524F75"/>
</svg>
