<svg viewBox="0 0 417 474" fill="none" xmlns="http://www.w3.org/2000/svg">
<g id="cow">
<g id="cow-ear-left">
<path id="Vector" d="M355.471 141.306C363.315 146.246 367.608 149.953 373.071 152.681C378.539 155.411 387.547 156.303 398.256 156.037L405.815 155.868C407.106 155.508 409.672 154.802 410.148 152.829C410.539 151.224 409.608 149.05 408.712 147.454C408.113 146.389 406.937 144.775 405.18 142.611C394.983 130.664 390.4 126.123 386.523 122.748C382.059 118.868 375.218 114.853 366.006 110.712" fill="#E1975C"/>
<path id="Vector_2" d="M400.636 146.303C391.82 135.975 387.061 130.978 382.677 127.167C378.716 123.721 372.335 119.979 363.602 116.051C362.901 115.736 362.269 115.285 361.742 114.725C361.215 114.166 360.803 113.508 360.53 112.789C360.258 112.07 360.129 111.305 360.152 110.536C360.176 109.768 360.35 109.012 360.665 108.31C360.981 107.609 361.431 106.977 361.991 106.45C362.55 105.923 363.209 105.512 363.927 105.239C364.646 104.966 365.411 104.838 366.18 104.861C366.948 104.884 367.705 105.058 368.406 105.374C378.095 109.731 385.393 114.016 390.361 118.334C395.251 122.588 400.38 127.973 409.627 138.814C411.676 141.327 413.014 143.165 413.814 144.589C415.674 147.903 416.626 150.941 415.836 154.205C414.987 157.725 412.552 159.668 409.37 160.876C408.716 161.122 408.049 161.333 407.373 161.509C406.908 161.637 406.428 161.708 405.945 161.719L398.386 161.889C386.043 162.193 376.694 161.03 370.456 157.918C369.393 157.385 368.348 156.815 367.325 156.209C364.892 154.769 355.317 148.127 352.349 146.258C351.051 145.423 350.136 144.11 349.801 142.604C349.466 141.098 349.74 139.521 350.562 138.215C351.384 136.91 352.688 135.981 354.191 135.632C355.694 135.283 357.274 135.542 358.587 136.351C361.908 138.441 371.299 144.956 373.284 146.131C374.107 146.617 374.895 147.048 375.684 147.442C379.77 149.481 387.52 150.445 398.109 150.184L403.453 150.065C402.985 149.311 402.027 148.016 400.636 146.303Z" fill="#524F75"/>
<path id="Vector_3" d="M380.624 129.503C379.176 128.537 376.17 126.911 371.6 124.631C370.022 123.842 368.208 123.668 366.509 124.144C364.811 124.619 363.35 125.709 362.411 127.202C360.493 130.254 361.05 135.788 363.239 138.18C366.289 141.514 370.324 143.967 371.6 144.716C372.607 145.31 376.273 146.149 382.605 147.233C385.444 147.854 388.917 146.74 390.123 144.718C390.729 143.703 390.993 142.52 390.876 141.343C390.759 140.166 390.267 139.058 389.473 138.182C385.231 133.499 382.281 130.609 380.624 129.503Z" fill="#FFE8A9"/>
</g>
<path id="Vector_4" d="M390.702 7.58465C384.435 26.4295 377.237 40.3534 369.108 49.3622C360.199 59.2315 348.376 66.0159 333.641 69.7212C336.101 78.8061 339.139 86.1408 342.759 91.7271C346.376 97.3134 352.751 102.839 361.883 108.303C374.966 100.554 385.752 87.4481 394.245 68.9837C402.132 51.8383 402.187 31.3759 394.409 7.59442C394.282 7.2037 394.035 6.86313 393.703 6.62129C393.37 6.37944 392.97 6.24865 392.559 6.24757C392.148 6.24648 391.748 6.37517 391.414 6.61527C391.081 6.85536 390.831 7.19461 390.702 7.58465Z" fill="#EAE6DB"/>
<path id="Vector_5" d="M389.969 66.4765C382.888 82.6014 374.05 94.3322 363.502 101.796C356.646 97.5224 351.851 93.2883 349.104 89.2005C346.517 85.3566 344.179 80.4551 342.111 74.498C355.194 70.0434 365.945 63.0405 374.265 53.497C381.057 45.7019 387.046 34.8434 392.298 20.9078C396.501 38.3166 395.682 53.4639 389.969 66.4765ZM365.438 45.8053C357.494 54.9195 346.806 61.3058 333.219 64.9741C332.469 65.177 331.766 65.5274 331.152 66.0048C330.538 66.4822 330.025 67.0771 329.644 67.7549C329.262 68.4326 329.02 69.1795 328.93 69.952C328.841 70.7244 328.906 71.5071 329.122 72.2541C331.898 81.8366 335.299 89.6609 339.389 95.737C343.672 102.11 350.802 108.073 360.737 113.786C361.651 114.311 362.69 114.581 363.744 114.565C364.798 114.549 365.828 114.249 366.726 113.696C380.77 105.04 392.068 90.8141 400.687 71.1868C408.917 52.4395 408.591 30.4805 399.947 5.53607C399.409 3.98463 398.396 2.64235 397.051 1.7002C395.706 0.758048 394.098 0.264037 392.457 0.288462C390.815 0.312886 389.222 0.854504 387.906 1.83624C386.59 2.81797 385.617 4.18981 385.126 5.75656C379.412 23.9966 372.8 37.3585 365.438 45.8053Z" fill="#524F75"/>
<g id="cow-foot-4">
<path id="Vector_6" d="M370.708 335.08L361.625 425.282C360.995 431.538 358.064 437.337 353.4 441.554C348.737 445.771 342.673 448.106 336.386 448.106H318.025C304.015 448.106 292.659 436.75 292.659 422.74V339.995" fill="#E1975C"/>
<path id="Vector_7" d="M364.886 334.492L355.801 424.695C355.317 429.507 353.062 433.968 349.475 437.212C345.889 440.456 341.224 442.253 336.388 442.252H318.025C307.249 442.252 298.513 433.517 298.513 422.74V339.995C298.513 338.442 297.896 336.953 296.799 335.856C295.701 334.758 294.212 334.141 292.659 334.141C291.107 334.141 289.618 334.758 288.52 335.856C287.422 336.953 286.806 338.442 286.806 339.995V422.74C286.806 439.983 300.784 453.96 318.025 453.96H336.386C352.417 453.96 365.842 441.817 367.45 425.87L376.531 335.667C376.648 334.143 376.164 332.634 375.183 331.462C374.202 330.29 372.802 329.548 371.282 329.395C369.761 329.241 368.241 329.689 367.046 330.641C365.851 331.594 365.075 332.976 364.886 334.492Z" fill="#524F75"/>
<path id="Vector_8" d="M294.318 438.656C306.32 443.21 316.388 445.487 324.517 445.487C332.648 445.487 344.441 442.433 359.894 436.322L354.447 467.762H300.788L294.318 438.656Z" fill="#EAE6DB"/>
<path id="Vector_9" d="M305.483 461.909H349.52L352.386 445.359C340.891 449.335 331.647 451.341 324.515 451.341C318.054 451.341 310.659 450.075 302.292 447.561L305.483 461.909ZM296.394 433.183C307.787 437.507 317.19 439.634 324.515 439.634C331.746 439.634 342.915 436.742 357.74 430.88C361.99 429.2 366.439 432.82 365.66 437.321L360.216 468.761C359.98 470.121 359.272 471.353 358.217 472.241C357.161 473.129 355.826 473.616 354.447 473.616H300.788C299.456 473.616 298.165 473.162 297.126 472.328C296.087 471.495 295.364 470.333 295.075 469.033L288.603 439.926C287.59 435.38 292.039 431.532 296.394 433.183Z" fill="#524F75"/>
</g>
<g id="cow-tail">
<path id="Vector_10" d="M86.0503 312.639C73.0122 319.28 65.8591 319.682 56.5654 319.212C47.3635 318.746 39.02 317.926 38.0991 306.941C37.6932 302.084 38.7117 295.398 40.1517 289.595C42.38 280.611 43.7888 272.892 50.7469 259.446C51.7244 257.556 55.6249 250.119 56.5654 248.299C58.782 244.012 60.4249 240.689 61.8376 237.563C65.6113 229.218 63.0044 219.969 59.2737 213.983L50.7469 216.094C51.6854 219.485 52.7801 223.69 49.8454 232.683C48.8425 235.755 42.8015 245.702 37.6327 252.707C28.6649 264.861 23.0747 276.133 20.4327 286.785C18.5595 294.338 17.8318 301.505 18.4113 308.402C20.0796 328.307 31.9196 339.288 49.8454 340.196C62.8191 340.851 79.1664 345.316 95.5859 346.787L86.0503 312.639Z" fill="#E1975C"/>
<path id="Vector_11" d="M83.3929 307.423L89.7636 304.176L103.504 353.372L95.065 352.617C88.7099 352.047 82.8758 351.163 73.2094 349.448C58.7041 346.874 55.1333 346.32 49.5509 346.039C28.2846 344.964 14.4543 331.296 12.5772 308.89C11.9529 301.44 12.6963 293.657 14.7509 285.374C17.629 273.774 23.6407 261.809 32.9226 249.23C37.6894 242.769 43.5216 233.196 44.2807 230.867C46.3236 224.605 46.3002 221.959 45.106 217.655L43.4982 211.854L61.9938 207.276L64.2416 210.884C69.6914 219.632 71.4163 230.582 67.1704 239.973C65.7499 243.112 64.0992 246.472 61.7636 250.99L58.8329 256.605C57.028 260.059 56.3431 261.366 55.9451 262.137C51.3148 271.085 49.2738 276.908 47.0026 286.201L46.6748 287.553L46.2631 289.257L45.8358 291.005C44.3665 296.931 43.6231 302.736 43.9353 306.451C44.3821 311.786 46.5499 312.843 56.8641 313.366C67.1646 313.887 72.8133 312.812 83.3929 307.423ZM55.4104 234.498C54.148 238.369 47.8182 248.759 42.3431 256.18C33.9216 267.594 28.5929 278.195 26.1148 288.191C24.3548 295.288 23.7324 301.801 24.2455 307.909C25.6387 324.529 34.786 333.567 50.1441 334.346C56.4309 334.664 60.148 335.237 75.2563 337.918C80.2358 338.802 84.1441 339.456 87.6036 339.951L82.2748 320.872C73.2543 324.681 66.2943 325.563 56.2729 325.058C49.1841 324.699 45.4709 324.141 41.6621 322.281C36.1109 319.569 32.868 314.566 32.2709 307.431C31.8338 302.211 32.7236 295.243 34.4738 288.186C34.6982 287.286 34.6982 287.282 35.2992 284.802L35.6328 283.423C38.1109 273.292 40.4485 266.619 45.5509 256.759C45.9626 255.965 46.6436 254.662 48.4621 251.183C49.4348 249.328 50.4039 247.472 51.3694 245.614C53.6153 241.267 55.1841 238.08 56.507 235.153C57.8514 232.178 58.1265 228.734 57.5119 225.29C57.2485 227.975 56.5753 230.923 55.4104 234.498ZM57.2426 218.27C57.0211 217.009 56.7358 215.761 56.388 214.529L50.747 216.092L52.1538 221.774L60.6807 219.663L54.306 217.075C55.0436 218.262 55.6777 219.503 56.1928 220.773C56.7938 222.25 57.2368 223.768 57.508 225.286C57.7398 222.946 57.6505 220.585 57.2426 218.27Z" fill="#524F75"/>
<path id="Vector_12" d="M5.89844 188.158C17.7521 189.762 24.3414 189.733 25.6662 188.071C25.9882 187.667 22.0077 183.663 17.7267 174.16C16.6419 171.752 15.3482 167.167 13.8477 160.402C20.0682 162.576 24.3355 164.34 26.6516 165.696C33.5511 169.735 37.4126 174.096 38.8311 174.067C40.9657 174.022 42.9716 169.421 44.8487 160.264C52.0116 167.378 57.0887 173.15 60.0799 177.579C61.516 179.706 63.0945 183.019 64.8175 187.516C68.7102 197.684 63.6311 209.085 53.4672 212.991C48.2539 214.996 42.5771 215.472 37.1027 214.364C31.6284 213.256 26.5835 210.61 22.5599 206.736L20.3004 204.562C20.3023 204.56 15.5004 199.093 5.89844 188.158Z" fill="#FFE8A9"/>
<path id="Vector_13" d="M20.7667 196.088L24.2223 200.313L19.6915 204.02L23.8964 199.948L26.0779 202.2C29.1893 205.411 33.1521 207.67 37.5015 208.709C41.8508 209.749 46.4064 209.527 50.634 208.069C54.1113 206.87 56.9706 204.34 58.584 201.035C60.1974 197.729 60.4329 193.918 59.2389 190.44C57.8067 186.27 56.5052 183.273 55.4242 181.546C53.8398 179.013 51.4886 175.909 48.3764 172.256C46.1969 177.595 43.5354 180.102 39.1979 180.043C37.1823 180.016 35.9315 179.353 34.2515 178.09C33.5764 177.583 33.3637 177.403 31.5374 175.848C28.7081 173.437 26.7745 171.938 24.2613 170.346C23.8525 170.091 23.4347 169.851 23.0086 169.626C23.2154 170.317 23.4125 170.886 23.5959 171.333C23.9881 172.291 24.3901 173.218 24.7998 174.112C26.1403 177.039 27.4398 179.38 28.9052 181.702C29.1452 182.081 30.0681 183.507 30.2633 183.825C30.554 184.297 30.7628 184.672 30.9579 185.121C31.1803 185.63 31.3481 186.149 31.4418 186.799C31.6642 188.354 31.3696 190.022 30.0759 191.532C28.0291 193.926 24.8603 194.855 19.6389 194.715C19.9803 195.126 20.353 195.583 20.7667 196.088ZM15.9315 182.652C15.3177 181.441 14.7263 180.219 14.1579 178.986C13.6699 177.921 13.2041 176.845 12.7608 175.761C11.5647 172.836 10.3608 167.915 9.02812 160.726C8.19105 156.217 12.632 152.541 16.9071 154.205C23.3793 156.722 27.8535 158.758 30.5286 160.453C33.274 162.192 35.4086 163.805 38.1189 166.077C38.7432 164.319 39.4067 162.026 40.0818 159.228C41.1745 154.705 46.8545 153.204 50.0389 156.596C57.1901 164.209 62.2769 170.418 65.352 175.335C66.993 177.961 68.6164 181.696 70.312 186.637C74.8974 199.989 67.7989 214.531 54.4525 219.134C48.1201 221.318 41.2965 221.65 34.7817 220.093C28.2669 218.536 22.3311 215.154 17.6701 210.344L15.4886 208.092C15.3748 207.975 15.2661 207.852 15.1627 207.725L1.34227 190.83C-2.08603 186.641 1.52373 180.441 6.86031 181.355C10.3998 181.96 13.432 182.393 15.9315 182.652Z" fill="#524F75"/>
</g>
<path id="Vector_14" d="M376.86 272.092V153.94C376.86 96.9271 331.641 50.1895 274.659 48.3047C273.57 48.2679 272.481 48.2497 271.391 48.25C216.757 48.25 172.468 92.5388 172.468 147.175V195.661C161.688 201.32 150.977 207.111 140.337 213.031C94.8095 238.299 69.7461 289.169 77.4535 340.666C84.6925 389.04 126.244 424.835 175.159 424.835H252.698C315.992 424.835 369.276 377.481 376.712 314.629L377.66 306.613C379.027 295.126 378.758 283.503 376.86 272.092Z" fill="#E1975C"/>
<path id="Vector_15" d="M383.783 304.375C383.691 305.351 383.586 306.326 383.471 307.3L382.525 315.316C374.739 381.116 318.96 430.689 252.698 430.689H175.159C123.346 430.689 79.3343 392.773 71.6641 341.532C63.5958 287.622 89.8338 234.367 137.496 207.915C147.145 202.547 156.852 197.283 166.614 192.125V147.175C166.614 89.3077 213.524 42.3965 271.391 42.3965C272.546 42.3965 273.701 42.416 274.854 42.4531C334.991 44.4433 382.714 93.7682 382.714 153.94V271.612C384.471 282.442 384.83 293.453 383.783 304.375ZM371.007 153.94C371.007 100.084 328.292 55.934 274.466 54.1545C273.441 54.121 272.416 54.1041 271.391 54.1038C219.992 54.1038 178.322 95.7721 178.322 147.175V199.206L175.182 200.849C164.444 206.486 153.775 212.253 143.178 218.151C99.785 242.235 75.8982 290.718 83.2426 339.801C90.0543 385.308 129.143 418.982 175.159 418.982H252.698C313.026 418.982 363.81 373.848 370.899 313.94L371.846 305.924C373.148 294.987 372.893 283.92 371.086 273.054L371.007 153.94Z" fill="#524F75"/>
<path id="Vector_16" d="M348.788 299.989C351.048 299.845 353.311 300.213 355.41 301.065C357.508 301.917 359.387 303.231 360.907 304.909C362.427 306.588 363.549 308.587 364.19 310.759C364.83 312.931 364.973 315.219 364.607 317.454L359.721 347.327C358.061 357.474 353.054 366.774 345.499 373.748C337.943 380.722 328.273 384.968 318.025 385.811L327.286 319.915C328.028 314.626 330.573 309.755 334.491 306.125C338.408 302.495 343.458 300.327 348.788 299.989Z" fill="#FFE6A2"/>
<g id="cow-hair">
<path id="Vector_17" d="M224.367 67.5948C236.89 48.7714 228.115 35.2182 230.72 35.2182C233.325 35.2182 255.662 41.3411 257.881 51.3645C273.978 43.864 293.861 32.6406 297.024 32.6406C300.183 32.6406 289.011 51.3645 285.813 55.0797C306.203 52.145 319.251 37.9636 324.199 37.9636C329.147 37.9636 329.992 48.5431 329.678 67.5967L326.845 77.5187" fill="#E1975C"/>
<path id="Vector_18" d="M242.043 44.8705C247.969 47.5359 251.709 50.57 252.166 52.6305C252.355 53.4861 252.734 54.2883 253.275 54.9778C253.816 55.6674 254.505 56.2267 255.29 56.6145C256.076 57.0024 256.939 57.2088 257.815 57.2187C258.692 57.2286 259.559 57.0416 260.353 56.6715C263.476 55.2089 266.58 53.7057 269.664 52.1622C270.71 51.6413 271.791 51.1008 272.931 50.5252C273.746 50.1135 281.36 46.2305 286.355 43.7076C284.349 47.0813 282.318 50.1642 281.374 51.2608C277.844 55.3622 281.29 61.6432 286.644 60.8744C295.381 59.6159 303.272 56.5408 311.413 51.8579C313.284 50.7749 315.129 49.6474 316.946 48.4764C317.461 48.1486 320.54 46.1544 321.305 45.6705C321.869 45.3154 322.357 45.0169 322.784 44.7652C322.903 45.2705 323.021 45.8637 323.128 46.5427C323.774 50.6598 323.981 56.9681 323.832 66.732L321.214 75.9125C320.788 77.4054 320.972 79.0065 321.727 80.3633C322.481 81.7202 323.744 82.7217 325.237 83.1476C326.73 83.5735 328.331 83.3889 329.688 82.6343C331.045 81.8798 332.046 80.6172 332.472 79.1242L335.303 69.2003C335.442 68.7086 335.516 68.2013 335.526 67.692C335.705 56.8432 335.489 49.813 334.691 44.7242C333.473 36.9837 330.562 32.1076 324.195 32.1076C321.385 32.1076 319.186 33.1671 315.061 35.7661C314.222 36.293 311.099 38.3164 310.636 38.611C308.973 39.6834 307.284 40.7158 305.571 41.7076C303.449 42.9368 301.269 44.0621 299.038 45.0793C300.621 42.1583 301.832 39.612 302.556 37.6061C303.093 36.1154 303.405 34.8471 303.426 33.5554C303.489 30.1291 301.284 26.7847 297.019 26.7847C294.541 26.7847 291.67 27.9983 284.882 31.3427C281.744 32.89 268.667 39.5573 267.653 40.0705C265.254 41.2788 262.848 42.4737 260.435 43.6549C257.473 39.9359 252.775 36.8627 246.841 34.1915C240.901 31.5203 233.534 29.3622 230.712 29.3622C229.427 29.355 228.17 29.7426 227.112 30.4726C226.054 31.2026 225.246 32.2399 224.796 33.4442C224.34 34.65 224.281 35.6764 224.381 36.8842C224.427 37.45 224.505 37.9944 224.648 38.8256C224.581 38.4315 224.896 40.2481 224.974 40.7281C226.258 48.7066 225.239 55.7057 219.487 64.3515C218.637 65.644 218.332 67.2206 218.641 68.7366C218.95 70.2527 219.846 71.5848 221.134 72.442C222.422 73.2991 223.997 73.6115 225.515 73.3108C227.032 73.0101 228.369 72.1208 229.233 70.8374C235.846 60.8978 237.785 52.0686 237.026 42.8861C238.722 43.4715 240.425 44.1427 242.043 44.8705Z" fill="#524F75"/>
</g>
<g id="cow-foot-2">
<path id="Vector_23" d="M241.928 335.079C241.928 337.149 242.75 339.134 244.214 340.598C245.677 342.062 247.663 342.884 249.733 342.884C251.803 342.884 253.788 342.062 255.252 340.598C256.715 339.134 257.538 337.149 257.538 335.079C257.538 333.009 256.715 331.024 255.252 329.56C253.788 328.097 251.803 327.274 249.733 327.274C247.663 327.274 245.677 328.097 244.214 329.56C242.75 331.024 241.928 333.009 241.928 335.079Z" fill="#524F75"/>
<path id="Vector_24" d="M249.653 373.864C250.16 385.083 248.86 403.36 245.754 428.697C244.119 442.028 232.378 451.772 218.976 450.925L200.802 449.776C187.508 448.935 177.132 437.957 177.038 424.636L176.373 395.743" fill="#E1975C"/>
<path id="Vector_25" d="M243.807 374.127C244.294 384.941 243.015 402.949 239.945 427.985C239.34 432.924 236.871 437.446 233.041 440.625C229.212 443.803 224.313 445.398 219.346 445.083L201.173 443.934C196.244 443.622 191.617 441.454 188.224 437.865C184.832 434.277 182.926 429.536 182.892 424.597L182.224 395.608C182.17 394.069 181.512 392.613 180.392 391.556C179.272 390.499 177.781 389.926 176.241 389.961C174.702 389.996 173.238 390.636 172.167 391.743C171.097 392.85 170.505 394.334 170.521 395.874L171.184 424.771C171.297 441.07 184.07 454.58 200.431 455.616L218.605 456.765C235.102 457.809 249.553 445.815 251.565 429.407C254.708 403.772 256.027 385.226 255.5 373.598C255.478 372.822 255.302 372.057 254.982 371.349C254.661 370.641 254.203 370.004 253.634 369.475C253.064 368.946 252.396 368.535 251.666 368.268C250.936 368 250.161 367.88 249.385 367.915C248.608 367.95 247.847 368.14 247.144 368.472C246.442 368.805 245.813 369.274 245.293 369.852C244.774 370.43 244.375 371.106 244.12 371.84C243.865 372.574 243.758 373.352 243.807 374.127Z" fill="#524F75"/>
<path id="Vector_26" d="M179.623 439.973C192.027 443.575 202.275 445.374 210.363 445.374C218.45 445.374 229.336 442.81 243.02 437.681L237.053 467.763H183.674L179.623 439.973Z" fill="#EAE6DB"/>
<path id="Vector_27" d="M188.735 461.909H232.246L235.294 446.549C225.43 449.659 217.145 451.226 210.365 451.226C203.69 451.226 195.813 450.117 186.698 447.918L188.735 461.909ZM181.255 434.352C193.173 437.809 202.903 439.518 210.363 439.518C217.623 439.518 227.881 437.103 240.968 432.197C245.262 430.586 249.656 434.318 248.765 438.818L242.792 468.902C242.53 470.231 241.814 471.427 240.767 472.287C239.721 473.147 238.408 473.616 237.054 473.616H183.674C182.268 473.616 180.908 473.11 179.845 472.19C178.781 471.271 178.084 469.999 177.881 468.607L173.832 440.816C173.217 436.603 177.165 433.165 181.255 434.352Z" fill="#524F75"/>
</g>
<g id="cow-foot-3">
<path id="Vector_19" d="M322.406 348.167L318.521 424.256C317.832 437.745 306.694 448.328 293.19 448.328H275.151C261.141 448.328 249.785 436.974 249.785 422.965V354.204" fill="#E1975C"/>
<path id="Vector_20" d="M316.56 347.868L312.675 423.959C312.42 428.955 310.256 433.662 306.63 437.108C303.003 440.553 298.192 442.474 293.19 442.474H275.151C264.377 442.474 255.639 433.739 255.639 422.964V354.203C255.639 352.651 255.022 351.162 253.924 350.064C252.827 348.966 251.338 348.35 249.785 348.35C248.233 348.35 246.744 348.966 245.646 350.064C244.548 351.162 243.932 352.651 243.932 354.203V422.964C243.932 440.205 257.908 454.182 275.151 454.182H293.19C309.815 454.182 323.522 441.155 324.369 424.552L328.254 348.463C328.293 347.695 328.18 346.927 327.923 346.203C327.665 345.479 327.267 344.813 326.752 344.242C326.237 343.672 325.615 343.209 324.92 342.879C324.226 342.549 323.474 342.359 322.706 342.32C321.938 342.281 321.17 342.393 320.446 342.65C319.721 342.907 319.054 343.305 318.483 343.82C317.913 344.335 317.449 344.958 317.119 345.652C316.789 346.347 316.599 347.1 316.56 347.868Z" fill="#524F75"/>
<path id="Vector_21" d="M249.459 438.881C261.613 443.435 271.806 445.71 280.04 445.71C288.273 445.71 300.214 442.656 315.863 436.547L310.349 467.981H256.013L249.459 438.881Z" fill="#EAE6DB"/>
<path id="Vector_22" d="M260.697 462.127H305.434L308.342 445.548C296.658 449.546 287.27 451.563 280.041 451.563C273.483 451.563 265.967 450.287 257.46 447.756L260.697 462.127ZM251.512 433.399C263.063 437.727 272.605 439.858 280.041 439.858C287.385 439.858 298.706 436.964 313.737 431.097C317.988 429.437 322.42 433.066 321.631 437.561L316.117 468.994C315.879 470.35 315.17 471.579 314.116 472.464C313.061 473.349 311.728 473.835 310.351 473.835H256.014C254.685 473.834 253.396 473.382 252.358 472.552C251.321 471.722 250.596 470.563 250.304 469.267L243.75 440.166C242.728 435.628 247.157 431.768 251.512 433.399Z" fill="#524F75"/>
</g>
<g id="cow-foot-1">
<path id="Vector_28" d="M175.522 371.604L177.553 425.987C177.996 437.83 168.751 447.793 156.903 448.234C156.637 448.244 156.37 448.25 156.103 448.25H136.901C119.668 448.25 103.165 433.28 98.8566 416.486L79.9766 350.689" fill="#E1975C"/>
<path id="Vector_29" d="M169.672 371.821L171.703 426.203C171.781 428.301 171.436 430.392 170.687 432.353C169.939 434.314 168.803 436.104 167.346 437.616C165.89 439.127 164.144 440.33 162.213 441.151C160.281 441.973 158.204 442.396 156.105 442.396H136.903C122.952 442.396 108.337 429.875 104.528 415.03L85.6073 349.075C85.4032 348.328 85.0527 347.628 84.5761 347.017C84.0994 346.405 83.5062 345.895 82.8307 345.515C82.1552 345.135 81.411 344.893 80.6412 344.802C79.8714 344.712 79.0914 344.776 78.3463 344.99C77.6013 345.203 76.9061 345.563 76.3011 346.047C75.6961 346.532 75.1934 347.131 74.822 347.812C74.4507 348.492 74.2181 349.239 74.1379 350.01C74.0577 350.781 74.1313 351.56 74.3546 352.303L93.2327 418.1C98.2687 437.75 117.354 454.104 136.899 454.104H156.101C156.44 454.104 156.78 454.098 157.119 454.084C172.197 453.522 183.96 440.843 183.398 425.766L181.369 371.384C181.287 369.85 180.605 368.41 179.47 367.375C178.336 366.34 176.84 365.792 175.305 365.849C173.771 365.906 172.32 366.565 171.266 367.682C170.212 368.799 169.64 370.285 169.672 371.821Z" fill="#524F75"/>
<path id="Vector_30" d="M167.781 352.64C167.781 354.71 168.604 356.696 170.067 358.159C171.531 359.623 173.516 360.445 175.586 360.445C177.656 360.445 179.641 359.623 181.105 358.159C182.569 356.696 183.391 354.71 183.391 352.64C183.391 350.57 182.569 348.585 181.105 347.121C179.641 345.658 177.656 344.835 175.586 344.835C173.516 344.835 171.531 345.658 170.067 347.121C168.604 348.585 167.781 350.57 167.781 352.64Z" fill="#524F75"/>
<path id="Vector_31" d="M115.099 442.396C128.306 445.009 139.038 446.316 147.294 446.316C155.549 446.316 166.281 445.009 179.489 442.396L174.535 467.762H120.053L115.099 442.396Z" fill="#EAE6DB"/>
<path id="Vector_32" d="M124.872 461.909H169.713L172.095 449.704C162.341 451.345 154.086 452.17 147.292 452.17C140.497 452.17 132.242 451.345 122.488 449.704L124.872 461.909ZM116.234 436.654C129.098 439.2 139.475 440.463 147.294 440.463C155.112 440.463 165.489 439.2 178.353 436.654C182.435 435.848 186.031 439.437 185.233 443.52L180.279 468.886C180.019 470.219 179.303 471.419 178.255 472.283C177.208 473.146 175.892 473.618 174.535 473.618H120.053C118.695 473.618 117.38 473.146 116.332 472.283C115.284 471.419 114.568 470.219 114.308 468.886L109.354 443.52C108.556 439.435 112.152 435.848 116.234 436.654Z" fill="#524F75"/>
</g>
<path id="Vector_33" d="M140.954 8.79087C141.338 9.36257 141.637 9.86598 141.846 10.2991C150.806 28.9352 158.179 42.5314 167.805 50.8787C178.554 60.2035 193.094 66.1001 211.426 68.5665C207.666 81.8582 204.261 90.4826 201.215 94.4416C198.17 98.4006 192.021 103.823 182.773 110.711C168.15 105.4 155.122 93.4894 143.686 74.9821C133.061 57.786 128.351 36.5879 133.506 10.2972C133.663 9.49982 134.053 8.76687 134.627 8.19079C135.2 7.61471 135.931 7.22131 136.728 7.06019C137.524 6.89907 138.351 6.97746 139.103 7.28546C139.855 7.59346 140.499 8.11728 140.954 8.79087Z" fill="#EAE6DB"/>
<path id="Vector_34" d="M147.12 71.2806C156.263 87.9733 166.778 99.1889 178.606 105.123C186.284 99.864 191.447 95.6747 193.972 92.7264C196.119 90.2211 198.948 84.4162 202.228 75.5518C186.103 71.624 173.086 64.9586 163.27 55.4991C154.833 47.3684 148.692 36.5118 139.73 15.4523C135.455 36.5137 138.179 54.9547 147.12 71.2806ZM147.74 4.83373C148.23 5.64934 148.628 6.41227 148.934 7.14593C158.177 29.2669 164 39.9459 171.395 47.0698C180.757 56.0923 193.931 62.2562 211.051 65.4815C211.876 65.6367 212.657 65.9672 213.342 66.4506C214.028 66.934 214.601 67.5591 215.024 68.2835C215.447 69.0079 215.709 69.8147 215.793 70.6492C215.877 71.4838 215.78 72.3266 215.51 73.1206C210.825 86.8825 206.749 95.8093 202.862 100.348C199.172 104.654 192.405 110.02 182.396 116.693C180.757 117.786 178.679 117.981 176.866 117.212C161.203 110.576 147.888 97.062 136.852 76.9079C125.767 56.6679 122.997 33.5557 129.529 7.54203C130.009 5.63114 131.043 3.90516 132.503 2.5821C133.963 1.25903 135.782 0.398235 137.731 0.108434C139.679 -0.181368 141.67 0.112821 143.452 0.953854C145.233 1.79489 146.725 3.14502 147.74 4.83373Z" fill="#524F75"/>
<g id="cow-ear-right">
<path id="Vector_35" d="M197.05 146.998C186.435 149.374 180.242 151.739 173.12 152.637C166 153.534 155.639 151.189 143.828 146.998L135.489 144.055C134.187 143.203 131.606 141.519 131.83 139.249C132.014 137.402 133.881 135.439 135.489 134.073C136.56 133.162 138.488 131.88 141.272 130.225C157.184 121.273 164.021 118.131 169.625 115.967C176.076 113.48 185.217 111.72 197.05 110.689" fill="#E1975C"/>
<path id="Vector_36" d="M139.282 138.531C140.039 137.887 141.742 136.756 144.263 135.257C158.086 127.483 165.338 123.897 171.734 121.429C177.588 119.171 186.226 117.507 197.559 116.521C199.081 116.356 200.477 115.6 201.449 114.417C202.421 113.234 202.891 111.718 202.758 110.193C202.625 108.668 201.901 107.255 200.739 106.258C199.578 105.261 198.072 104.758 196.544 104.857C184.21 105.93 174.568 107.786 167.522 110.506C160.517 113.208 152.796 117.025 138.404 125.122C135.235 127.001 133.083 128.434 131.697 129.612C128.49 132.34 126.361 135.091 126.006 138.672C125.625 142.52 127.469 145.298 130.378 147.604C130.993 148.092 131.461 148.416 132.283 148.953C132.677 149.21 133.098 149.419 133.541 149.575L141.881 152.518C155.315 157.286 165.986 159.435 173.851 158.443C175.208 158.271 176.557 158.053 177.898 157.788C181.1 157.161 194.269 153.618 198.328 152.709C199.079 152.543 199.791 152.23 200.422 151.788C201.053 151.346 201.59 150.784 202.003 150.135C202.416 149.485 202.697 148.76 202.83 148.001C202.963 147.243 202.944 146.466 202.776 145.714C202.608 144.963 202.293 144.252 201.849 143.622C201.406 142.993 200.843 142.457 200.192 142.045C199.541 141.634 198.815 141.355 198.057 141.224C197.298 141.094 196.52 141.114 195.77 141.284C191.319 142.281 178.359 145.768 175.649 146.299C174.519 146.52 173.448 146.695 172.388 146.828C166.8 147.532 157.641 145.688 145.787 141.48L138.753 138.998C138.919 138.845 139.094 138.689 139.282 138.531Z" fill="#524F75"/>
<path id="Vector_37" d="M173.188 125.415C175.086 124.906 178.87 124.268 184.54 123.499C186.561 123.225 188.611 123.717 190.288 124.877C191.965 126.037 193.147 127.782 193.604 129.77C194.54 133.854 192.446 138.484 188.435 139.692C183.268 141.247 178.601 141.672 176.965 142.012C175.026 142.414 169.902 142.789 163.449 142.012C160.79 141.692 157.906 141.183 157.356 138.511C156.788 135.747 159.188 132.16 161.65 130.781C167.89 127.592 171.736 125.803 173.188 125.415Z" fill="#FFE8A9"/>
</g>
<path id="Vector_38" d="M312.171 140.836C312.171 146.761 314.528 152.444 318.723 156.633C322.918 160.823 328.608 163.177 334.54 163.177C340.473 163.177 346.162 160.823 350.357 156.633C354.552 152.444 356.909 146.761 356.909 140.836C356.909 134.91 354.552 129.228 350.357 125.038C346.162 120.848 340.473 118.494 334.54 118.494C328.608 118.494 322.918 120.848 318.723 125.038C314.528 129.228 312.171 134.91 312.171 140.836Z" fill="white"/>
<path id="Vector_39" d="M334.54 169.031C318.956 169.031 306.318 156.408 306.318 140.836C306.318 125.263 318.956 112.641 334.54 112.641C350.125 112.641 362.763 125.263 362.763 140.836C362.763 156.408 350.125 169.031 334.54 169.031ZM334.54 157.324C343.662 157.324 351.055 149.94 351.055 140.836C351.055 131.731 343.662 124.348 334.54 124.348C325.418 124.348 318.025 131.731 318.025 140.836C318.025 149.94 325.418 157.324 334.54 157.324Z" fill="#524F75"/>
<path id="Vector_40" d="M322.548 147.63C323.223 148.411 324.058 149.038 324.997 149.467C325.937 149.897 326.957 150.118 327.99 150.117C329.896 150.118 331.725 149.362 333.073 148.015C334.422 146.668 335.181 144.841 335.182 142.935C335.182 138.97 331.963 135.754 327.99 135.754C326.109 135.753 324.303 136.489 322.958 137.804C321.614 139.12 320.839 140.91 320.8 142.791L326.131 143.563L322.548 147.63Z" fill="#232323"/>
<path id="Vector_41" d="M245.83 130.202C245.829 134.302 246.636 138.362 248.205 142.15C249.774 145.939 252.073 149.381 254.972 152.28C257.871 155.18 261.313 157.48 265.101 159.049C268.889 160.618 272.949 161.426 277.05 161.426C281.15 161.426 285.21 160.618 288.998 159.049C292.786 157.48 296.228 155.18 299.127 152.28C302.026 149.381 304.325 145.939 305.894 142.15C307.463 138.362 308.27 134.302 308.269 130.202C308.27 126.101 307.463 122.041 305.894 118.253C304.325 114.464 302.026 111.022 299.127 108.123C296.228 105.223 292.786 102.923 288.998 101.354C285.21 99.7847 281.15 98.9771 277.05 98.9771C272.949 98.9771 268.889 99.7847 265.101 101.354C261.313 102.923 257.871 105.223 254.972 108.123C252.073 111.022 249.774 114.464 248.205 118.253C246.636 122.041 245.829 126.101 245.83 130.202Z" fill="white"/>
<path id="Vector_42" d="M277.05 167.275C256.574 167.275 239.977 150.676 239.977 130.202C239.977 109.727 256.574 93.1284 277.05 93.1284C297.526 93.1284 314.123 109.727 314.123 130.202C314.123 150.676 297.526 167.275 277.05 167.275ZM277.05 155.567C291.059 155.567 302.416 144.211 302.416 130.202C302.416 116.192 291.059 104.836 277.05 104.836C263.04 104.836 251.684 116.192 251.684 130.202C251.684 144.211 263.04 155.567 277.05 155.567Z" fill="#524F75"/>
<path id="Vector_43" d="M279.421 142.431C280.721 143.938 282.452 145.011 284.38 145.506C286.308 146.001 288.342 145.895 290.207 145.201C292.073 144.506 293.682 143.258 294.818 141.623C295.954 139.989 296.562 138.046 296.562 136.055C296.575 134.774 296.336 133.502 295.857 132.314C295.379 131.125 294.672 130.042 293.775 129.127C292.878 128.212 291.81 127.482 290.631 126.98C289.453 126.478 288.187 126.212 286.905 126.199C285.624 126.186 284.353 126.426 283.164 126.904C281.976 127.382 280.893 128.09 279.978 128.986C279.063 129.883 278.333 130.951 277.831 132.13C277.328 133.309 277.063 134.575 277.05 135.856L284.283 136.908L279.421 142.431Z" fill="#232323"/>
<path id="Vector_44" d="M279.132 168.151C291.612 166.143 300.817 165.204 306.745 165.337C312.708 165.47 321.485 166.551 333.073 168.58C345.424 170.743 356.875 176.464 366.02 185.043C375.165 193.621 381.607 204.683 384.554 216.871L386.931 226.703C393.089 252.17 377.438 277.807 351.971 283.965C350.755 284.258 349.528 284.504 348.293 284.701C326.242 288.219 312.394 290.049 306.745 290.196C301.186 290.336 288.021 288.676 267.251 285.206C239.514 280.574 220.665 254.49 224.977 226.701L225.731 221.848C227.818 208.404 234.109 195.967 243.703 186.32C253.297 176.673 265.699 170.312 279.132 168.151Z" fill="#FFE6A2"/>
<path id="Vector_45" d="M280.062 173.93C267.851 175.895 256.575 181.677 247.854 190.448C239.132 199.218 233.413 210.526 231.516 222.748L230.763 227.599C226.942 252.219 243.643 275.327 268.214 279.433C288.577 282.832 301.561 284.471 306.595 284.342C311.879 284.207 325.612 282.391 347.37 278.922C348.452 278.748 349.527 278.533 350.593 278.276C372.917 272.875 386.64 250.403 381.239 228.079L378.862 218.246C376.183 207.167 370.327 197.111 362.014 189.312C353.7 181.514 343.29 176.312 332.062 174.346C320.739 172.364 312.222 171.314 306.613 171.189C301.124 171.066 292.22 171.973 280.062 173.93ZM278.203 162.371C291.007 160.311 300.513 159.343 306.876 159.484C313.194 159.624 322.228 160.738 334.082 162.812C347.556 165.171 360.047 171.413 370.024 180.772C380 190.13 387.027 202.198 390.242 215.493L392.62 225.326C399.539 253.934 381.955 282.734 353.346 289.653C351.98 289.983 350.603 290.26 349.215 290.481C326.874 294.044 312.911 295.889 306.897 296.046C300.817 296.202 287.469 294.518 266.289 290.98C235.389 285.819 214.392 256.762 219.196 225.804L219.949 220.951C224.616 190.863 248.14 167.208 278.203 162.371Z" fill="#524F75"/>
<path id="Vector_46" d="M305.118 239.401C309.557 235.631 312.171 230.266 312.171 224.48C312.171 212.338 304.191 203.957 290.534 204.361C276.966 204.763 269.245 212.617 269.245 224.48C269.245 226.033 269.861 227.522 270.959 228.619C272.057 229.717 273.546 230.334 275.098 230.334C276.651 230.334 278.14 229.717 279.237 228.619C280.335 227.522 280.952 226.033 280.952 224.48C280.952 218.982 283.608 216.279 290.882 216.065C297.725 215.862 300.464 218.74 300.464 224.48C300.464 226.738 299.422 228.878 297.541 230.474C296.357 231.479 295.621 232.913 295.495 234.46C295.368 236.008 295.861 237.542 296.866 238.726C297.871 239.91 299.305 240.646 300.852 240.773C302.4 240.899 303.934 240.406 305.118 239.401Z" fill="#524F75"/>
<path id="Vector_47" d="M288.973 229.411C291.848 229.411 296.566 227.807 296.529 223.77C296.491 219.731 291.848 218.127 288.973 218.127C286.099 218.127 283.77 222.03 283.77 224.656C283.77 227.283 286.101 229.411 288.973 229.411Z" fill="#F9D679"/>
<path id="Vector_48" d="M338.737 239.401C334.298 235.631 331.684 230.266 331.684 224.48C331.684 212.338 339.664 203.957 353.321 204.361C366.889 204.763 374.61 212.617 374.61 224.48C374.61 226.033 373.994 227.522 372.896 228.619C371.798 229.717 370.309 230.334 368.757 230.334C367.204 230.334 365.715 229.717 364.618 228.619C363.52 227.522 362.903 226.033 362.903 224.48C362.903 218.982 360.248 216.279 352.973 216.065C346.13 215.862 343.391 218.74 343.391 224.48C343.391 226.738 344.433 228.878 346.314 230.474C347.498 231.479 348.234 232.913 348.36 234.46C348.487 236.008 347.994 237.542 346.989 238.726C345.984 239.91 344.55 240.646 343.003 240.773C341.455 240.899 339.921 240.406 338.737 239.401Z" fill="#524F75"/>
<path id="Vector_49" d="M352.93 229.411C350.056 229.411 345.338 227.807 345.375 223.77C345.412 219.731 350.056 218.127 352.93 218.127C355.804 218.127 358.134 222.03 358.134 224.656C358.134 227.283 355.803 229.411 352.93 229.411Z" fill="#F9D679"/>
</g>
</svg>
