<svg width="437" height="557" viewBox="0 0 437 557" fill="none" xmlns="http://www.w3.org/2000/svg">
<path d="M204.562 156.997L223.079 115.99C225.75 110.075 230.097 105.073 235.582 101.604C241.068 98.1343 247.45 96.3501 253.939 96.4721L307.095 97.4769C311.726 97.564 316.279 96.2757 320.178 93.775C324.077 91.2744 327.146 87.6736 328.999 83.4282L349.807 35.713C351.082 32.7902 351.294 29.5133 350.406 26.4505C349.518 23.3877 347.587 20.7322 344.946 18.9443C343.791 18.1615 342.479 17.6403 341.102 17.4173C339.724 17.1942 338.315 17.2745 336.972 17.6526C335.629 18.0308 334.384 18.6976 333.326 19.6065C332.267 20.5155 331.42 21.6446 330.843 22.915L313.709 60.6047C311.797 64.809 308.685 68.354 304.763 70.7937C300.842 73.2334 296.286 74.4589 291.67 74.316L236.205 72.5891C228.948 72.3629 221.817 74.5238 215.907 78.7403C209.996 82.9568 205.632 88.9961 203.485 95.9316L188.663 143.801" fill="#9D6249"/>
<path d="M198.053 153.342L217.282 112.663C220.545 105.76 225.761 99.9665 232.284 95.9988C238.807 92.0311 246.35 90.064 253.98 90.3413L307.108 92.273C314.209 92.5305 320.767 88.4837 323.721 82.0232L345.36 34.6808C346.117 33.0233 346.27 31.1533 345.794 29.3947C345.317 27.636 344.24 26.0996 342.749 25.0515C342.305 24.7394 341.797 24.528 341.263 24.4321C340.728 24.3362 340.179 24.3582 339.653 24.4964C339.128 24.6346 338.639 24.8858 338.221 25.2324C337.802 25.579 337.465 26.0127 337.231 26.5032L319.44 63.8847C316.958 69.0977 312.99 73.4603 308.035 76.4239C303.08 79.3875 297.359 80.8197 291.592 80.5403L236.168 77.8476C230.195 77.5574 224.293 79.2345 219.365 82.6217C214.437 86.0088 210.757 90.9188 208.888 96.5988L193.233 144.199C192.748 145.674 191.697 146.896 190.312 147.596C188.926 148.296 187.319 148.416 185.844 147.932C184.369 147.447 183.147 146.396 182.447 145.01C181.747 143.624 181.626 142.017 182.111 140.542L197.768 92.9403C200.436 84.8271 205.692 77.8134 212.73 72.9751C219.768 68.1368 228.199 65.7412 236.73 66.1559L292.156 68.8486C295.616 69.0172 299.049 68.1585 302.022 66.3804C304.995 64.6024 307.376 61.9845 308.864 58.8564L326.66 21.473C327.625 19.4446 329.022 17.6513 330.752 16.2182C332.482 14.7851 334.504 13.7468 336.677 13.1757C338.849 12.6047 341.121 12.5145 343.332 12.9116C345.543 13.3087 347.641 14.1835 349.479 15.4749C353.206 18.0948 355.899 21.936 357.091 26.3328C358.284 30.7297 357.9 35.4052 356.008 39.5491L334.369 86.8935C331.961 92.1597 328.046 96.5936 323.118 99.6341C318.19 102.675 312.471 104.185 306.685 103.974L253.555 102.043C248.214 101.848 242.934 103.225 238.368 106.003C233.802 108.78 230.151 112.836 227.867 117.668L208.638 158.347C208.309 159.042 207.847 159.666 207.278 160.182C206.708 160.698 206.042 161.098 205.318 161.357C204.595 161.616 203.827 161.73 203.059 161.692C202.291 161.654 201.538 161.466 200.843 161.137C200.148 160.809 199.524 160.346 199.008 159.777C198.492 159.207 198.092 158.542 197.833 157.818C197.574 157.094 197.46 156.326 197.498 155.558C197.536 154.79 197.724 154.037 198.053 153.342Z" fill="#524F75"/>
<path d="M283.307 80.9305C287.592 66.5754 290.585 55.3696 292.277 47.311C293.401 41.9764 294.624 33.0945 295.963 20.6613C296.412 17.5758 295.628 14.4375 293.779 11.9265C291.931 9.41552 289.167 7.73409 286.088 7.24665C283.003 6.75831 279.851 7.50108 277.309 9.31497C274.767 11.1289 273.039 13.8687 272.497 16.9442C270.611 28.4018 269.434 36.911 268.962 42.472C268.254 50.8818 267.658 63.3306 267.182 79.8184" fill="#9D6249"/>
<path d="M297.926 48.8156C296.053 57.0303 292.821 68.3278 288.244 82.7473C287.772 84.2269 286.732 85.4586 285.353 86.1721C283.974 86.8855 282.368 87.0222 280.888 86.5522C279.409 86.0808 278.178 85.0424 277.464 83.6645C276.75 82.2866 276.611 80.6818 277.079 79.202C281.575 65.0654 284.72 54.0547 286.509 46.2108C287.668 41.1376 289.026 32.4352 290.556 20.2069C291.118 16.7473 288.946 13.6839 285.709 13.1142C284.145 12.8385 282.535 13.1883 281.226 14.0884C279.917 14.9884 279.015 16.3665 278.712 17.9259C276.665 29.1454 275.356 37.5025 274.81 42.8644C273.967 51.1356 273.161 63.4771 272.406 79.8498C272.312 81.385 271.619 82.8219 270.475 83.8499C269.331 84.878 267.828 85.4146 266.292 85.3439C264.755 85.2731 263.308 84.6007 262.264 83.4719C261.219 82.3431 260.66 80.8486 260.708 79.3113C261.473 62.7376 262.293 50.2049 263.161 41.6781C263.748 35.9415 265.093 27.3191 267.206 15.7581C269.065 6.17759 278.197 -0.0975311 287.744 1.58442C292.31 2.39051 296.378 4.95571 299.073 8.72873C301.768 12.5018 302.875 17.1814 302.156 21.762C300.591 34.2966 299.19 43.28 297.926 48.8156Z" fill="#524F75"/>
<path d="M248.297 77.8909C247.247 62.568 246.421 50.8021 245.826 42.5953C245.436 37.1533 244.775 28.445 243.846 16.4684C243.429 13.3788 241.811 10.578 239.343 8.67321C236.875 6.7684 233.756 5.91314 230.661 6.29283C227.561 6.67373 224.735 8.25679 222.79 10.7012C220.846 13.1456 219.939 16.2558 220.265 19.3621C221.428 30.2597 222.564 38.5211 223.674 44.1406C225.278 52.2772 228.22 64.6519 232.494 81.2645" fill="#9D6249"/>
<path d="M229.744 12.3433C228.18 12.6189 226.786 13.4983 225.864 14.7918C224.942 16.0853 224.564 17.6894 224.814 19.2584C226.515 29.9179 228.055 37.955 229.407 43.3072C231.405 51.2174 234.96 63.3286 240.066 79.5999C240.471 81.0635 240.291 82.6269 239.565 83.9605C238.839 85.2941 237.623 86.2936 236.175 86.7483C234.726 87.2031 233.157 87.0775 231.799 86.398C230.441 85.7185 229.4 84.5383 228.896 83.1062C223.729 66.6399 220.119 54.3452 218.057 46.1735C216.603 40.4174 215.007 32.0779 213.251 21.0984C212.52 16.4965 213.626 11.7915 216.331 7.99728C219.036 4.20304 223.123 1.62318 227.711 0.813522C237.259 -0.87038 246.384 5.43596 248.184 14.9618L248.234 15.2916C249.787 27.2135 250.905 35.8808 251.584 41.3072C252.609 49.4789 254.051 61.1921 255.901 76.4486C256.088 77.99 255.655 79.5425 254.697 80.7647C253.739 81.9869 252.336 82.7786 250.794 82.9657C249.253 83.1528 247.7 82.7199 246.478 81.7623C245.256 80.8047 244.464 79.4007 244.277 77.8594C242.865 66.1576 241.428 54.4587 239.967 42.7628C239.296 37.3891 238.189 28.7979 236.65 16.9969C236.326 15.4775 235.424 14.1432 234.136 13.2751C232.848 12.4071 231.272 12.073 229.743 12.3433H229.744Z" fill="#524F75"/>
<path d="M292.197 454.634C296.572 473.11 297.091 489.272 296.572 499.116C296.053 508.958 291.44 522.439 287.104 536.964H264.029C266.933 520.954 267.844 507.765 266.933 499.116C266.021 490.46 263.66 482.765 257.165 462.091" fill="#F88669"/>
<path d="M270.946 531.111C272.978 517.914 273.61 506.623 272.755 498.502C271.873 490.117 270.375 484.591 262.749 460.332C262.529 459.587 262.163 458.892 261.671 458.29C261.18 457.688 260.574 457.189 259.888 456.824C259.202 456.458 258.45 456.233 257.676 456.161C256.902 456.09 256.122 456.173 255.38 456.406C254.639 456.639 253.951 457.017 253.357 457.519C252.763 458.021 252.276 458.636 251.922 459.328C251.569 460.02 251.357 460.776 251.298 461.551C251.24 462.326 251.337 463.105 251.582 463.842C258.937 487.243 260.343 492.439 261.112 499.725C261.975 507.948 261.019 520.757 258.269 535.92C258.116 536.764 258.151 537.63 258.37 538.459C258.588 539.288 258.987 540.058 259.536 540.716C260.086 541.374 260.773 541.903 261.549 542.266C262.326 542.63 263.172 542.818 264.029 542.818H287.104C288.366 542.818 289.593 542.411 290.604 541.657C291.615 540.904 292.355 539.843 292.714 538.634C292.978 537.76 293.247 536.851 293.545 535.871C301.103 510.896 301.986 507.594 302.418 499.419C303.118 486.088 301.805 469.799 297.895 453.28C297.536 451.77 296.592 450.464 295.271 449.649C293.95 448.834 292.36 448.577 290.849 448.933C289.339 449.292 288.033 450.235 287.218 451.556C286.403 452.876 286.145 454.466 286.502 455.977C290.146 471.374 291.372 486.549 290.726 498.798C290.379 505.405 289.491 508.831 282.757 531.105H270.946V531.111Z" fill="#524F75"/>
<path d="M277.951 522.927C280.385 522.927 282.796 523.406 285.045 524.338C287.294 525.269 289.337 526.635 291.059 528.356C292.78 530.077 294.145 532.121 295.077 534.37C296.008 536.619 296.488 539.029 296.488 541.463V550.244H259.415V541.463C259.415 539.029 259.894 536.619 260.826 534.37C261.757 532.121 263.123 530.077 264.844 528.356C266.565 526.635 268.609 525.269 270.857 524.338C273.106 523.406 275.517 522.927 277.951 522.927Z" fill="#8C664F"/>
<path d="M290.634 544.39V541.463C290.634 538.1 289.298 534.874 286.919 532.495C284.541 530.117 281.315 528.781 277.951 528.781C274.588 528.781 271.362 530.117 268.983 532.495C266.605 534.874 265.268 538.1 265.268 541.463V544.39H290.634ZM277.951 517.073C291.419 517.073 302.342 527.994 302.342 541.463V550.244C302.342 551.013 302.19 551.774 301.896 552.484C301.602 553.194 301.171 553.84 300.627 554.383C300.083 554.927 299.438 555.358 298.728 555.652C298.018 555.946 297.257 556.098 296.488 556.098H259.415C258.646 556.098 257.885 555.946 257.175 555.652C256.464 555.358 255.819 554.927 255.276 554.383C254.732 553.84 254.301 553.194 254.007 552.484C253.712 551.774 253.561 551.013 253.561 550.244V541.463C253.561 527.994 264.484 517.073 277.951 517.073Z" fill="#524F75"/>
<path d="M285.924 366.01C310.942 370.156 330.726 372.234 345.268 372.234C359.811 372.234 381.309 369.274 409.762 363.358L405.748 335.773C379.37 338.921 359.21 340.497 345.268 340.497C331.327 340.497 315.206 336.917 296.894 329.756" fill="#F88669"/>
<path d="M403.173 358.732L400.775 342.25C376.937 344.982 358.457 346.355 345.268 346.355C330.527 346.355 313.705 342.621 294.761 335.212C294.045 334.932 293.391 334.514 292.837 333.981C292.283 333.448 291.839 332.811 291.531 332.107C291.223 331.403 291.056 330.645 291.041 329.876C291.026 329.108 291.162 328.343 291.442 327.628C291.722 326.912 292.14 326.258 292.673 325.704C293.206 325.149 293.842 324.705 294.547 324.397C295.251 324.089 296.009 323.923 296.778 323.907C297.546 323.892 298.31 324.028 299.026 324.309C316.704 331.218 332.133 334.644 345.268 334.644C358.931 334.644 378.886 333.085 405.056 329.963C406.571 329.783 408.097 330.202 409.309 331.13C410.52 332.058 411.321 333.423 411.541 334.933L415.553 362.517C415.768 363.993 415.412 365.494 414.557 366.716C413.702 367.938 412.414 368.787 410.954 369.091C382.142 375.079 360.299 378.086 345.27 378.086C330.351 378.086 310.275 375.979 284.972 371.786C283.44 371.532 282.073 370.681 281.169 369.419C280.265 368.157 279.9 366.588 280.153 365.057C280.407 363.526 281.258 362.158 282.52 361.254C283.782 360.35 285.351 359.985 286.882 360.238C311.61 364.338 331.099 366.381 345.268 366.381C358.412 366.381 377.752 363.834 403.173 358.732Z" fill="#524F75"/>
<path d="M430.513 344.287C430.187 342.433 429.481 340.666 428.44 339.098C427.399 337.53 426.044 336.194 424.462 335.174C422.88 334.154 421.104 333.472 419.246 333.171C417.388 332.87 415.488 332.956 413.664 333.424L406.008 335.391L411.664 362.587L418.546 361.374C420.454 361.038 422.277 360.329 423.911 359.288C425.545 358.248 426.958 356.896 428.069 355.309C429.18 353.722 429.968 351.932 430.387 350.041C430.807 348.15 430.85 346.194 430.513 344.287Z" fill="#8C664F"/>
<path d="M415.387 338.948C416.438 338.717 417.526 338.705 418.581 338.914C419.637 339.123 420.638 339.548 421.522 340.162C422.406 340.775 423.153 341.565 423.717 342.482C424.281 343.398 424.65 344.421 424.8 345.487C424.963 346.644 424.895 347.822 424.603 348.953C424.31 350.085 423.797 351.147 423.093 352.081C422.39 353.014 421.509 353.799 420.502 354.392C419.495 354.985 418.381 355.373 417.223 355.535L415.924 355.719L413.124 339.444L415.387 338.948ZM414.349 327.249C413.853 327.319 413.36 327.408 412.87 327.516L405.149 329.215C403.679 329.539 402.39 330.417 401.55 331.666C400.71 332.915 400.383 334.44 400.638 335.924L405.344 363.299C405.603 364.799 406.435 366.139 407.664 367.037C408.893 367.934 410.423 368.318 411.93 368.107L418.851 367.135C430.119 365.551 437.975 355.132 436.388 343.855C434.892 333.186 425.02 325.75 414.349 327.249Z" fill="#524F75"/>
<path d="M116.872 437.356L124.566 436.407C126.548 436.163 128.559 436.343 130.466 436.935C132.374 437.526 134.134 438.516 135.63 439.839C137.126 441.162 138.324 442.787 139.144 444.608C139.965 446.429 140.39 448.403 140.39 450.4C140.391 452.493 139.978 454.567 139.177 456.501C138.376 458.436 137.202 460.194 135.721 461.675C134.241 463.155 132.483 464.33 130.549 465.131C128.614 465.932 126.541 466.345 124.447 466.345H116.976C113.353 466.345 109.879 464.906 107.318 462.344C104.756 459.783 103.317 456.309 103.317 452.686C103.316 448.917 104.694 445.277 107.191 442.453C109.687 439.629 113.131 437.816 116.872 437.356Z" fill="#F88669"/>
<path d="M109.171 452.683C109.171 454.753 109.993 456.738 111.457 458.202C112.92 459.665 114.906 460.488 116.976 460.488H124.447C125.772 460.488 127.084 460.227 128.309 459.72C129.533 459.213 130.646 458.469 131.583 457.532C132.52 456.595 133.263 455.482 133.77 454.258C134.276 453.034 134.537 451.721 134.537 450.396C134.536 449.228 134.288 448.073 133.808 447.009C133.328 445.944 132.627 444.993 131.752 444.219C130.877 443.446 129.848 442.866 128.733 442.52C127.617 442.174 126.441 442.068 125.282 442.211L117.588 443.159C115.265 443.447 113.128 444.574 111.578 446.328C110.027 448.082 109.171 450.342 109.171 452.683ZM123.85 430.595C134.786 429.249 144.745 437.02 146.094 447.955C146.193 448.765 146.244 449.58 146.244 450.396C146.244 462.435 136.486 472.195 124.447 472.195H116.976C106.199 472.195 97.4634 463.459 97.4634 452.683C97.4634 441.928 105.481 432.858 116.156 431.543L123.85 430.595Z" fill="#524F75"/>
<path d="M297.276 305.916C300.459 306.954 303.797 308.033 307.3 309.159C340.55 319.834 376.595 304.458 391.902 273.069L393.598 269.596C394.139 268.482 394.65 267.35 395.122 266.203C407.801 235.522 393.21 200.373 362.527 187.694C334.334 176.043 316.464 168.377 308.919 164.697C301.374 161.017 284.328 151.655 257.791 136.611C256.712 135.998 255.614 135.42 254.498 134.878C224.663 120.326 188.681 132.716 174.127 162.554L172.755 165.368C158.096 195.424 166.722 231.383 192.763 251.61C188.54 257.255 186.131 264.051 185.858 271.097C183.932 319.889 181.208 353.74 177.684 372.648C175.075 386.65 163.368 408.039 142.56 436.816C137.99 443.136 135.53 450.737 135.53 458.537C135.53 479.011 152.127 495.61 172.603 495.61H256.535C293.497 495.61 324.137 466.962 326.619 430.084C328.523 401.84 329.102 382.695 328.367 372.648C327.571 361.735 322.197 342.979 297.276 305.916Z" fill="#F88669"/>
<path d="M321.547 312.156C350.357 315.151 378.767 300.006 391.908 273.069L393.6 269.596C394.143 268.482 394.652 267.35 395.126 266.203C407.805 235.522 393.212 200.373 362.533 187.694C358.431 186 354.552 184.39 350.89 182.866C320.646 188.404 298.39 215.576 299.842 247.145L300.825 268.507C301.194 276.797 303.217 284.929 306.776 292.426C310.334 299.922 315.357 306.63 321.547 312.156Z" fill="#FFF4D4"/>
<path d="M307.3 309.157C340.55 319.832 376.595 304.456 391.902 273.067L393.598 269.594C394.139 268.48 394.65 267.348 395.122 266.201C407.801 235.52 393.21 200.371 362.527 187.692C334.334 176.041 316.464 168.374 308.919 164.694C301.374 161.014 284.328 151.653 257.791 136.607C256.712 135.995 255.613 135.417 254.498 134.874C224.663 120.324 188.681 132.714 174.127 162.552L172.755 165.366C158.096 195.422 166.722 231.381 192.763 251.608C188.54 257.253 186.132 264.049 185.858 271.094C183.932 319.887 181.208 353.738 177.684 372.646C175.075 386.648 163.368 408.037 142.56 436.814C137.99 443.135 135.53 450.736 135.53 458.536C135.53 479.011 152.127 495.61 172.603 495.61H256.535C293.497 495.61 324.137 466.962 326.619 430.084C328.523 401.84 329.103 382.694 328.367 372.648C327.571 361.731 322.197 342.979 297.276 305.914C300.459 306.954 303.797 308.033 307.3 309.157ZM297.276 305.916L294.494 314.952C297.694 315.996 300.203 319.176 303.721 320.306C309.771 322.252 316.026 323.488 322.361 323.988C321.061 321.704 319.732 319.435 318.375 317.184C316.141 313.475 309.11 309.721 297.276 305.916ZM340.043 371.795C340.827 382.562 340.236 402.092 338.295 430.87C335.401 473.896 299.655 507.317 256.533 507.317H172.603C145.663 507.317 123.823 485.477 123.823 458.536C123.823 448.273 127.06 438.271 133.073 429.955C152.923 402.503 163.975 382.314 166.176 370.503C169.565 352.31 172.256 318.89 174.16 270.632C174.383 264.933 175.651 259.324 177.903 254.084C153.506 229.699 146.728 192.025 162.232 160.234L163.604 157.42C180.993 121.772 223.986 106.968 259.635 124.355C260.968 125.005 262.277 125.695 263.569 126.427C289.879 141.342 306.81 150.642 314.053 154.175C321.298 157.709 339.052 165.325 367.003 176.874C403.657 192.023 421.097 234.019 405.947 270.675C405.379 272.044 404.77 273.397 404.121 274.73L402.427 278.203C387.407 309.001 355.274 326.585 322.361 323.988C333.85 344.215 339.132 359.375 340.043 371.795Z" fill="#524F75"/>
<path d="M315.426 311.526C290.23 302.427 272.379 294.08 262.016 286.63C260.755 285.724 259.186 285.356 257.654 285.606C256.122 285.857 254.752 286.706 253.846 287.967C252.94 289.227 252.572 290.796 252.822 292.328C253.073 293.86 253.922 295.23 255.182 296.136C266.613 304.353 285.321 313.102 311.452 322.538C312.912 323.065 314.522 322.991 315.927 322.331C317.333 321.671 318.418 320.48 318.945 319.019C319.472 317.559 319.398 315.949 318.738 314.544C318.078 313.138 316.887 312.053 315.426 311.526ZM175.179 251.403C181.555 257.252 186.232 261.479 189.225 264.097C195.998 270.021 203.483 274.585 210.603 276.704C212.091 277.147 213.694 276.98 215.059 276.241C216.425 275.502 217.44 274.251 217.883 272.763C218.326 271.275 218.159 269.672 217.42 268.306C216.681 266.941 215.43 265.925 213.941 265.483C208.628 263.902 202.539 260.187 196.933 255.284C194.025 252.739 189.405 248.566 183.091 242.772C182.524 242.253 181.861 241.85 181.138 241.587C180.416 241.324 179.649 241.206 178.881 241.239C178.113 241.272 177.359 241.457 176.662 241.781C175.965 242.106 175.339 242.565 174.82 243.131C174.3 243.698 173.897 244.362 173.634 245.084C173.371 245.806 173.253 246.573 173.286 247.341C173.319 248.109 173.504 248.863 173.828 249.56C174.153 250.257 174.612 250.883 175.179 251.403Z" fill="#524F75"/>
<path d="M206.203 357.805C185.885 360.527 168.593 360.527 154.049 360.527C139.504 360.527 118.008 357.567 89.5571 351.651L93.5689 324.066C119.949 327.213 140.109 328.79 154.049 328.79C167.988 328.79 181.836 324.97 200.148 317.809" fill="#F88669"/>
<path d="M98.5424 330.54C122.378 333.272 140.86 334.644 154.049 334.644C168.041 334.644 181.959 331.208 202.281 323.26C202.997 322.98 203.651 322.562 204.205 322.029C204.759 321.496 205.203 320.86 205.511 320.156C205.819 319.451 205.986 318.693 206.001 317.925C206.016 317.156 205.88 316.392 205.6 315.676C205.32 314.96 204.902 314.306 204.369 313.752C203.836 313.198 203.199 312.754 202.495 312.446C201.791 312.137 201.033 311.971 200.264 311.956C199.496 311.941 198.731 312.077 198.016 312.357C178.933 319.818 166.31 322.936 154.049 322.936C140.388 322.936 120.433 321.377 94.2614 318.253C92.7458 318.073 91.2195 318.491 90.0079 319.42C88.7964 320.348 87.9953 321.713 87.7756 323.223L83.7639 350.808C83.5487 352.283 83.9051 353.785 84.7603 355.007C85.6154 356.229 86.9047 357.078 88.3648 357.381C117.175 363.372 139.02 366.374 154.049 366.374C177.483 366.374 189.912 365.891 206.979 363.604C208.518 363.398 209.912 362.589 210.855 361.355C211.797 360.122 212.211 358.564 212.005 357.025C211.799 355.486 210.99 354.092 209.756 353.15C208.523 352.208 206.965 351.794 205.426 352C189.011 354.199 176.995 354.673 154.049 354.673C140.903 354.673 121.563 352.127 96.1444 347.024L98.5424 330.54Z" fill="#524F75"/>
<path d="M68.8058 332.579C69.1309 330.735 69.8367 328.979 70.8781 327.423C71.9196 325.867 73.2739 324.545 74.8547 323.541C76.4355 322.537 78.2081 321.873 80.0595 321.593C81.9109 321.312 83.8005 321.42 85.6078 321.91L92.9463 323.902L87.8049 351.149L80.7454 349.826C76.8852 349.103 73.4663 346.886 71.2309 343.657C68.9955 340.428 68.1241 336.447 68.8058 332.579Z" fill="#8C664F"/>
<path d="M84.0742 327.561C83.052 327.283 81.9831 327.222 80.9357 327.38C79.8884 327.539 78.8857 327.914 77.9915 328.482C77.0973 329.05 76.3313 329.798 75.7425 330.678C75.1537 331.559 74.755 332.553 74.5718 333.596C74.1574 335.946 74.6866 338.364 76.0445 340.326C77.4024 342.287 79.4794 343.634 81.8245 344.074L83.1357 344.318L86.1893 328.134L84.0742 327.561ZM63.042 331.563C64.8957 321.048 74.921 314.029 85.4362 315.881C86.0098 315.982 86.5776 316.109 87.1415 316.261L94.4801 318.252C95.902 318.638 97.1262 319.546 97.9084 320.795C98.6906 322.043 98.9735 323.541 98.7006 324.989L93.5591 352.234C93.2717 353.758 92.3911 355.106 91.1106 355.982C89.8301 356.857 88.2545 357.189 86.7298 356.903L79.6703 355.58C68.4801 353.483 61.0654 342.771 63.042 331.563Z" fill="#524F75"/>
<path d="M194.636 454.634C199.013 473.11 199.53 489.272 199.013 499.116C198.494 508.958 193.881 522.439 189.547 536.964H166.468C169.374 520.954 170.285 507.765 169.374 499.116C168.463 490.46 166.104 482.765 159.606 462.091" fill="#F88669"/>
<path d="M173.385 531.11C175.417 517.914 176.049 506.623 175.194 498.502C174.312 490.117 172.814 484.591 165.19 460.332C164.705 458.876 163.667 457.669 162.3 456.971C160.933 456.273 159.346 456.139 157.882 456.6C156.418 457.06 155.193 458.077 154.471 459.432C153.749 460.786 153.589 462.37 154.023 463.842C161.378 487.243 162.786 492.439 163.553 499.725C164.418 507.947 163.46 520.757 160.71 535.92C160.557 536.764 160.592 537.63 160.811 538.459C161.029 539.288 161.428 540.058 161.977 540.716C162.526 541.374 163.214 541.903 163.99 542.266C164.766 542.629 165.613 542.818 166.47 542.818H189.549C190.81 542.818 192.038 542.411 193.048 541.657C194.059 540.903 194.8 539.843 195.159 538.634C195.42 537.76 195.692 536.851 195.988 535.871C203.545 510.896 204.429 507.594 204.861 499.419C205.561 486.088 204.248 469.799 200.336 453.28C200.159 452.532 199.836 451.826 199.386 451.203C198.936 450.579 198.368 450.051 197.714 449.647C197.06 449.243 196.332 448.972 195.573 448.849C194.814 448.727 194.039 448.755 193.291 448.932C192.543 449.109 191.837 449.432 191.213 449.881C190.59 450.331 190.061 450.9 189.658 451.554C189.254 452.208 188.983 452.935 188.86 453.694C188.737 454.453 188.765 455.229 188.942 455.977C192.589 471.374 193.813 486.548 193.169 498.798C192.821 505.405 191.934 508.831 185.2 531.104H173.385V531.11Z" fill="#524F75"/>
<path d="M183.317 437.073C183.317 438.098 183.518 439.113 183.911 440.061C184.303 441.008 184.877 441.868 185.602 442.593C186.327 443.318 187.188 443.894 188.135 444.286C189.082 444.678 190.097 444.88 191.122 444.88C192.147 444.88 193.162 444.678 194.109 444.286C195.056 443.894 195.917 443.318 196.642 442.593C197.367 441.868 197.941 441.008 198.333 440.061C198.726 439.113 198.927 438.098 198.927 437.073C198.927 436.048 198.726 435.033 198.333 434.085C197.941 433.138 197.367 432.278 196.642 431.553C195.917 430.828 195.056 430.252 194.109 429.86C193.162 429.468 192.147 429.266 191.122 429.266C190.097 429.266 189.082 429.468 188.135 429.86C187.188 430.252 186.327 430.828 185.602 431.553C184.877 432.278 184.303 433.138 183.911 434.085C183.518 435.033 183.317 436.048 183.317 437.073Z" fill="#524F75"/>
<path d="M148.195 446.829C148.195 447.854 148.397 448.869 148.789 449.816C149.181 450.763 149.756 451.623 150.481 452.348C151.206 453.073 152.066 453.648 153.013 454.04C153.96 454.432 154.975 454.634 156 454.634C157.025 454.634 158.04 454.432 158.987 454.04C159.934 453.648 160.794 453.073 161.519 452.348C162.244 451.623 162.818 450.763 163.211 449.816C163.603 448.869 163.805 447.854 163.805 446.829C163.805 445.804 163.603 444.789 163.211 443.843C162.818 442.896 162.244 442.035 161.519 441.31C160.794 440.586 159.934 440.011 158.987 439.619C158.04 439.226 157.025 439.024 156 439.024C154.975 439.024 153.96 439.226 153.013 439.619C152.066 440.011 151.206 440.586 150.481 441.31C149.756 442.035 149.181 442.896 148.789 443.843C148.397 444.789 148.195 445.804 148.195 446.829Z" fill="#524F75"/>
<path d="M234.049 282.927C234.049 283.952 234.251 284.967 234.643 285.914C235.035 286.861 235.61 287.721 236.335 288.446C237.06 289.171 237.92 289.745 238.867 290.138C239.814 290.53 240.829 290.732 241.854 290.732C242.879 290.732 243.894 290.53 244.841 290.138C245.787 289.745 246.648 289.171 247.373 288.446C248.097 287.721 248.672 286.861 249.064 285.914C249.457 284.967 249.659 283.952 249.659 282.927C249.659 281.902 249.457 280.887 249.064 279.94C248.672 278.993 248.097 278.133 247.373 277.408C246.648 276.683 245.787 276.108 244.841 275.716C243.894 275.324 242.879 275.122 241.854 275.122C240.829 275.122 239.814 275.324 238.867 275.716C237.92 276.108 237.06 276.683 236.335 277.408C235.61 278.133 235.035 278.993 234.643 279.94C234.251 280.887 234.049 281.902 234.049 282.927Z" fill="#524F75"/>
<path d="M180.39 522.927C182.825 522.927 185.235 523.406 187.484 524.338C189.733 525.269 191.776 526.635 193.498 528.356C195.219 530.077 196.584 532.121 197.516 534.37C198.447 536.619 198.927 539.029 198.927 541.463V550.244H161.854V541.463C161.854 539.029 162.333 536.619 163.265 534.37C164.196 532.121 165.562 530.077 167.283 528.356C169.004 526.635 171.048 525.269 173.297 524.338C175.546 523.406 177.956 522.927 180.39 522.927Z" fill="#8C664F"/>
<path d="M193.073 541.463C193.073 538.1 191.737 534.874 189.358 532.495C186.98 530.117 183.754 528.781 180.39 528.781C177.027 528.781 173.801 530.117 171.422 532.495C169.044 534.874 167.707 538.1 167.707 541.463V544.39H193.073V541.463ZM180.39 517.073C193.86 517.073 204.78 527.994 204.78 541.463V550.244C204.78 551.013 204.629 551.774 204.335 552.484C204.041 553.194 203.61 553.84 203.066 554.383C202.522 554.927 201.877 555.358 201.167 555.652C200.457 555.946 199.696 556.098 198.927 556.098H161.854C161.085 556.098 160.324 555.946 159.614 555.652C158.903 555.358 158.258 554.927 157.714 554.383C157.171 553.84 156.74 553.194 156.446 552.484C156.151 551.774 156 551.013 156 550.244V541.463C156 527.994 166.921 517.073 180.39 517.073Z" fill="#524F75"/>
<path d="M384.913 197.075C389.227 197.11 393.649 198.008 398.178 199.77C404.049 201.578 409.001 205.407 409.001 212.466C409.001 212.976 408.968 213.483 408.911 213.99C408.438 217.934 406.535 221.567 403.564 224.203C400.593 226.839 396.758 228.295 392.786 228.295H378.355C374.066 228.295 369.893 226.899 366.468 224.319C363.042 221.738 360.549 218.113 359.366 213.99C358.546 211.132 358.895 208.066 360.335 205.465C361.776 202.864 364.19 200.942 367.048 200.121C368.691 199.645 376.523 197.007 384.913 197.075Z" fill="#8B674F"/>
<path d="M384.866 202.929C381.331 202.901 377.575 203.42 373.768 204.328C372.681 204.585 371.661 204.858 370.632 205.159C370.104 205.313 368.8 205.707 368.669 205.744C367.303 206.136 366.149 207.055 365.459 208.297C364.769 209.54 364.601 211.006 364.991 212.372C365.826 215.274 367.581 217.825 369.993 219.641C372.405 221.457 375.342 222.439 378.361 222.439H392.792C395.332 222.438 397.783 221.506 399.683 219.821C401.583 218.136 402.8 215.813 403.105 213.291C403.136 213.016 403.149 212.741 403.149 212.466C403.149 209.003 401.015 206.771 396.453 205.364L396.057 205.225C392.17 203.713 388.447 202.956 384.866 202.929ZM414.855 212.464C414.855 213.206 414.812 213.947 414.724 214.685C414.08 220.05 411.492 224.993 407.45 228.579C403.408 232.165 398.192 234.146 392.788 234.146H378.357C372.797 234.146 367.388 232.337 362.948 228.992C358.507 225.647 355.275 220.948 353.741 215.604C351.138 206.548 356.375 197.102 365.425 194.493C365.456 194.486 366.74 194.095 367.364 193.914C368.586 193.557 369.817 193.232 371.056 192.938C375.715 191.83 380.367 191.186 384.96 191.223C389.946 191.264 395.001 192.279 400.109 194.24C409.011 197.05 414.855 203.241 414.855 212.464Z" fill="#524F75"/>
<path d="M286.306 335.918C305.621 335.102 321.941 350.101 322.757 369.417C322.777 369.908 322.788 370.4 322.788 370.892V427.122C322.788 449.621 304.942 468.064 282.453 468.806C262.115 469.477 245.089 453.532 244.416 433.194C244.379 432.077 244.392 430.959 244.457 429.844L247.707 373.91C248.911 353.214 265.594 336.796 286.306 335.918Z" fill="#FFFBEF"/>
<path d="M179.087 171.649L151.198 136.338C147.176 131.245 141.748 127.443 135.586 125.405C129.425 123.366 122.801 123.179 116.535 124.868L65.2039 138.701C60.731 139.906 56.001 139.758 51.6122 138.275C47.2234 136.792 43.3731 134.04 40.5483 130.369L8.81565 89.1064C6.87033 86.5784 5.87159 83.4491 5.99277 80.2616C6.11396 77.0741 7.34742 74.0296 9.47906 71.6566C10.4106 70.6182 11.5576 69.7956 12.8399 69.2462C14.1223 68.6969 15.509 68.434 16.9034 68.476C18.2978 68.518 19.6663 68.8638 20.9132 69.4894C22.1602 70.1149 23.2556 71.005 24.123 72.0976L49.8615 104.521C52.7341 108.139 56.6126 110.826 61.0089 112.244C65.4051 113.662 70.1227 113.748 74.5678 112.492L127.969 97.3971C134.955 95.423 142.397 95.7954 149.151 98.4571C155.906 101.119 161.6 105.923 165.362 112.133L191.325 154.993" fill="#9D6249"/>
<path d="M183.678 168.019L155.793 132.71C151.061 126.718 144.675 122.246 137.427 119.848C130.178 117.449 122.385 117.229 115.013 119.215L63.6801 133.05C60.3262 133.954 56.7794 133.843 53.4886 132.73C50.1979 131.618 47.3113 129.554 45.1942 126.8L13.4557 85.5374C12.3438 84.0932 11.7727 82.3053 11.8414 80.484C11.9102 78.6626 12.6146 76.9229 13.8323 75.5667C14.1956 75.1626 14.6428 74.8426 15.1425 74.6291C15.6422 74.4155 16.1825 74.3136 16.7257 74.3303C17.2689 74.347 17.8019 74.482 18.2876 74.7259C18.7732 74.9697 19.1998 75.3166 19.5376 75.7423L45.282 108.162C48.8724 112.684 53.7203 116.043 59.2155 117.816C64.7106 119.589 70.6075 119.697 76.164 118.127L129.563 103.032C135.317 101.406 141.445 101.712 147.008 103.904C152.571 106.097 157.26 110.054 160.357 115.169L186.32 158.027C187.131 159.34 188.428 160.279 189.929 160.641C191.429 161.002 193.012 160.756 194.332 159.957C195.652 159.157 196.603 157.869 196.978 156.372C197.353 154.875 197.121 153.29 196.334 151.963L170.371 109.102C165.945 101.797 159.245 96.1446 151.298 93.0133C143.351 89.882 134.596 89.4445 126.377 91.7677L72.9796 106.862C69.6458 107.805 66.1078 107.74 62.8108 106.676C59.5138 105.612 56.6052 103.597 54.4508 100.884L28.7064 68.4603C27.3097 66.7006 25.5457 65.2668 23.5376 64.2592C21.5296 63.2515 19.3258 62.6942 17.0801 62.6262C14.8344 62.5582 12.6009 62.9811 10.5355 63.8654C8.47017 64.7498 6.62269 66.0741 5.12203 67.7462C2.07775 71.1367 0.316227 75.4858 0.143016 80.0392C-0.0301949 84.5926 1.39583 89.063 4.17373 92.675L35.9103 133.935C39.441 138.524 44.2532 141.963 49.7383 143.817C55.2235 145.671 61.1352 145.857 66.7259 144.351L118.059 130.517C123.219 129.126 128.674 129.279 133.748 130.958C138.823 132.637 143.293 135.768 146.605 139.963L174.49 175.272C175.452 176.491 176.858 177.277 178.4 177.459C179.942 177.641 181.493 177.203 182.711 176.241C183.93 175.279 184.717 173.873 184.898 172.331C185.08 170.789 184.642 169.238 183.68 168.019H183.678Z" fill="#524F75"/>
<path d="M81.7073 116.293C75.7892 103.801 71.0321 93.8537 67.4399 86.443C65.0633 81.5376 61.7229 73.2176 57.4204 61.4772C56.2371 58.5928 56.2382 55.3583 57.4234 52.4747C58.6086 49.5911 60.8824 47.2908 63.7521 46.0723C66.6276 44.8518 69.8674 44.8097 72.7736 45.955C75.6798 47.1002 78.0199 49.3412 79.2897 52.1952C84.156 65.2157 87.4887 74.3689 89.2897 79.6489C92.0136 87.6391 95.4848 98.5581 99.7034 112.408" fill="#9D6249"/>
<path d="M83.7658 81.4382C86.6009 89.3094 90.2438 100.111 94.6887 113.828C95.1842 115.284 96.2325 116.486 97.6072 117.175C98.9819 117.865 100.573 117.985 102.035 117.511C103.498 117.037 104.715 116.006 105.424 114.641C106.133 113.277 106.277 111.688 105.824 110.219C101.346 96.3943 97.6643 85.4792 94.7765 77.4694C92.8585 72.1524 89.3521 63.0187 84.2399 50.0353L84.0975 49.7036C82.1285 45.4819 78.5804 42.2022 74.2171 40.5709C69.8538 38.9396 65.0243 39.0871 60.7687 40.9816C56.533 42.8676 53.2063 46.3402 51.5038 50.653C49.8013 54.9657 49.8589 59.7743 51.6643 64.045C56.2185 75.8284 59.756 84.205 62.3199 89.2743C66.0312 96.6031 70.956 106.455 77.0848 118.824C77.7744 120.215 78.9883 121.275 80.4595 121.771C81.9307 122.267 83.5387 122.158 84.9297 121.468C86.3207 120.779 87.3808 119.565 87.8769 118.094C88.3729 116.623 88.2641 115.015 87.5746 113.624C82.6786 103.724 77.7419 93.8439 72.7648 83.9846C70.4175 79.3406 66.9892 71.2236 62.5463 59.7309C61.1648 56.5114 62.5307 53.0109 65.5316 51.6763C66.9593 51.0401 68.5777 50.9806 70.0483 51.51C71.5189 52.0395 72.7278 53.117 73.4224 54.5172C78.4526 67.2977 81.9043 76.2811 83.7638 81.4382H83.7658Z" fill="#524F75"/>
<path d="M117.512 105.473C115.442 93.8618 113.394 82.2469 111.368 70.6281C110.431 65.2544 108.968 56.6437 106.972 44.7998C106.629 41.7011 107.521 38.5921 109.455 36.1468C111.389 33.7015 114.209 32.1169 117.303 31.7364C120.404 31.3555 123.529 32.2076 126.007 34.109C128.486 36.0105 130.118 38.8091 130.552 41.9022C132.061 52.7588 132.956 61.0437 133.241 66.7705C133.651 75.0535 133.791 87.7696 133.666 104.925" fill="#9D6249"/>
<path d="M116.929 37.7014C118.498 37.4527 120.102 37.8303 121.396 38.753C122.689 39.6756 123.568 41.0694 123.844 42.6341C125.701 53.2682 126.861 61.3658 127.331 66.8682C128.018 74.999 128.599 87.6097 129.067 104.656C129.146 106.182 129.819 107.618 130.942 108.655C132.065 109.693 133.549 110.25 135.077 110.208C136.605 110.165 138.057 109.527 139.12 108.429C140.184 107.331 140.777 105.86 140.771 104.332C140.295 87.0829 139.705 74.2829 138.995 65.8848C138.496 59.9687 137.288 51.5629 135.376 40.6107C134.568 36.0212 131.99 31.9325 128.197 29.2256C124.404 26.5186 119.699 25.41 115.097 26.1385C110.496 26.867 106.367 29.3794 103.606 33.1312C100.844 36.883 99.673 41.5718 100.345 46.1814L100.404 46.5131C102.154 55.0786 103.922 63.6406 105.707 72.199C107.403 80.2614 109.854 91.8048 113.067 106.829C113.404 108.335 114.322 109.646 115.621 110.479C116.92 111.311 118.495 111.597 120.004 111.274C121.513 110.952 122.833 110.046 123.678 108.755C124.522 107.464 124.823 105.892 124.515 104.38C122.043 92.8567 119.593 81.3282 117.165 69.7951C115.396 61.3182 113.646 52.8375 111.914 44.3531C111.726 42.8109 112.144 41.2558 113.079 40.0152C114.014 38.7746 115.394 37.9452 116.929 37.7014Z" fill="#524F75"/>
<path d="M218.197 155.752C218.197 164.383 221.088 172.659 226.233 178.762C231.379 184.865 238.358 188.293 245.635 188.293C252.912 188.293 259.891 184.865 265.037 178.762C270.182 172.659 273.073 164.383 273.073 155.752C273.073 147.122 270.182 138.845 265.037 132.743C259.891 126.64 252.912 123.212 245.635 123.212C238.358 123.212 231.379 126.64 226.233 132.743C221.088 138.845 218.197 147.122 218.197 155.752Z" fill="white"/>
<path d="M271.555 153.776C271.555 160.594 274.009 167.132 278.378 171.953C282.746 176.775 288.671 179.483 294.849 179.483C301.027 179.483 306.952 176.775 311.32 171.953C315.688 167.132 318.143 160.594 318.143 153.776C318.143 146.958 315.688 140.419 311.32 135.598C306.952 130.777 301.027 128.068 294.849 128.068C288.671 128.068 282.746 130.777 278.378 135.598C274.009 140.419 271.555 146.958 271.555 153.776Z" fill="white"/>
<path d="M295.936 183.547C310.472 183.547 321.854 170.226 321.854 154.213C321.854 138.199 310.472 124.878 295.936 124.878C281.401 124.878 270.021 138.197 270.021 154.213C270.021 170.228 281.401 183.547 295.936 183.547ZM295.936 171.84C288.31 171.84 281.729 164.135 281.729 154.213C281.729 144.291 288.31 136.585 295.936 136.585C303.561 136.585 310.146 144.291 310.146 154.213C310.146 164.135 303.561 171.84 295.936 171.84Z" fill="#524F75"/>
<path id="popup-eye" d="M293.516 163.534C292.384 164.98 290.71 165.895 288.843 165.895C285.432 165.895 282.669 162.843 282.669 159.079C282.669 155.313 285.432 152.262 288.843 152.262C292.213 152.262 294.948 155.239 295.017 158.941L290.435 159.676L293.516 163.534Z" fill="#232323"/>
<path d="M246.732 195.122C266.794 195.122 282.829 177.54 282.829 156.098C282.829 134.656 266.794 117.073 246.732 117.073C226.669 117.073 210.634 134.66 210.634 156.098C210.634 177.536 226.669 195.122 246.732 195.122ZM246.732 183.415C233.389 183.415 222.342 171.3 222.342 156.098C222.342 140.896 233.389 128.781 246.732 128.781C260.074 128.781 271.122 140.898 271.122 156.098C271.122 171.298 260.074 183.415 246.732 183.415Z" fill="#524F75"/>
<path id="popup-eye" d="M245.573 166.377C243.965 168.447 241.583 169.756 238.927 169.756C234.078 169.756 230.146 165.39 230.146 160C230.146 154.611 234.078 150.244 238.927 150.244C243.717 150.244 247.612 154.506 247.707 159.801L241.198 160.853L245.573 166.377Z" fill="#232323"/>
</svg>
