<svg width="32" height="32" viewBox="0 0 32 32" fill="none" xmlns="http://www.w3.org/2000/svg">
<path d="M1.49837 1.4979L1.49837 1.4979L1.49793 1.49834C1.09998 1.89678 0.876465 2.43688 0.876465 3.00001C0.876465 3.56313 1.09998 4.10324 1.49793 4.50167L1.49815 4.50189L12.9963 16L1.49815 27.4981L1.49191 27.5044L1.4859 27.5108C1.11054 27.9136 0.906187 28.4464 0.9159 28.997C0.925614 29.5475 1.14863 30.0727 1.53797 30.4621C1.92731 30.8514 2.45256 31.0744 3.00308 31.0841C3.5536 31.0939 4.0864 30.8895 4.48923 30.5141L4.49568 30.5081L4.50192 30.5019L16 19.0038L27.4923 30.4961C27.6856 30.7017 27.9179 30.8667 28.1757 30.9816C28.4364 31.0977 28.7178 31.1602 29.0031 31.1652C29.2884 31.1702 29.5718 31.1178 29.8364 31.0109C30.101 30.904 30.3414 30.7449 30.5432 30.5431C30.745 30.3414 30.904 30.101 31.0109 29.8364C31.1178 29.5718 31.1703 29.2884 31.1652 29.0031C31.1602 28.7177 31.0978 28.4363 30.9816 28.1757C30.8667 27.9179 30.7017 27.6856 30.4961 27.4923L19.0038 16L30.4961 4.5077C30.7017 4.31443 30.8667 4.08213 30.9816 3.82434C31.0978 3.56367 31.1602 3.28228 31.1652 2.99696C31.1703 2.71164 31.1178 2.42822 31.0109 2.16362C30.904 1.89902 30.745 1.65866 30.5432 1.45687C30.3414 1.25508 30.101 1.09601 29.8364 0.989131C29.5718 0.882255 29.2884 0.829769 29.0031 0.834803C28.7178 0.839838 28.4364 0.902288 28.1757 1.01843C27.9179 1.1333 27.6856 1.29836 27.4923 1.50394L16 12.9962L4.50192 1.49812L4.5017 1.4979C4.10326 1.09996 3.56316 0.876437 3.00004 0.876437C2.43691 0.876437 1.89681 1.09996 1.49837 1.4979Z" fill="white" stroke="black"/>
</svg>
