<svg width="52" height="52" viewBox="0 0 52 52" fill="none" xmlns="http://www.w3.org/2000/svg">
<path d="M25.9999 11.9181L24.8291 13.045C25.1354 13.3632 25.5581 13.5431 25.9999 13.5431C26.4417 13.5431 26.8644 13.3632 27.1708 13.045L25.9999 11.9181ZM20.423 39.6975C17.1391 37.1088 13.5482 34.5807 10.6995 31.373C7.90656 28.2278 5.95825 24.5581 5.95825 19.7971H2.70825C2.70825 25.5724 5.11434 29.9783 8.26948 33.5309C11.3689 37.021 15.3199 39.813 18.411 42.2498L20.423 39.6975ZM5.95825 19.7971C5.95825 15.1369 8.59155 11.2288 12.186 9.5858C15.6781 7.98959 20.3702 8.41231 24.8291 13.045L27.1708 10.7912C21.88 5.29434 15.7388 4.3884 10.8349 6.62996C6.03346 8.82471 2.70825 13.921 2.70825 19.7971H5.95825ZM18.411 42.2498C19.5208 43.1247 20.7123 44.0577 21.9197 44.7632C23.1267 45.4684 24.5041 46.0417 25.9999 46.0417V42.7917C25.3291 42.7917 24.5398 42.5302 23.5594 41.9571C22.5794 41.3845 21.5628 40.596 20.423 39.6975L18.411 42.2498ZM33.5889 42.2498C36.6798 39.813 40.631 37.021 43.7304 33.5309C46.8855 29.9783 49.2916 25.5724 49.2916 19.7971H46.0416C46.0416 24.5581 44.0933 28.2278 41.3003 31.373C38.4515 34.5807 34.8607 37.1088 31.5769 39.6975L33.5889 42.2498ZM49.2916 19.7971C49.2916 13.921 45.9664 8.82471 41.1649 6.62996C36.261 4.3884 30.1198 5.29434 24.8291 10.7912L27.1708 13.045C31.6296 8.41231 36.3217 7.98959 39.8137 9.5858C43.4082 11.2288 46.0416 15.1369 46.0416 19.7971H49.2916ZM31.5769 39.6975C30.437 40.596 29.4204 41.3845 28.4405 41.9571C27.46 42.5302 26.6707 42.7917 25.9999 42.7917V46.0417C27.4958 46.0417 28.8731 45.4684 30.0802 44.7632C31.2877 44.0577 32.4789 43.1247 33.5889 42.2498L31.5769 39.6975Z" fill="white"/>
</svg>
