<svg viewBox="0 0 32 29" fill="none" xmlns="http://www.w3.org/2000/svg">
<path d="M2.49976 14.375V14.125H2.24976H1.17995L0.543908 12.2169L15.9998 0.625L31.4556 12.2169L30.8196 14.125H29.7498H29.4998V14.375V28.5H2.49976V14.375ZM4.49976 26.25V26.5H4.74976H10.9999H11.2499V26.25V18.9924L12.3534 17.8888H19.6464L20.7499 18.9924V26.25V26.5H20.9999H27.2498H27.4998V26.25V11.875V11.75L27.3998 11.675L16.1498 3.2375L15.9998 3.125L15.8498 3.2375L4.59976 11.675L4.49976 11.75V11.875V26.25ZM13.2499 26.25V26.5H13.4999H18.4999H18.7499V26.25V20.1388V19.8888H18.4999H13.4999H13.2499V20.1388V26.25Z" fill="white" stroke="black" stroke-width="0.5"/>
</svg>
