<svg viewBox="0 0 40 42" fill="none" xmlns="http://www.w3.org/2000/svg">
<path d="M14.787 3.53667C14.982 2.36233 16.0004 1.5 17.192 1.5H22.8102C24.0019 1.5 25.0202 2.36233 25.2152 3.53667L25.6767 6.31217C25.8132 7.1225 26.3549 7.7985 27.0742 8.19717C27.2345 8.28383 27.3927 8.377 27.5509 8.47233C28.255 8.897 29.1109 9.02917 29.88 8.741L32.5169 7.753C33.0572 7.54978 33.6522 7.54495 34.1958 7.73938C34.7394 7.9338 35.1963 8.31485 35.4852 8.81467L38.2932 13.6832C38.5815 14.183 38.6831 14.769 38.5799 15.3367C38.4768 15.9044 38.1756 16.4172 37.7299 16.7837L35.5567 18.5755C34.9219 19.0977 34.6077 19.9037 34.625 20.7248C34.6281 20.909 34.6281 21.0932 34.625 21.2773C34.6077 22.0963 34.9219 22.9023 35.5567 23.4245L37.732 25.2163C38.6507 25.9747 38.889 27.2855 38.2954 28.3147L35.483 33.1832C35.1945 33.6829 34.7381 34.064 34.195 34.2588C33.6518 34.4536 33.0572 34.4495 32.5169 34.247L29.88 33.259C29.1109 32.9708 28.255 33.103 27.5487 33.5277C27.3916 33.6232 27.2327 33.7157 27.072 33.805C26.3549 34.2015 25.8132 34.8775 25.6767 35.6878L25.2152 38.4633C25.0202 39.6398 24.0019 40.5 22.8102 40.5H17.1899C15.9982 40.5 14.982 39.6377 14.7849 38.4633L14.3234 35.6878C14.189 34.8775 13.6474 34.2015 12.928 33.8028C12.7674 33.7142 12.6085 33.6225 12.4514 33.5277C11.7472 33.103 10.8914 32.9708 10.12 33.259L7.4832 34.247C6.94312 34.4496 6.34866 34.4542 5.80555 34.2598C5.26244 34.0654 4.80588 33.6847 4.51704 33.1853L1.70687 28.3168C1.41858 27.817 1.31697 27.231 1.42013 26.6633C1.52328 26.0956 1.82451 25.5828 2.2702 25.2163L4.44554 23.4245C5.07821 22.9045 5.39237 22.0963 5.3772 21.2773C5.37382 21.0932 5.37382 20.909 5.3772 20.7248C5.39237 19.9015 5.07821 19.0977 4.44554 18.5755L2.2702 16.7837C1.82504 16.4173 1.52417 15.9049 1.42103 15.3377C1.31789 14.7704 1.41917 14.185 1.70687 13.6853L4.51704 8.81683C4.80561 8.31663 5.2624 7.93512 5.80602 7.74029C6.34963 7.54547 6.94476 7.54997 7.48537 7.753L10.12 8.741C10.8914 9.02917 11.7472 8.897 12.4514 8.47233C12.6074 8.377 12.7677 8.286 12.928 8.195C13.6474 7.7985 14.189 7.1225 14.3234 6.31217L14.787 3.53667Z" fill="white"/>
<path d="M14.787 3.53667C14.982 2.36233 16.0004 1.5 17.192 1.5H22.8102C24.0019 1.5 25.0202 2.36233 25.2152 3.53667L25.6767 6.31217C25.8132 7.1225 26.3549 7.7985 27.0742 8.19717C27.2345 8.28383 27.3927 8.377 27.5509 8.47233C28.255 8.897 29.1109 9.02917 29.88 8.741L32.5169 7.753C33.0572 7.54978 33.6522 7.54495 34.1958 7.73938C34.7394 7.9338 35.1963 8.31485 35.4852 8.81467L38.2932 13.6832C38.5815 14.183 38.6831 14.769 38.5799 15.3367C38.4768 15.9044 38.1756 16.4172 37.7299 16.7837L35.5567 18.5755C34.9219 19.0977 34.6077 19.9037 34.625 20.7248C34.6281 20.909 34.6281 21.0932 34.625 21.2773C34.6077 22.0963 34.9219 22.9023 35.5567 23.4245L37.732 25.2163C38.6507 25.9747 38.889 27.2855 38.2954 28.3147L35.483 33.1832C35.1945 33.6829 34.7381 34.064 34.195 34.2588C33.6518 34.4536 33.0572 34.4495 32.5169 34.247L29.88 33.259C29.1109 32.9708 28.255 33.103 27.5487 33.5277C27.3916 33.6232 27.2327 33.7157 27.072 33.805C26.3549 34.2015 25.8132 34.8775 25.6767 35.6878L25.2152 38.4633C25.0202 39.6398 24.0019 40.5 22.8102 40.5H17.1899C15.9982 40.5 14.982 39.6377 14.7849 38.4633L14.3234 35.6878C14.189 34.8775 13.6474 34.2015 12.928 33.8028C12.7674 33.7142 12.6085 33.6225 12.4514 33.5277C11.7472 33.103 10.8914 32.9708 10.12 33.259L7.4832 34.247C6.94312 34.4496 6.34866 34.4542 5.80555 34.2598C5.26244 34.0654 4.80588 33.6847 4.51704 33.1853L1.70687 28.3168C1.41858 27.817 1.31697 27.231 1.42013 26.6633C1.52328 26.0956 1.82451 25.5828 2.2702 25.2163L4.44554 23.4245C5.07821 22.9045 5.39237 22.0963 5.3772 21.2773C5.37382 21.0932 5.37382 20.909 5.3772 20.7248C5.39237 19.9015 5.07821 19.0977 4.44554 18.5755L2.2702 16.7837C1.82504 16.4173 1.52417 15.9049 1.42103 15.3377C1.31789 14.7704 1.41917 14.185 1.70687 13.6853L4.51704 8.81683C4.80561 8.31663 5.2624 7.93512 5.80602 7.74029C6.34963 7.54547 6.94476 7.54997 7.48537 7.753L10.12 8.741C10.8914 9.02917 11.7472 8.897 12.4514 8.47233C12.6074 8.377 12.7677 8.286 12.928 8.195C13.6474 7.7985 14.189 7.1225 14.3234 6.31217L14.787 3.53667Z" stroke="black" stroke-width="1.5" stroke-linecap="round" stroke-linejoin="round"/>
<path d="M14.787 3.53667C14.982 2.36233 16.0004 1.5 17.192 1.5H22.8102C24.0019 1.5 25.0202 2.36233 25.2152 3.53667L25.6767 6.31217C25.8132 7.1225 26.3549 7.7985 27.0742 8.19717C27.2345 8.28383 27.3927 8.377 27.5509 8.47233C28.255 8.897 29.1109 9.02917 29.88 8.741L32.5169 7.753C33.0572 7.54978 33.6522 7.54495 34.1958 7.73938C34.7394 7.9338 35.1963 8.31485 35.4852 8.81467L38.2932 13.6832C38.5815 14.183 38.6831 14.769 38.5799 15.3367C38.4768 15.9044 38.1756 16.4172 37.7299 16.7837L35.5567 18.5755C34.9219 19.0977 34.6077 19.9037 34.625 20.7248C34.6281 20.909 34.6281 21.0932 34.625 21.2773C34.6077 22.0963 34.9219 22.9023 35.5567 23.4245L37.732 25.2163C38.6507 25.9747 38.889 27.2855 38.2954 28.3147L35.483 33.1832C35.1945 33.6829 34.7381 34.064 34.195 34.2588C33.6518 34.4536 33.0572 34.4495 32.5169 34.247L29.88 33.259C29.1109 32.9708 28.255 33.103 27.5487 33.5277C27.3916 33.6232 27.2327 33.7157 27.072 33.805C26.3549 34.2015 25.8132 34.8775 25.6767 35.6878L25.2152 38.4633C25.0202 39.6398 24.0019 40.5 22.8102 40.5H17.1899C15.9982 40.5 14.982 39.6377 14.7849 38.4633L14.3234 35.6878C14.189 34.8775 13.6474 34.2015 12.928 33.8028C12.7674 33.7142 12.6085 33.6225 12.4514 33.5277C11.7472 33.103 10.8914 32.9708 10.12 33.259L7.4832 34.247C6.94312 34.4496 6.34866 34.4542 5.80555 34.2598C5.26244 34.0654 4.80588 33.6847 4.51704 33.1853L1.70687 28.3168C1.41858 27.817 1.31697 27.231 1.42013 26.6633C1.52328 26.0956 1.82451 25.5828 2.2702 25.2163L4.44554 23.4245C5.07821 22.9045 5.39237 22.0963 5.3772 21.2773C5.37382 21.0932 5.37382 20.909 5.3772 20.7248C5.39237 19.9015 5.07821 19.0977 4.44554 18.5755L2.2702 16.7837C1.82504 16.4173 1.52417 15.9049 1.42103 15.3377C1.31789 14.7704 1.41917 14.185 1.70687 13.6853L4.51704 8.81683C4.80561 8.31663 5.2624 7.93512 5.80602 7.74029C6.34963 7.54547 6.94476 7.54997 7.48537 7.753L10.12 8.741C10.8914 9.02917 11.7472 8.897 12.4514 8.47233C12.6074 8.377 12.7677 8.286 12.928 8.195C13.6474 7.7985 14.189 7.1225 14.3234 6.31217L14.787 3.53667Z" stroke="black" stroke-opacity="0.2" stroke-width="1.5" stroke-linecap="round" stroke-linejoin="round"/>
<path d="M26.5 21C26.5 22.7239 25.8152 24.3772 24.5962 25.5962C23.3772 26.8152 21.7239 27.5 20 27.5C18.2761 27.5 16.6228 26.8152 15.4038 25.5962C14.1848 24.3772 13.5 22.7239 13.5 21C13.5 19.2761 14.1848 17.6228 15.4038 16.4038C16.6228 15.1848 18.2761 14.5 20 14.5C21.7239 14.5 23.3772 15.1848 24.5962 16.4038C25.8152 17.6228 26.5 19.2761 26.5 21Z" fill="#D73035" stroke="black" stroke-width="1.5" stroke-linecap="round" stroke-linejoin="round"/>
</svg>
