<svg width="44" height="36" viewBox="0 0 44 36" fill="none" xmlns="http://www.w3.org/2000/svg">
<path fill-rule="evenodd" clip-rule="evenodd" d="M19.8984 0.601702C20.2027 0.90639 20.3736 1.31941 20.3736 1.75003C20.3736 2.18066 20.2027 2.59368 19.8984 2.89837L6.4217 16.375H41.5C41.931 16.375 42.3443 16.5462 42.6491 16.851C42.9538 17.1557 43.125 17.5691 43.125 18C43.125 18.431 42.9538 18.8443 42.6491 19.1491C42.3443 19.4538 41.931 19.625 41.5 19.625H6.4217L19.8984 33.1017C20.058 33.2505 20.1861 33.4299 20.2749 33.6292C20.3637 33.8285 20.4115 34.0437 20.4153 34.2619C20.4192 34.4801 20.379 34.6968 20.2973 34.8992C20.2156 35.1015 20.0939 35.2853 19.9396 35.4396C19.7853 35.5939 19.6015 35.7156 19.3992 35.7973C19.1968 35.879 18.9801 35.9192 18.7619 35.9153C18.5437 35.9115 18.3285 35.8637 18.1292 35.7749C17.9299 35.6861 17.7505 35.558 17.6017 35.3984L1.3517 19.1484C1.04739 18.8437 0.876465 18.4307 0.876465 18C0.876465 17.5694 1.04739 17.1564 1.3517 16.8517L17.6017 0.601702C17.9064 0.297392 18.3194 0.126465 18.75 0.126465C19.1807 0.126465 19.5937 0.297392 19.8984 0.601702Z" fill="white"/>
</svg>
