<svg width="40" height="40" viewBox="0 0 40 40" fill="none" xmlns="http://www.w3.org/2000/svg">
<path d="M39.2079 8.79296C40.0497 11.3186 39.0719 14.576 36.2057 18.6755C36.3068 17.0768 36.3397 15.7116 36.2769 14.5486C36.1926 12.9877 35.9342 11.7455 35.401 10.7769C34.301 8.77894 32.1611 8.15544 28.8746 7.93536L28.3411 7.89964V8.43425V32.373V32.3986L28.3438 32.4241C28.3543 32.5266 28.3574 32.6343 28.3574 32.7572C28.3574 34.137 27.6298 35.5634 26.3781 36.7469C25.1305 37.9264 23.3976 38.8274 21.4805 39.159C19.5621 39.4909 17.8654 39.1827 16.6672 38.4637C15.479 37.7507 14.7741 36.6357 14.7741 35.2767C14.7741 33.3833 16.0872 31.5354 17.9298 30.2974C19.7751 29.0577 21.9892 28.5397 23.633 29.1175L24.2987 29.3516L24.2988 28.6459L24.302 0.705078H28.3411V1.88802V2.28648L28.7296 2.37541C35.0177 3.81515 38.2765 5.99889 39.2079 8.79296ZM1.85221 14.7214H1.75785C1.05625 14.6728 0.5 14.0871 0.5 13.3691C0.5 12.6231 1.10622 12.0169 1.85221 12.0169H17.3568C18.1028 12.0169 18.709 12.6231 18.709 13.3691C18.709 14.1151 18.1028 14.7214 17.3568 14.7214H1.85221ZM1.85221 5.72396H1.75783C1.05624 5.6754 0.5 5.08965 0.5 4.37175C0.5 3.62575 1.10622 3.01953 1.85221 3.01953H17.3568C18.1028 3.01953 18.709 3.62575 18.709 4.37175C18.709 5.11774 18.1028 5.72396 17.3568 5.72396H1.85221ZM1.85221 23.722C1.10622 23.722 0.5 23.1158 0.5 22.3698C0.5 21.6238 1.10622 21.0176 1.85221 21.0176H17.3568C18.1028 21.0176 18.709 21.6238 18.709 22.3698C18.709 23.1158 18.1028 23.722 17.3568 23.722H1.85221Z" fill="white" stroke="black"/>
</svg>
