<svg viewBox="0 0 80 76" fill="none" xmlns="http://www.w3.org/2000/svg">
<path d="M80 67.1109C80 40.4442 75.5556 4.88867 40 4.88867C4.44444 4.88867 0 40.4442 0 67.1109H17.7778V55.9998C17.7778 53.7776 20 53.7776 20 55.9998C20 71.5553 28.8889 69.3331 28.8889 69.3331L33.3333 73.7776L35.5556 71.5553C35.5556 70.3287 38.7733 69.3331 40 69.3331C41.2267 69.3331 44.4444 70.3287 44.4444 71.5553L46.6667 73.7776L51.1111 69.3331C51.1111 69.3331 60 71.5553 60 55.9998C60 53.7776 62.2222 53.7776 62.2222 55.9998V67.1109H80Z" fill="#CC5050"/>
<path d="M39.9999 51.5554C54.1138 51.5554 65.5554 40.1138 65.5554 25.9999C65.5554 11.8859 54.1138 0.444336 39.9999 0.444336C25.8859 0.444336 14.4443 11.8859 14.4443 25.9999C14.4443 40.1138 25.8859 51.5554 39.9999 51.5554Z" fill="#CC5050"/>
<path d="M71.1111 64.8887C64.4444 64.8887 62.2222 67.1109 62.2222 67.1109V69.3331C62.2222 69.9225 62.4563 70.4877 62.8731 70.9045C63.2898 71.3212 63.8551 71.5553 64.4444 71.5553C65.0338 71.5553 65.5991 71.3212 66.0158 70.9045C66.4325 70.4877 66.6667 69.9225 66.6667 69.3331C66.6667 69.9225 66.9008 70.4877 67.3175 70.9045C67.7343 71.3212 68.2995 71.5553 68.8889 71.5553C69.4783 71.5553 70.0435 71.3212 70.4602 70.9045C70.877 70.4877 71.1111 69.9225 71.1111 69.3331C71.1111 69.9225 71.3452 70.4877 71.762 70.9045C72.1787 71.3212 72.744 71.5553 73.3333 71.5553C73.9227 71.5553 74.4879 71.3212 74.9047 70.9045C75.3214 70.4877 75.5556 69.9225 75.5556 69.3331C75.5556 69.9225 75.7897 70.4877 76.2064 70.9045C76.6232 71.3212 77.1884 71.5553 77.7778 71.5553C78.3672 71.5553 78.9324 71.3212 79.3491 70.9045C79.7659 70.4877 80 69.9225 80 69.3331V67.1109C80 67.1109 77.7778 64.8887 71.1111 64.8887ZM8.88889 64.8887C2.22222 64.8887 0 67.1109 0 67.1109V69.3331C0 69.9225 0.234126 70.4877 0.650874 70.9045C1.06762 71.3212 1.63285 71.5553 2.22222 71.5553C2.81159 71.5553 3.37682 71.3212 3.79357 70.9045C4.21032 70.4877 4.44444 69.9225 4.44444 69.3331C4.44444 69.9225 4.67857 70.4877 5.09532 70.9045C5.51207 71.3212 6.0773 71.5553 6.66667 71.5553C7.25604 71.5553 7.82127 71.3212 8.23802 70.9045C8.65476 70.4877 8.88889 69.9225 8.88889 69.3331C8.88889 69.9225 9.12302 70.4877 9.53976 70.9045C9.95651 71.3212 10.5217 71.5553 11.1111 71.5553C11.7005 71.5553 12.2657 71.3212 12.6825 70.9045C13.0992 70.4877 13.3333 69.9225 13.3333 69.3331C13.3333 69.9225 13.5675 70.4877 13.9842 70.9045C14.401 71.3212 14.9662 71.5553 15.5556 71.5553C16.1449 71.5553 16.7102 71.3212 17.1269 70.9045C17.5437 70.4877 17.7778 69.9225 17.7778 69.3331V67.1109C17.7778 67.1109 15.5556 64.8887 8.88889 64.8887Z" fill="#D9B981"/>
<path d="M14.4443 39.5709C14.4443 51.6687 31.4821 55.9998 39.9999 55.9998C48.5177 55.9998 65.5554 51.6687 65.5554 39.5709C65.5554 34.3131 63.391 29.4909 59.7888 25.7153C59.8399 25.1731 59.8777 24.6242 59.8777 24.0553C59.8754 13.4709 55.3332 4.88867 39.9999 4.88867C24.6666 4.88867 20.1243 13.4709 20.1243 24.0553C20.1243 24.6242 20.1621 25.1731 20.2132 25.7153C16.6088 29.4909 14.4443 34.3131 14.4443 39.5709Z" fill="#A54242"/>
<path d="M17.7778 35.0464C17.7778 45.5664 32.5934 49.3331 40.0001 49.3331C47.4067 49.3331 62.2223 45.5664 62.2223 35.0464C62.2223 30.4753 60.3401 26.282 57.2067 22.9976C57.2512 22.5264 57.2845 22.0487 57.2845 21.5531C57.2845 12.3509 53.3334 4.88867 40.0001 4.88867C26.6667 4.88867 22.7156 12.3509 22.7156 21.5553C22.7156 22.0509 22.7489 22.5287 22.7934 22.9998C19.6601 26.282 17.7778 30.4753 17.7778 35.0464Z" fill="#D9B981"/>
<path id="gutan-eye" d="M35.5557 22.6666C36.783 22.6666 37.7779 21.6717 37.7779 20.4444C37.7779 19.2171 36.783 18.2222 35.5557 18.2222C34.3284 18.2222 33.3335 19.2171 33.3335 20.4444C33.3335 21.6717 34.3284 22.6666 35.5557 22.6666Z" fill="#292F33"/>
<path id="gutan-eye" d="M44.4444 22.6666C45.6717 22.6666 46.6666 21.6717 46.6666 20.4444C46.6666 19.2171 45.6717 18.2222 44.4444 18.2222C43.2171 18.2222 42.2222 19.2171 42.2222 20.4444C42.2222 21.6717 43.2171 22.6666 44.4444 22.6666Z" fill="#292F33"/>
<path d="M28.1554 20.6065C27.9856 20.6066 27.818 20.5677 27.6656 20.4929C27.5132 20.4181 27.3799 20.3094 27.276 20.1751C27.1722 20.0407 27.1005 19.8844 27.0665 19.718C27.0325 19.5517 27.037 19.3798 27.0798 19.2154C27.6047 17.2217 28.8981 15.5171 30.6769 14.4746C32.4556 13.4322 34.5749 13.1368 36.5709 13.6532C36.7159 13.6865 36.8526 13.7486 36.9732 13.8357C37.0937 13.9229 37.1955 14.0333 37.2725 14.1605C37.3495 14.2878 37.4003 14.4291 37.4216 14.5763C37.443 14.7235 37.4347 14.8735 37.397 15.0173C37.3594 15.1612 37.2932 15.2961 37.2025 15.4139C37.1118 15.5318 36.9983 15.6302 36.8688 15.7034C36.7394 15.7766 36.5965 15.823 36.4488 15.84C36.301 15.8569 36.1514 15.8441 36.0087 15.8021C34.5831 15.4333 33.0695 15.6444 31.7992 16.389C30.5289 17.1337 29.6055 18.3514 29.2309 19.7754C29.1686 20.0133 29.0293 20.2238 28.8347 20.3742C28.6401 20.5245 28.4013 20.6062 28.1554 20.6065ZM51.8442 20.6065C51.5984 20.6069 51.3595 20.5254 51.1652 20.3749C50.9708 20.2244 50.8321 20.0135 50.7709 19.7754C50.5884 19.0689 50.2676 18.4056 49.827 17.8239C49.3865 17.2422 48.8349 16.7536 48.2042 16.3865C47.5759 16.0143 46.8797 15.7711 46.1562 15.6711C45.4328 15.5711 44.6966 15.6164 43.9909 15.8043C43.8498 15.8411 43.7029 15.8497 43.5584 15.8297C43.414 15.8097 43.2749 15.7614 43.1492 15.6876C42.8951 15.5386 42.7107 15.2948 42.6365 15.0099C42.5622 14.7249 42.6042 14.4221 42.7532 14.1681C42.9022 13.9141 43.146 13.7297 43.4309 13.6554C44.4187 13.3949 45.4484 13.3328 46.4604 13.4728C47.4723 13.6128 48.4465 13.9521 49.3265 14.471C50.2097 14.9848 50.982 15.669 51.5985 16.4839C52.2149 17.2987 52.6633 18.228 52.9176 19.2177C52.9599 19.3816 52.9642 19.5531 52.9301 19.719C52.896 19.8849 52.8245 20.0409 52.7209 20.1749C52.6174 20.3089 52.4845 20.4174 52.3326 20.4923C52.1806 20.5671 52.0136 20.6062 51.8442 20.6065Z" fill="#FFE8B6"/>
<path d="M28.8887 7.11089L33.3331 13.7776L35.5553 11.5553L39.9998 18.222L44.4442 11.5553L46.6664 13.7776L51.1109 7.11089C51.1109 7.11089 46.6664 4.88867 39.9998 4.88867C33.3331 4.88867 28.8887 7.11089 28.8887 7.11089Z" fill="#BC5959"/>
<path d="M28.8887 7.11095L33.3331 11.5554L35.5553 7.11095L39.9998 13.7776L44.4442 7.11095L46.6664 11.5554L51.1109 7.11095C51.1109 7.11095 46.6664 2.6665 39.9998 2.6665C33.3331 2.6665 28.8887 7.11095 28.8887 7.11095Z" fill="#CC5050"/>
<path d="M38.8889 27.1109C39.5026 27.1109 40.0001 26.6134 40.0001 25.9998C40.0001 25.3861 39.5026 24.8887 38.8889 24.8887C38.2753 24.8887 37.7778 25.3861 37.7778 25.9998C37.7778 26.6134 38.2753 27.1109 38.8889 27.1109Z" fill="#C09154"/>
<path d="M41.1111 27.1109C41.7248 27.1109 42.2222 26.6134 42.2222 25.9998C42.2222 25.3861 41.7248 24.8887 41.1111 24.8887C40.4975 24.8887 40 25.3861 40 25.9998C40 26.6134 40.4975 27.1109 41.1111 27.1109Z" fill="#C09154"/>
<path d="M40.0001 42.6666C31.8557 42.6666 28.2535 39.1578 28.1024 39.0089C27.8993 38.7999 27.7864 38.5195 27.7881 38.2281C27.7898 37.9368 27.9058 37.6577 28.1113 37.4511C28.3168 37.2445 28.5952 37.1268 28.8865 37.1235C29.1779 37.1202 29.4589 37.2314 29.669 37.4333C29.7001 37.4622 32.8512 40.4444 40.0001 40.4444C47.1512 40.4444 50.3001 37.4622 50.329 37.4311C50.5399 37.2268 50.8226 37.1138 51.1162 37.1163C51.4098 37.1187 51.6905 37.2366 51.8979 37.4444C52.1043 37.6521 52.2199 37.9332 52.2195 38.226C52.2191 38.5188 52.1027 38.7995 51.8957 39.0066C51.7468 39.1578 48.1446 42.6666 40.0001 42.6666Z" fill="#292F33"/>
<path id="gutan-foots" d="M38.4333 69.3335C37.9111 74.2757 27.3222 78.2224 25.1 73.7779C24.5511 72.6802 19.8978 62.809 19.4667 61.6602C19.3644 61.3869 19.3169 61.0961 19.327 60.8045C19.3371 60.5128 19.4045 60.226 19.5254 59.9605C19.6464 59.6949 19.8184 59.4557 20.0318 59.2566C20.2451 59.0576 20.4956 58.9024 20.7689 58.8002C21.0422 58.6979 21.3329 58.6504 21.6246 58.6605C21.9162 58.6706 22.203 58.738 22.4686 58.8589C22.7342 58.9799 22.9733 59.1519 23.1724 59.3653C23.3715 59.5786 23.5266 59.8291 23.6289 60.1024C23.5266 59.8291 23.4791 59.5383 23.4892 59.2467C23.4993 58.955 23.5667 58.6683 23.6877 58.4027C23.8086 58.1371 23.9806 57.8979 24.194 57.6989C24.4073 57.4998 24.6578 57.3447 24.9311 57.2424C25.2044 57.1401 25.4952 57.0926 25.7868 57.1027C26.0784 57.1128 26.3652 57.1802 26.6308 57.3012C26.8964 57.4221 27.1355 57.5941 27.3346 57.8075C27.5337 58.0208 27.6888 58.2713 27.7911 58.5446C27.6888 58.2713 27.6414 57.9805 27.6515 57.6889C27.6615 57.3973 27.729 57.1105 27.8499 56.8449C27.9708 56.5793 28.1429 56.3402 28.3562 56.1411C28.5696 55.942 28.82 55.7869 29.0933 55.6846C29.3666 55.5823 29.6574 55.5349 29.949 55.5449C30.2407 55.555 30.5275 55.6225 30.793 55.7434C31.0586 55.8643 31.2978 56.0364 31.4968 56.2497C31.6959 56.4631 31.851 56.7135 31.9533 56.9868C31.7468 56.4349 31.7679 55.8235 32.0121 55.2871C32.2563 54.7508 32.7036 54.3334 33.2556 54.1268C33.8075 53.9202 34.4189 53.9414 34.9553 54.1856C35.4916 54.4298 35.909 54.8771 36.1156 55.429C36.5444 56.5713 38.6667 67.1246 38.4333 69.3335ZM41.5667 69.3335C42.0889 74.2757 52.6778 78.2224 54.9 73.7779C55.4489 72.6802 60.1022 62.809 60.5333 61.6602C60.7399 61.1082 60.7188 60.4968 60.4745 59.9605C60.2303 59.4241 59.7831 59.0067 59.2311 58.8002C58.6792 58.5936 58.0678 58.6147 57.5314 58.8589C56.9951 59.1032 56.5777 59.5504 56.3711 60.1024C56.4734 59.8291 56.5208 59.5383 56.5108 59.2467C56.5007 58.955 56.4332 58.6683 56.3123 58.4027C56.1914 58.1371 56.0194 57.8979 55.806 57.6989C55.5927 57.4998 55.3422 57.3447 55.0689 57.2424C54.7956 57.1401 54.5048 57.0926 54.2132 57.1027C53.9216 57.1128 53.6348 57.1802 53.3692 57.3012C53.1036 57.4221 52.8645 57.5941 52.6654 57.8075C52.4663 58.0208 52.3112 58.2713 52.2089 58.5446C52.3112 58.2713 52.3586 57.9805 52.3485 57.6889C52.3385 57.3973 52.271 57.1105 52.1501 56.8449C52.0292 56.5793 51.8571 56.3402 51.6438 56.1411C51.4304 55.942 51.18 55.7869 50.9067 55.6846C50.6334 55.5823 50.3426 55.5349 50.051 55.5449C49.7593 55.555 49.4725 55.6225 49.207 55.7434C48.9414 55.8643 48.7022 56.0364 48.5031 56.2497C48.3041 56.4631 48.149 56.7135 48.0467 56.9868C48.2532 56.4349 48.2321 55.8235 47.9879 55.2871C47.7437 54.7508 47.2964 54.3334 46.7444 54.1268C46.1925 53.9202 45.5811 53.9414 45.0447 54.1856C44.5084 54.4298 44.091 54.8771 43.8844 55.429C43.4556 56.5713 41.3333 67.1246 41.5667 69.3335Z" fill="#D9B981"/>
</svg>
