<svg viewBox="0 0 48 44" fill="none" xmlns="http://www.w3.org/2000/svg">
<path d="M0.750016 22.0004C0.750045 23.9909 1.01827 25.9205 1.52635 27.7555C2.33799 30.7062 5.12546 32.25 7.76952 32.25H11.7441L21.3476 41.8536C23.7098 44.2158 27.75 42.5439 27.75 39.2034V4.79671C27.75 1.45674 23.7102 -0.216114 21.3498 2.14649C21.3497 2.14655 21.3497 2.14661 21.3496 2.14667L11.7462 11.75H7.76735C5.1233 11.75 2.33578 13.2917 1.52199 16.2447L1.52184 16.2452C1.00727 18.1202 0.747656 20.056 0.750016 22.0004ZM0.750016 22.0004C0.750016 22.0003 0.750016 22.0001 0.750016 22H1.25002L0.750016 22.0007C0.750016 22.0006 0.750016 22.0005 0.750016 22.0004ZM37.912 6.70926L37.9116 6.7097C37.5136 7.10814 37.2901 7.64825 37.2901 8.21137C37.2901 8.7745 37.5136 9.3146 37.9116 9.71304L37.9118 9.71328C39.5255 11.3267 40.8055 13.2422 41.6788 15.3504C42.5521 17.4586 43.0016 19.7181 43.0016 22C43.0016 24.2819 42.5521 26.5415 41.6788 28.6497C40.8055 30.7578 39.5255 32.6733 37.9118 34.2868L37.9056 34.293L37.8995 34.2995C37.5242 34.7023 37.3198 35.2351 37.3295 35.7857C37.3393 36.3362 37.5623 36.8614 37.9516 37.2508C38.341 37.6401 38.8662 37.8631 39.4167 37.8728C39.9672 37.8825 40.5 37.6782 40.9029 37.3028L40.9093 37.2968L40.9156 37.2906C49.3615 28.8447 49.3615 15.1532 40.9155 6.70944L40.9153 6.70926C40.5169 6.31132 39.9768 6.0878 39.4137 6.0878C38.8506 6.0878 38.3105 6.31132 37.912 6.70926Z" fill="white" stroke="black"/>
<path d="M31.8569 12.8513C31.6555 13.1818 31.5464 13.564 31.5464 13.9574C31.5464 14.5205 31.7699 15.0606 32.1678 15.4591L32.1681 15.4593C33.027 16.3182 33.7084 17.3379 34.1732 18.4602C34.6381 19.5825 34.8774 20.7853 34.8774 22.0001C34.8774 23.2148 34.6381 24.4176 34.1732 25.5399C33.7084 26.6622 33.027 27.6819 32.1681 28.5408L32.168 28.5408L32.1621 28.5469C31.7749 28.9475 31.5604 29.4841 31.565 30.0413C31.5696 30.5985 31.7928 31.1316 32.1866 31.5257C32.5804 31.9199 33.1133 32.1437 33.6705 32.1488C34.2276 32.1539 34.7645 31.9399 35.1655 31.553L35.1655 31.5531L35.1718 31.5468C36.4256 30.2932 37.4203 28.8049 38.0988 27.1668C38.7774 25.5288 39.1267 23.7731 39.1267 22.0001C39.1267 20.227 38.7774 18.4713 38.0988 16.8333C37.4203 15.1953 36.4257 13.707 35.172 12.4534C35.1719 12.4534 35.1719 12.4534 35.1719 12.4534C35.1719 12.4534 35.1718 12.4533 35.1718 12.4533C34.9745 12.2559 34.7402 12.0993 34.4824 11.9925C34.2245 11.8856 33.948 11.8306 33.6689 11.8306C33.3897 11.8306 33.1133 11.8856 32.8554 11.9925C32.5975 12.0993 32.3631 12.256 32.1658 12.4534L31.8125 12.8069L31.8569 12.8513ZM31.8569 12.8513L32.1658 13.1604L32.168 13.1625L32.5216 12.8091L32.5216 12.809L32.5195 12.8069L32.1678 12.4557C32.0479 12.5758 31.9438 12.7087 31.8569 12.8513ZM32.5208 12.8056C32.5441 12.7823 32.5681 12.7597 32.5928 12.7379C32.6947 12.6478 32.8076 12.5709 32.9286 12.509L32.8753 12.4556L32.8731 12.4534L32.5208 12.8056Z" fill="white" stroke="black"/>
</svg>
