<svg  viewBox="0 0 419 566" fill="none" xmlns="http://www.w3.org/2000/svg">
<g id="zebra">
<g id="zebra-ear-right">
<path id="Vector" d="M254.508 145.821C257.577 105.069 273.581 84.4509 271.607 65.8167C268.762 38.9972 247.197 5.94745 233.661 6.23428C220.21 7.23525 203.695 46.1523 206.604 71.5611C208.51 88.205 228.083 109.721 230.426 154.033" fill="#F4F4F4"/>
<path id="Vector_2" d="M235.154 12.0448C231.704 12.4448 225.359 20.0741 220.258 31.7033C214.58 44.6497 211.54 59.5082 212.602 70.4682C212.668 71.1219 212.766 71.8028 212.902 72.5209C213.671 76.515 214.971 79.9414 219.326 90.1092C224.159 101.379 226.653 107.859 229.154 116.552C232.524 128.259 234.532 140.39 235.004 153.703C235.059 155.255 234.495 156.766 233.437 157.902C232.378 159.038 230.912 159.708 229.36 159.763C227.808 159.818 226.298 159.254 225.161 158.196C224.025 157.137 223.356 155.671 223.3 154.119C222.865 141.785 221.012 130.605 217.899 119.791C215.57 111.688 213.217 105.575 208.565 94.7238C203.821 83.6604 202.393 79.9004 201.4 74.7355C201.199 73.6682 201.043 72.6263 200.945 71.5999C198.225 43.5199 216.715 1.36578 234.631 0.347239L234.941 0.337488C252.592 0.273097 275.111 36.7121 277.695 65.9121C278.442 74.3609 276.824 80.9443 271.213 96.995C263.778 118.269 260.822 129.268 259.207 146.659C259.143 147.43 258.926 148.181 258.57 148.867C258.215 149.554 257.726 150.163 257.133 150.66C256.541 151.157 255.855 151.531 255.117 151.762C254.379 151.992 253.602 152.074 252.832 152.002C252.062 151.931 251.313 151.707 250.63 151.345C249.947 150.982 249.342 150.488 248.851 149.891C248.36 149.293 247.992 148.604 247.769 147.864C247.546 147.123 247.471 146.346 247.55 145.577C249.275 126.997 252.436 115.241 260.169 93.1277C265.203 78.7316 266.588 73.1043 266.04 66.9424C264.994 55.1316 259.845 40.9716 252.625 29.2916C246.116 18.759 238.98 12.2146 235.154 12.0428V12.0448Z" fill="#524F75"/>
<path id="Vector_3" d="M245.986 106.437C247.468 85.7171 255.652 75.2683 254.59 65.7873C253.068 52.1405 241.907 35.2839 234.947 35.399C228.036 35.8771 219.636 55.6312 221.191 68.558C222.019 75.4576 228.879 84.0273 232.105 99.1434C232.836 102.589 233.646 104.199 233.89 108.382C234.132 112.564 236.957 118.047 241.545 117.426C243.687 117.138 245.166 113.475 245.986 106.437Z" fill="#F0D2CB"/>
</g>
<path id="Vector_4" d="M402.393 174.96C403.068 170.482 403.927 164.769 403.763 159.78C403.599 154.79 400.1 150.254 394.918 148.769C389.739 147.282 384.018 150.355 381.804 153.471C380.329 155.551 378.028 160.457 374.902 168.189" fill="#9D9BB3"/>
<path id="Vector_5" d="M392.663 174.874C395.584 168.486 396.93 165.169 397.814 161.662C398.423 159.243 397.297 156.515 394.918 155.034C393.022 153.848 389.394 154.258 387.773 155.551C386.266 156.755 382.885 160.626 378.04 166.825C377.568 167.434 376.98 167.943 376.311 168.324C375.641 168.705 374.903 168.95 374.138 169.045C373.374 169.14 372.598 169.084 371.856 168.878C371.113 168.673 370.419 168.323 369.812 167.849C369.205 167.375 368.697 166.785 368.319 166.115C367.94 165.444 367.697 164.705 367.605 163.94C367.512 163.176 367.571 162.4 367.779 161.658C367.986 160.916 368.339 160.223 368.815 159.618C374.241 152.675 377.987 148.384 380.464 146.404C385.785 142.154 394.78 141.141 401.125 145.106C407.773 149.26 411.025 157.132 409.166 164.521C408.048 168.96 406.534 172.689 403.312 179.74C402.662 181.144 401.482 182.232 400.031 182.768C398.58 183.305 396.976 183.245 395.569 182.602C394.162 181.959 393.067 180.785 392.523 179.337C391.978 177.889 392.029 176.285 392.665 174.874H392.663Z" fill="#524F75"/>
<path id="Vector_6" d="M394.522 176.974L395.137 168.267C395.218 167.117 394.861 165.978 394.138 165.079C393.415 164.18 392.379 163.588 391.238 163.421C390.057 163.247 388.852 163.491 387.831 164.111C386.811 164.731 386.039 165.688 385.648 166.816L382.655 175.444C382.381 176.234 382.285 177.074 382.375 177.905C382.465 178.736 382.738 179.536 383.174 180.249C383.61 180.962 384.199 181.569 384.898 182.027C385.597 182.485 386.389 182.782 387.217 182.898C388.09 183.019 388.979 182.959 389.829 182.722C390.678 182.485 391.47 182.076 392.155 181.521C392.84 180.965 393.403 180.275 393.81 179.493C394.218 178.711 394.46 177.853 394.522 176.974Z" fill="#75738E"/>
<path id="Vector_7" d="M186.83 61.649C162.688 71.0676 128.346 92.8998 120.861 122.513C114.984 145.758 113.655 164.137 116.869 177.649C120.637 193.491 139.371 219.6 159.507 260.445C164.348 270.27 169.006 293.009 173.472 328.668L322.364 296.707C295.759 240.625 282.455 198.289 282.455 169.696C282.455 141.103 295.759 114.476 322.364 89.8149C303.929 75.9846 283.88 65.0695 265.373 59.5105C261.787 58.4351 258.156 57.5217 254.489 56.7729L243.858 74.2539C243.528 74.7972 243.069 75.2515 242.523 75.5772C241.977 75.9029 241.359 76.0901 240.724 76.1226C240.089 76.1551 239.456 76.0319 238.879 75.7637C238.302 75.4955 237.8 75.0904 237.415 74.5836L221.974 54.248C216.165 54.5349 210.342 55.2334 204.6 56.3944L204.091 69.2471C204.061 69.9991 203.815 70.7265 203.381 71.3418C202.948 71.957 202.346 72.4338 201.647 72.7146C200.949 72.9955 200.185 73.0684 199.446 72.9247C198.707 72.781 198.026 72.4268 197.484 71.9046L186.83 61.649Z" fill="#F4F4F4"/>
<path id="Vector_8" d="M143.599 230.184C146.862 236.056 150.048 241.972 153.156 247.928C154.848 247.199 156.519 246.423 158.167 245.6C166.016 241.653 174.893 235.407 184.791 226.865L174.666 218.777C161.792 224.461 151.968 228.137 145.197 229.809C144.692 229.936 144.159 230.061 143.599 230.184ZM120.541 187.815C123.295 193.926 127.215 201.085 131.911 209.423C133.266 209.271 134.618 209.094 135.966 208.89C144.811 207.538 155.267 204.492 167.328 199.754L160.196 188.935C147.349 189.399 137.706 189.399 131.269 188.935C128.656 188.746 125.08 188.373 120.541 187.815ZM120.528 123.856C116.965 138.268 115.177 150.777 115.166 161.386C120.935 163.391 125.784 164.759 129.71 165.489C137.991 167.027 149.185 167.027 163.298 165.489L172.934 141.959C156.813 138.888 144.713 135.667 136.635 132.295C132.124 130.412 126.754 127.598 120.528 123.856ZM242.303 75.6998C241.488 76.1184 240.55 76.2363 239.657 76.0325C238.763 75.8287 237.969 75.3164 237.415 74.5856L221.974 54.25C216.165 54.5368 210.342 55.2354 204.6 56.3963L204.091 69.249C204.061 70.001 203.815 70.7285 203.381 71.3437C202.948 71.9589 202.346 72.4357 201.647 72.7166C200.949 72.9974 200.185 73.0704 199.446 72.9267C198.707 72.783 198.026 72.4287 197.484 71.9066L194.588 69.1183C194.692 73.6178 194.908 77.5261 195.238 80.8471C196.196 90.5115 198.877 102.876 203.279 117.94L238.477 111.089C239.209 94.6988 240.452 83.0285 242.206 76.0763L242.303 75.6998ZM292.186 128.777C298.838 115.286 308.895 102.299 322.364 89.8149C312.846 82.6734 302.896 76.3105 292.951 71.0597C286.937 76.0139 282.935 80.3554 280.939 84.0802C277.078 91.2939 271.536 105.397 264.317 126.39L292.186 128.777Z" fill="#8A88A2"/>
<path id="Vector_9" d="M186.83 61.6486L197.486 71.9061C198.027 72.4291 198.709 72.7841 199.448 72.9283C200.187 73.0725 200.952 72.9997 201.651 72.7187C202.349 72.4377 202.951 71.9605 203.385 71.3448C203.818 70.729 204.064 70.001 204.093 69.2486L204.602 56.3959C210.331 55.2468 216.139 54.5293 221.976 54.2495L237.416 74.5851C237.8 75.0919 238.302 75.497 238.879 75.7652C239.456 76.0334 240.089 76.1566 240.724 76.1241C241.359 76.0916 241.977 75.9044 242.523 75.5787C243.069 75.253 243.528 74.7987 243.858 74.2554L254.489 56.7744C258.156 57.5237 261.787 58.4371 265.373 59.512C283.88 65.071 303.929 75.9861 322.364 89.8164C295.759 114.476 282.456 141.102 282.456 169.695C282.456 198.287 295.759 240.624 322.364 296.706L173.472 328.667C169.006 293.009 164.348 270.269 159.507 260.445C139.373 219.598 120.637 193.491 116.869 177.649C113.655 164.136 114.984 145.758 120.861 122.513C128.346 92.8993 162.688 71.0652 186.83 61.6486ZM239.81 58.3783L231.298 47.1686C230.148 45.6525 228.645 44.44 226.919 43.6362C225.194 42.8324 223.299 42.4616 221.398 42.5559C214.904 42.8778 208.508 43.6603 202.284 44.9188C200.359 45.3074 198.563 46.1742 197.061 47.4392C195.559 48.7043 194.399 50.327 193.689 52.1578C192.103 51.0115 190.255 50.281 188.313 50.0332C186.372 49.7854 184.4 50.0282 182.577 50.7393C147.812 64.3022 117.103 89.6173 109.517 119.641C103.217 144.554 101.759 164.698 105.486 180.357C107.49 188.792 111.712 197.418 121.858 215.416C122.978 217.407 127.164 224.796 127.972 226.23C130.214 230.191 132.433 234.164 134.631 238.15C139.884 247.693 144.53 256.531 149.012 265.621C153.066 273.846 157.564 295.807 161.862 330.123C162.064 331.733 162.599 333.284 163.432 334.677C164.265 336.069 165.379 337.274 166.702 338.213C168.026 339.153 169.53 339.807 171.12 340.134C172.709 340.461 174.35 340.454 175.936 340.113L324.826 308.152C332.21 306.568 336.182 298.509 332.947 291.688C307.025 237.05 294.169 196.129 294.169 169.695C294.169 144.605 305.974 120.975 330.329 98.3998C335.685 93.4359 335.238 84.833 329.396 80.4505C309.484 65.5139 288.266 54.1617 268.742 48.2964C264.821 47.1219 260.85 46.1232 256.84 45.3032C254.477 44.8192 252.022 45.0767 249.811 46.0407C247.6 47.0046 245.74 48.6279 244.487 50.6886L239.81 58.3783Z" fill="#524F75"/>
<g id="zebra-tail">
<path id="Vector_10" d="M158.461 399.364C133.667 408.769 112.612 413.469 95.2868 413.469C77.9619 413.469 67.5131 406.197 63.9366 391.659L48.6039 393.657C53.2068 418.088 67.0527 430.621 90.1434 431.259C113.234 431.897 136.009 427.116 158.463 416.925V399.364H158.461Z" fill="#F4F4F4"/>
<path id="Vector_11" d="M152.608 413.108C132.071 421.897 111.318 425.987 90.3013 425.407C72.0164 424.902 60.8008 416.316 55.7705 398.625L59.8252 398.096C65.2145 412.092 77.4271 419.319 95.2867 419.321C111.495 419.321 130.582 415.444 152.608 407.731V413.108ZM156.385 393.893C132.204 403.066 111.812 407.616 95.2886 407.616C80.5335 407.616 72.5198 402.041 69.6223 390.26C69.2783 388.862 68.4313 387.64 67.2431 386.827C66.0548 386.014 64.6088 385.668 63.1813 385.854L47.8486 387.852C47.0586 387.955 46.2979 388.218 45.6131 388.625C44.9284 389.032 44.3339 389.574 43.8661 390.219C43.3983 390.864 43.0669 391.597 42.8925 392.375C42.7181 393.152 42.7041 393.957 42.8515 394.74C47.952 421.809 64.0632 436.394 89.9832 437.108C113.977 437.77 137.63 432.808 160.883 422.256C161.906 421.79 162.774 421.04 163.383 420.095C163.992 419.15 164.316 418.049 164.317 416.925V399.364C164.315 395.268 160.213 392.439 156.385 393.893Z" fill="#524F75"/>
<path id="Vector_12" d="M54.8693 340.97C48.764 350.109 44.7796 355.218 42.9162 356.295C42.243 356.683 26.3991 342.899 24.0869 344.548C22.3484 345.789 26.8655 363.337 24.0869 363.5C20.3328 363.721 6.23714 361.456 6.23715 366.008C6.23715 370.562 20.2684 380.894 25.2498 386.935C26.943 389.009 28.5896 391.121 30.1884 393.268C33.207 397.286 37.5923 400.06 42.5163 401.065C47.4403 402.071 52.562 401.239 56.9142 398.726C61.2231 396.238 64.4255 392.206 65.8725 387.446C67.3195 382.686 66.903 377.553 64.7074 373.089C62.3328 368.259 60.8537 365.063 60.2723 363.5C59.1776 360.572 57.3786 353.061 54.8693 340.97Z" fill="#8A88A2"/>
<path id="Vector_13" d="M52.4422 364.263C53.2422 366.022 54.9983 369.212 57.8041 374.037C59.5585 377.054 60.1009 380.625 59.3217 384.027C58.5425 387.429 56.4998 390.408 53.607 392.361C50.6258 394.371 47.012 395.22 43.4476 394.749C39.8832 394.277 36.6147 392.517 34.2588 389.801C32.4559 387.703 30.607 385.646 28.7134 383.629C26.7524 381.565 25.0392 380.133 19.2207 375.483L18.5163 374.919C16.1573 373.028 14.4831 371.645 13.1621 370.468C13.689 370.443 14.247 370.425 14.85 370.41C15.5321 370.393 16.2144 370.382 16.8968 370.375L18.8558 370.353C20.5222 370.328 21.5251 370.287 22.4246 370.17C25.5329 369.768 27.3202 367.616 27.9797 365.095C28.2743 363.971 28.3387 362.827 28.2685 361.502C28.1846 359.836 27.8938 357.916 27.3651 355.149L27.3202 354.911C27.4412 354.989 27.568 355.065 27.6909 355.145C29.1641 356.08 33.8256 359.128 33.7885 359.104C34.5548 359.605 35.3329 360.087 36.1221 360.55C36.5194 360.783 36.9298 360.992 37.3514 361.177C37.7565 361.353 38.1781 361.489 38.6099 361.582C40.087 361.902 41.5309 361.86 43.2304 360.712C44.8012 359.653 46.6139 357.542 48.9143 354.133C50.4207 359.03 51.5836 362.377 52.4422 364.263ZM16.4461 358.976C15.4431 359.003 14.5339 359.038 13.6597 359.091C10.7173 359.272 8.35825 359.627 6.36216 360.326C2.53581 361.666 -0.217361 364.431 0.0889816 368.794C0.428497 373.666 3.36701 376.546 13.0841 384.33L13.7982 384.902C19.0509 389.101 20.69 390.47 22.1085 391.965C23.8816 393.852 25.6121 395.778 27.2987 397.742C31.528 402.621 37.3971 405.782 43.7977 406.629C50.1984 407.476 56.6876 405.95 62.0402 402.34C73.1524 394.843 76.5534 380.014 69.81 368.425C67.207 363.947 65.5661 360.968 64.9846 359.688C63.8646 357.225 61.5836 349.988 58.3309 338.427C56.9221 333.428 50.1885 332.601 47.6129 337.108C44.9514 341.768 42.7543 345.381 41.0373 347.93L40.5827 348.599C39.0861 347.623 36.8344 346.158 35.849 345.534C34.7719 344.849 33.7807 344.238 32.8499 343.682C30.6821 342.386 28.8656 341.415 27.3085 340.759C23.8022 339.28 21.3534 338.874 18.5144 341.214C16.5826 342.804 16.1319 344.531 16.0831 346.714C16.0762 347.745 16.1512 348.774 16.3075 349.793C16.5182 351.321 16.6119 351.815 17.4665 356.142C17.6498 357.076 17.8261 358.01 17.9953 358.946C17.4334 358.954 16.9378 358.964 16.4461 358.976Z" fill="#524F75"/>
</g>
<g id="zebra-left-foot">
<path id="Vector_14" d="M253.959 378.648C238.628 388.339 230.873 401.758 228.734 425.881C226.595 450.003 242.3 469.748 251.202 477.794L240.976 494.048C235.576 496.017 241.624 502.891 243.97 507.302L268.044 552.599L299.189 548.22L282.836 507.304L307.049 484.764C329.459 481.615 345.073 460.895 341.923 438.485C341.61 436.255 341.114 434.059 340.44 431.911" fill="#F4F4F4"/>
<path id="Vector_15" d="M343.606 450.778C320.472 426.528 300.172 412.345 282.705 408.229C265.237 404.114 239.035 408.349 204.096 420.932L204.87 427.225C234.786 424.667 259.091 425.143 277.781 428.654C296.472 432.161 316.595 441.451 338.152 456.524L343.606 450.778Z" fill="#8A88A2"/>
<path id="Vector_16" d="M329.159 466.02C307.343 451.482 288.625 443.496 273.003 442.06C255.133 440.414 229.623 447.251 196.472 462.568L198.113 468.69C227.384 461.995 251.516 459.084 270.514 459.957C286.476 460.689 304.008 465.324 323.111 473.863C326.742 475.484 332.301 468.112 329.159 466.02ZM301.179 487.449C287.993 481.704 276.593 478.893 266.98 479.016C260.613 479.097 253.18 480.648 244.682 483.665C234.203 487.382 230.688 499.663 239.679 497.546C249.652 495.197 258.591 493.789 266.5 493.324C275.423 492.797 285.122 493.741 295.598 496.15C302.779 497.801 307.488 490.2 301.179 487.449ZM286.976 506.012C276.84 504.495 268.373 504.631 261.576 506.42C256.926 507.642 251.781 510.095 246.137 513.773C242.359 516.235 248.378 516.455 249.204 518.678C249.994 520.806 245.42 525.034 249.205 523.238C254.465 520.737 259.37 518.778 263.915 517.356C270.453 515.312 277.829 514.196 286.037 514.01C288.885 513.945 286.656 512.063 286.976 510.262C287.32 508.334 290.017 506.468 286.976 506.012Z" fill="#8A88A2"/>
<path id="Vector_17" d="M234.567 426.401C232.985 444.223 242.457 462.004 255.126 473.453C256.148 474.376 256.812 475.63 257 476.995C257.189 478.359 256.89 479.746 256.156 480.912L245.929 497.167C245.729 497.484 245.501 497.782 245.245 498.053C245.476 498.487 245.772 499.009 246.134 499.607C246.331 499.934 246.545 500.276 246.824 500.72L247.399 501.628C247.632 501.997 247.813 502.287 247.984 502.568C248.449 503.319 248.815 503.949 249.137 504.556L271.287 546.23L291.224 543.428L278.855 509.297C278.475 508.248 278.403 507.112 278.647 506.023C278.891 504.934 279.442 503.938 280.233 503.151L302.925 480.611C303.822 479.72 304.983 479.143 306.235 478.967C321.669 476.796 333.448 457.447 336.122 437.698C337.948 424.234 338.564 415.186 338.156 410.989C338.006 409.444 338.476 407.902 339.462 406.703C340.448 405.504 341.869 404.745 343.414 404.593C344.959 404.443 346.501 404.913 347.7 405.899C348.899 406.885 349.657 408.307 349.808 409.852C350.331 415.199 349.665 424.957 347.726 439.269C346.434 448.794 342.659 460.012 337.132 469.094C330.274 480.359 321.133 487.971 309.863 490.221L291.138 508.822L304.692 546.227C304.989 547.046 305.099 547.921 305.015 548.788C304.93 549.655 304.653 550.493 304.203 551.239C303.754 551.986 303.144 552.622 302.417 553.103C301.69 553.583 300.865 553.896 300.002 554.017L268.857 558.396C267.667 558.563 266.455 558.36 265.384 557.814C264.314 557.268 263.437 556.406 262.874 555.345L238.798 510.052C238.457 509.407 238.394 509.307 236.916 506.953C236.607 506.463 236.363 506.071 236.129 505.685C234.396 502.833 233.41 500.725 233.059 498.376C232.518 494.782 233.891 491.527 236.863 489.594L243.711 478.706C230.426 465.08 221.1 445.674 222.902 425.366C225.152 400.026 233.507 384.651 250.828 373.701C251.114 373.519 251.415 373.364 251.729 373.235C262.657 368.736 272.627 367.335 281.586 369.201C283.106 369.517 284.438 370.425 285.289 371.723C286.14 373.022 286.441 374.605 286.124 376.125C285.807 377.645 284.9 378.977 283.601 379.828C282.303 380.679 280.719 380.979 279.199 380.663C272.858 379.343 265.363 380.355 256.661 383.868C242.916 392.72 236.488 404.724 234.567 426.401Z" fill="#524F75"/>
<path id="Vector_18" d="M332.91 412.477C333.797 412.352 334.7 412.405 335.567 412.633C336.435 412.861 337.25 413.259 337.966 413.805C338.682 414.351 339.285 415.034 339.741 415.815C340.197 416.595 340.496 417.459 340.622 418.355C340.748 419.252 340.698 420.165 340.474 421.041C340.251 421.917 339.86 422.739 339.321 423.461C338.783 424.183 338.109 424.79 337.338 425.248C336.567 425.706 335.714 426.006 334.827 426.13C333.94 426.255 333.037 426.202 332.17 425.974C331.302 425.746 330.487 425.348 329.771 424.802C329.055 424.256 328.452 423.573 327.996 422.793C327.54 422.012 327.241 421.148 327.115 420.252C326.989 419.355 327.039 418.443 327.262 417.567C327.485 416.691 327.877 415.868 328.415 415.146C328.953 414.424 329.627 413.817 330.399 413.359C331.17 412.901 332.023 412.601 332.91 412.477Z" fill="#524F75"/>
<path id="Vector_19" d="M282.139 527.984C279.728 528.323 277.408 529.133 275.31 530.369C273.213 531.605 271.379 533.241 269.914 535.185C268.449 537.13 267.382 539.344 266.772 541.701C266.163 544.057 266.024 546.511 266.363 548.922L267.584 557.615L304.297 552.456L303.075 543.76C302.736 541.35 301.926 539.03 300.69 536.932C299.455 534.835 297.818 533.001 295.874 531.536C293.93 530.071 291.717 529.004 289.36 528.394C287.003 527.785 284.549 527.645 282.139 527.984Z" fill="#8C664F"/>
<path id="Vector_20" d="M272.16 548.106C271.691 544.775 272.566 541.394 274.59 538.708C276.614 536.021 279.623 534.249 282.954 533.781C286.285 533.313 289.665 534.187 292.352 536.211C295.038 538.236 296.81 541.244 297.279 544.575L297.686 547.474L272.567 551.004L272.16 548.106ZM281.325 522.188C267.986 524.062 258.692 536.397 260.566 549.735L261.788 558.43C262.238 561.63 265.2 563.862 268.399 563.412L305.112 558.252C306.649 558.036 308.037 557.219 308.972 555.979C309.906 554.74 310.31 553.18 310.094 551.643L308.872 542.946C306.997 529.608 294.663 520.313 281.325 522.188Z" fill="#524F75"/>
</g>
<g id="zebra-left-hand">
<path id="Vector_21" d="M329.923 271.596L321.946 314.574L363.562 343.411L327.18 377.926L342.893 409.942C355.743 397.399 364.317 388.562 368.618 383.426C371.864 379.549 379.312 370.989 390.963 357.752C394.441 353.801 396.345 348.709 396.314 343.445C396.282 338.181 394.318 333.112 390.793 329.202C380.69 317.992 373.297 309.77 368.618 304.539C362.143 297.302 349.246 286.32 329.923 271.596Z" fill="#F4F4F4"/>
<path id="Vector_22" d="M329.923 271.596L321.946 314.574L363.562 343.411L327.18 377.926L342.893 409.942C355.743 397.399 364.317 388.562 368.618 383.426C371.864 379.549 379.312 370.989 390.963 357.752C394.441 353.801 396.345 348.709 396.314 343.445C396.282 338.181 394.318 333.112 390.793 329.202C380.69 317.992 373.297 309.77 368.618 304.539C362.143 297.302 349.246 286.32 329.923 271.596Z" fill="#F4F4F4"/>
<path id="Vector_23" d="M368.889 302.205C362.983 306.102 357.746 310.037 353.176 314.008C345.455 320.718 338.889 328.195 333.474 336.435L343.841 348.802C346.805 340.269 352.739 332.133 361.642 324.392C365.945 320.652 370.584 317.318 375.5 314.431C380.782 311.327 372.965 299.516 368.889 302.205ZM353.949 355.538C361.26 358.839 368.155 361.422 374.639 363.28C378.336 364.344 382.086 365.218 385.872 365.899C391.97 366.993 397.312 353.811 390.749 353.017C386.92 352.552 382.916 351.721 378.739 350.525C373.064 348.897 367.557 346.73 362.294 344.055C357.004 341.368 350.171 353.832 353.949 355.538ZM338.762 369.664C346.807 377.873 355.117 384.763 363.697 390.336C370.025 394.443 366.175 389.274 368.411 386.8C370.723 384.242 379.679 384.73 372.134 379.83C362.239 373.405 354.124 365.559 347.79 356.291L338.762 369.664Z" fill="#8A88A2"/>
<path id="Vector_24" d="M364.253 308.441C368.938 313.68 376.335 321.904 386.444 333.118C389.007 335.962 390.436 339.649 390.459 343.478C390.481 347.307 389.096 351.01 386.567 353.885C374.883 367.161 367.418 375.738 364.128 379.668C360.653 383.818 354.116 390.648 344.575 400.084L334.331 379.212L367.591 347.658C368.223 347.06 368.713 346.327 369.026 345.515C369.339 344.703 369.467 343.831 369.4 342.963C369.334 342.096 369.074 341.254 368.641 340.499C368.208 339.744 367.612 339.095 366.897 338.599L328.393 311.92L333.933 282.076C348.811 293.684 358.951 302.513 364.253 308.441ZM354.309 344.121L323.15 373.678C322.245 374.536 321.638 375.662 321.417 376.89C321.197 378.117 321.375 379.384 321.925 380.503L337.638 412.519C338.046 413.35 338.645 414.072 339.386 414.626C340.127 415.18 340.988 415.551 341.9 415.708C342.812 415.865 343.748 415.803 344.631 415.528C345.515 415.254 346.321 414.773 346.983 414.127C359.968 401.456 368.645 392.513 373.107 387.18C376.313 383.352 383.744 374.816 395.359 361.614C399.785 356.584 402.209 350.104 402.169 343.405C402.129 336.705 399.628 330.254 395.143 325.278C385.043 314.074 377.656 305.858 372.983 300.632C366.192 293.04 353.076 281.873 333.474 266.937C330.005 264.293 324.967 266.236 324.171 270.525L316.194 313.504C315.989 314.613 316.109 315.758 316.538 316.801C316.968 317.844 317.689 318.74 318.616 319.383L354.309 344.121Z" fill="#524F75"/>
<path id="Vector_25" d="M356.376 342.289L366.233 332.191C367.318 331.08 368.799 330.446 370.351 330.427C371.904 330.408 373.4 331.006 374.511 332.091C375.622 333.175 376.257 334.657 376.276 336.209C376.295 337.762 375.696 339.258 374.612 340.369L364.754 350.466C363.67 351.578 362.188 352.212 360.636 352.231C359.084 352.25 357.587 351.651 356.476 350.567C355.365 349.483 354.73 348.001 354.711 346.449C354.693 344.896 355.291 343.4 356.376 342.289Z" fill="#524F75"/>
</g>
<path id="Vector_26" d="M185.769 235.104C162.756 224.794 150.149 204.519 153.008 173.43C156.516 135.292 170.393 109.428 220.629 105.204C254.12 102.388 299.491 115.795 356.746 145.424C391.792 160.699 412.354 186.343 405.191 220.006C398.356 252.135 362.208 271.805 329.63 267.309C329.827 268.866 330.016 270.453 330.2 272.07C334.606 310.827 341.663 342.5 342.602 365.184C343.441 385.493 341.146 402.289 338.479 414.915C330.773 451.167 300.184 468.868 271.388 469.86C242.592 470.851 206.658 467.645 178.241 450.021C146.483 430.324 133.523 391.606 151.207 359.028C162.327 338.54 171.657 310.562 172.789 305.249C174.028 299.422 178.684 256.796 179.546 252.738C180.931 246.219 183.037 240.33 185.769 235.104Z" fill="#F4F4F4"/>
<path id="Vector_27" d="M153.008 173.428C156.516 135.29 170.393 109.426 220.629 105.202C254.12 102.388 299.491 115.795 356.746 145.424C391.792 160.699 412.354 186.343 405.191 220.006C398.356 252.135 362.208 271.805 329.63 267.309C329.827 268.866 330.016 270.453 330.2 272.07C334.606 310.827 341.663 342.499 342.602 365.184C343.441 385.493 341.146 402.289 338.479 414.915C330.773 451.167 300.184 468.868 271.388 469.859C242.592 470.851 206.658 467.645 178.241 450.021C146.483 430.324 133.523 391.606 151.207 359.028C162.327 338.54 171.657 310.562 172.789 305.249C174.028 299.422 178.684 256.796 179.546 252.738C180.933 246.219 183.039 240.33 185.771 235.102C162.756 224.794 150.149 204.517 153.008 173.428ZM168.094 250.304C167.614 252.562 167.48 253.66 164.582 277.772C162.742 293.093 161.722 300.997 161.335 302.814C159.648 310.765 149.46 337.707 140.916 353.446C120.498 391.059 134.574 436.718 172.071 459.971C199.179 476.782 233.357 482.884 271.792 481.559C309.261 480.271 341.681 456.158 349.932 417.335C353.413 400.862 355.08 383.59 354.299 364.699C353.979 356.983 353.029 348.244 351.347 336.578C350.414 330.111 346.604 305.758 346.256 303.479C345.037 295.528 343.917 287.561 342.894 279.582C377.435 278.043 409.683 255.145 416.643 222.441C424.746 184.357 403.306 153.073 361.786 134.851C302.91 104.421 255.722 90.5054 219.648 93.5356C167.948 97.8829 145.854 123.391 141.349 172.355C138.543 202.845 149.06 226.332 170.838 240.322C169.725 243.592 168.809 246.925 168.094 250.304Z" fill="#524F75"/>
<path id="Vector_28" d="M147.625 366.745C148.655 364.101 149.851 361.524 151.205 359.03C152.773 356.13 154.266 353.189 155.683 350.213C156.663 350.542 157.638 350.86 158.608 351.169C188.216 360.597 222.809 363.167 262.389 358.878V363.061C223.974 375.756 187.164 377.387 151.958 367.955C150.51 367.566 149.065 367.162 147.625 366.745ZM163.909 331.198C166.411 324.879 168.718 318.483 170.825 312.021C172.79 312.798 174.767 313.542 176.756 314.254C206.017 324.708 240.879 328.478 281.342 325.557L281.195 329.736C242.391 342.843 205.562 344.066 170.708 333.411C168.429 332.712 166.163 331.975 163.909 331.198ZM331.634 283.799C332.226 288.339 332.844 292.771 333.47 297.091C304.846 303.557 276.114 304.763 247.277 300.71C223.472 297.364 199.945 288.827 176.692 275.098C177.568 267.793 178.395 260.901 178.955 256.677C206.393 268.384 230.715 276.232 251.921 280.224C275.849 284.73 302.419 285.922 331.634 283.799ZM365.098 149.407C394.989 164.976 411.765 189.114 405.191 220.006C398.356 252.135 362.208 271.805 329.63 267.309C329.828 268.866 330.017 270.453 330.2 272.07C330.349 273.379 330.501 274.681 330.655 275.975C300.809 262.556 286.454 227.943 298.483 197.153C309.476 169.018 335.921 150.718 365.098 149.407Z" fill="#8A88A2"/>
<path id="Vector_29" d="M360.737 186.669C354.883 182.787 351.818 180.937 348.493 179.518C346.198 178.539 343.33 179.224 341.494 181.337C340.024 183.027 339.86 186.675 340.885 188.476C341.839 190.154 345.135 194.1 350.498 199.854C351.026 200.416 351.437 201.076 351.708 201.797C351.98 202.518 352.106 203.285 352.08 204.055C352.054 204.825 351.877 205.582 351.558 206.284C351.239 206.985 350.785 207.616 350.221 208.141C349.658 208.667 348.996 209.075 348.274 209.344C347.552 209.613 346.784 209.737 346.015 209.709C345.245 209.681 344.488 209.501 343.788 209.179C343.088 208.858 342.458 208.402 341.935 207.836C335.925 201.391 332.274 197.019 330.707 194.262C327.341 188.344 327.747 179.302 332.657 173.653C337.8 167.737 346.081 165.756 353.09 168.748C357.3 170.55 360.746 172.628 367.209 176.915C368.478 177.784 369.354 179.117 369.648 180.627C369.942 182.136 369.63 183.701 368.78 184.982C367.93 186.264 366.609 187.159 365.104 187.475C363.599 187.79 362.03 187.501 360.737 186.669Z" fill="#524F75"/>
<path id="Vector_30" d="M362.549 189.493L354.846 185.391C353.828 184.849 352.642 184.712 351.527 185.006C350.412 185.301 349.449 186.007 348.832 186.981C348.194 187.99 347.928 189.189 348.078 190.373C348.229 191.556 348.787 192.651 349.657 193.467L356.323 199.713C356.933 200.285 357.662 200.714 358.457 200.97C359.253 201.226 360.096 201.302 360.925 201.194C361.753 201.085 362.548 200.794 363.25 200.341C363.953 199.888 364.547 199.285 364.988 198.575C365.454 197.827 365.761 196.99 365.89 196.118C366.019 195.246 365.968 194.356 365.739 193.505C365.511 192.653 365.109 191.858 364.561 191.168C364.012 190.477 363.327 189.907 362.549 189.493Z" fill="#75738E"/>
<path id="Vector_31" d="M319.33 328.843C307.564 325.444 295.302 332.843 289.585 343.674C281.747 358.527 275.24 370.324 273.63 377.768C272.52 382.904 265.431 406.375 265.433 414.16C265.435 430.07 275.414 448.511 296.653 448.511C310.465 448.511 327.281 427.684 331.566 414.16C333.94 406.662 340.54 375.668 338.1 357.52C335.66 339.368 330.891 332.185 319.33 328.843Z" fill="white"/>
<path id="Vector_32" d="M329.41 279.011C312.881 276.847 303.654 274.616 288.028 268.037C286.597 267.435 285.464 266.288 284.879 264.851C284.293 263.413 284.302 261.801 284.904 260.371C285.507 258.94 286.653 257.807 288.091 257.221C289.528 256.635 291.14 256.644 292.571 257.247C307.115 263.37 315.363 265.364 330.93 267.403C331.697 267.497 332.438 267.741 333.11 268.123C333.782 268.505 334.372 269.016 334.845 269.627C335.319 270.238 335.666 270.936 335.869 271.682C336.071 272.428 336.123 273.207 336.023 273.973C335.922 274.739 335.671 275.478 335.284 276.147C334.897 276.816 334.381 277.401 333.766 277.87C333.151 278.338 332.449 278.68 331.702 278.876C330.954 279.071 330.175 279.117 329.41 279.011ZM208.04 252.39C207.418 252.308 206.779 252.228 205.983 252.127L203.956 251.873C199.987 251.373 197.66 251.032 195.117 250.531C186.807 248.893 179.613 245.932 171.055 240.22C169.772 239.355 168.885 238.017 168.586 236.499C168.287 234.981 168.601 233.406 169.46 232.119C170.319 230.833 171.652 229.938 173.168 229.631C174.685 229.324 176.261 229.63 177.552 230.482C184.826 235.334 190.58 237.705 197.379 239.046C199.587 239.481 201.7 239.791 205.416 240.257C206.797 240.429 208.178 240.604 209.558 240.782C210.326 240.874 211.069 241.118 211.743 241.499C212.416 241.88 213.008 242.391 213.483 243.002C213.958 243.613 214.307 244.312 214.51 245.059C214.713 245.806 214.766 246.586 214.665 247.353C214.565 248.121 214.313 248.861 213.925 249.53C213.537 250.2 213.02 250.786 212.404 251.254C211.788 251.723 211.085 252.064 210.336 252.259C209.587 252.454 208.806 252.499 208.04 252.39Z" fill="#524F75"/>
<path id="Vector_33" d="M232.608 250.259C232.608 252.087 231.89 253.84 230.611 255.133C229.333 256.425 227.598 257.151 225.79 257.151C223.982 257.151 222.248 256.425 220.97 255.133C219.691 253.84 218.973 252.087 218.973 250.259C218.973 248.432 219.691 246.679 220.97 245.386C222.248 244.094 223.982 243.368 225.79 243.368C227.598 243.368 229.333 244.094 230.611 245.386C231.89 246.679 232.608 248.432 232.608 250.259Z" fill="#524F75"/>
<g id="zebra-ear-left">
<path id="Vector_34" d="M200.048 155.766C181.057 119.581 183.702 93.6119 172.153 78.8587C155.527 57.6217 119.726 41.0207 108.395 48.4373C97.521 56.4139 104.138 98.1699 120.069 118.176C130.506 131.282 158.506 139.155 183.976 175.493" fill="#F4F4F4"/>
<path id="Vector_35" d="M112.744 52.5758C110.03 54.7437 108.694 64.5758 110.53 77.1397C112.575 91.128 117.87 105.339 124.581 114.072C124.977 114.591 125.425 115.118 125.923 115.655C128.692 118.634 131.609 120.851 140.692 127.163C150.76 134.16 156.311 138.336 163.037 144.381C172.101 152.525 180.231 161.745 187.687 172.789C188.519 174.076 188.814 175.638 188.507 177.14C188.2 178.643 187.316 179.964 186.046 180.822C184.775 181.68 183.218 182.005 181.711 181.727C180.203 181.45 178.864 180.592 177.982 179.339C171.078 169.11 163.58 160.609 155.211 153.087C148.94 147.45 143.706 143.514 134.011 136.777C124.128 129.909 120.924 127.473 117.343 123.62C116.604 122.824 115.921 122.02 115.295 121.204C98.1064 98.8315 91.4489 53.2861 106.104 42.9271L106.362 42.7554C121.295 33.3466 159.704 52.3124 177.371 75.7095C182.481 82.4763 184.598 88.9193 188.342 105.505C193.308 127.491 196.633 138.385 204.477 153.989C204.835 154.677 205.054 155.429 205.119 156.202C205.184 156.975 205.094 157.753 204.856 158.492C204.618 159.23 204.235 159.913 203.73 160.502C203.225 161.091 202.608 161.574 201.915 161.922C201.222 162.271 200.467 162.478 199.693 162.532C198.919 162.586 198.142 162.486 197.407 162.237C196.672 161.988 195.994 161.595 195.413 161.082C194.831 160.569 194.357 159.945 194.019 159.247C185.636 142.576 182.085 130.931 176.924 108.082C173.564 93.2041 171.755 87.6998 168.026 82.7632C160.883 73.3017 149.01 64.0217 136.7 57.9417C125.599 52.4588 116.079 50.6929 112.744 52.5758Z" fill="#524F75"/>
<path id="Vector_36" d="M171.948 126.884C162.229 108.527 163.628 95.3306 157.706 87.8515C149.181 77.0867 130.783 68.7042 124.943 72.4876C119.336 76.5559 122.68 97.7598 130.85 107.9C135.207 113.311 145.566 116.942 156.311 128.056C158.76 130.589 160.299 131.526 162.721 134.944C165.142 138.363 170.442 141.514 174.005 138.558C175.669 137.178 174.984 133.286 171.948 126.884Z" fill="#F0D2CB"/>
</g>
<path id="Vector_37" d="M308.705 151.659C295.775 151.659 285.291 140.133 285.291 125.914C285.291 111.696 295.775 98.9756 308.705 98.9756C321.636 98.9756 332.12 111.698 332.12 125.914C332.12 140.131 321.636 151.659 308.705 151.659Z" fill="white"/>
<path id="Vector_38" d="M308.705 157.512C325 157.512 337.974 143.247 337.974 125.914C337.974 108.424 324.897 93.1221 308.705 93.1221C292.514 93.1221 279.437 108.422 279.437 125.914C279.437 143.249 292.411 157.512 308.705 157.512ZM308.705 145.805C299.137 145.805 291.144 137.017 291.144 125.914C291.144 114.515 299.423 104.829 308.705 104.829C317.987 104.829 326.266 114.515 326.266 125.914C326.266 137.019 318.274 145.805 308.705 145.805Z" fill="#524F75"/>
<path id="Vector_39" d="M322.656 133.346C321.404 135.001 319.552 136.049 317.488 136.049C313.716 136.049 310.658 132.554 310.658 128.244C310.658 123.934 313.716 120.439 317.488 120.439C321.213 120.439 324.243 123.848 324.317 128.086L319.253 128.927L322.656 133.346Z" fill="#232323"/>
<path id="Vector_40" d="M252.12 155.561C233.8 155.561 218.949 140.851 218.949 122.707C218.949 104.562 235.531 89.2197 253.851 89.2197C272.171 89.2197 285.291 104.562 285.291 122.707C285.291 140.853 270.44 155.561 252.12 155.561Z" fill="white"/>
<path id="Vector_41" d="M252.12 161.415C273.662 161.415 291.145 144.097 291.145 122.706C291.145 100.96 275.09 83.3657 253.851 83.3657C232.163 83.3657 213.096 101.45 213.096 122.706C213.096 144.097 230.579 161.415 252.12 161.415ZM252.12 149.707C237.022 149.707 224.803 137.606 224.803 122.706C224.803 108.058 238.493 95.073 253.851 95.073C268.372 95.073 279.437 107.198 279.437 122.706C279.437 137.606 267.219 149.707 252.12 149.707Z" fill="#524F75"/>
<path id="Vector_42" d="M269.26 132.049C268.122 133.461 266.645 134.562 264.967 135.249C263.288 135.936 261.463 136.187 259.662 135.977C257.86 135.767 256.141 135.105 254.666 134.051C253.19 132.997 252.005 131.586 251.222 129.951C250.439 128.315 250.083 126.507 250.188 124.697C250.293 122.886 250.855 121.132 251.821 119.597C252.788 118.063 254.128 116.798 255.715 115.922C257.303 115.045 259.087 114.586 260.901 114.585C262.352 114.585 263.789 114.88 265.123 115.451C266.458 116.022 267.662 116.858 268.664 117.908C269.666 118.958 270.445 120.201 270.953 121.56C271.461 122.92 271.688 124.369 271.621 125.819L264.477 126.82L269.26 132.049Z" fill="#232323"/>
<g id="zebra-right-foot">
<path id="Vector_43" d="M156.22 380.341C139.689 387.807 130.143 400.017 124.666 423.608C119.189 447.198 131.995 468.936 139.689 478.14L127.299 492.815C121.677 494.012 126.711 501.662 128.419 506.355L145.956 554.56H177.406L160.415 510.134C159.502 507.75 159.395 505.132 160.108 502.681L163.203 492.045C165.808 492.557 168.456 492.815 171.111 492.815H194.024C216.655 492.815 235 474.47 235 451.84C235 449.592 234.815 447.342 234.446 445.126" fill="#F4F4F4"/>
<path id="Vector_44" d="M156.22 380.341C139.689 387.807 130.143 400.017 124.666 423.608C119.189 447.198 131.995 468.936 139.689 478.14L127.299 492.815C121.677 494.012 126.711 501.662 128.419 506.355L145.956 554.56H177.406L160.415 510.134C159.502 507.75 159.395 505.132 160.108 502.681L163.203 492.045C165.808 492.557 168.456 492.815 171.111 492.815H194.024C216.655 492.815 235 474.47 235 451.84C235 449.592 234.815 447.342 234.446 445.126" fill="#F4F4F4"/>
<path id="Vector_45" d="M234.953 464.246C215.421 437.015 197.293 420.142 180.565 413.637C168.389 408.899 151.008 407.902 128.42 410.642C119.991 411.664 118.803 422.833 126.926 423.764C145.088 425.84 160.395 428.978 172.846 433.175C190.867 439.249 209.501 451.251 228.75 469.177L234.953 464.246ZM227.119 485.288C204.011 463.069 183.72 449.9 166.253 445.787C155.203 443.184 140.653 443.516 122.6 446.782C123.345 452.605 126.694 459.058 126.415 460.137C139.654 460.273 151.281 461.284 161.297 463.163C177.981 466.295 195.81 474.035 214.779 486.384C216.447 487.461 218.164 488.461 219.923 489.381L227.119 485.288ZM169.324 490.043C165.901 487.957 162.559 486.31 159.297 485.106C152.774 482.7 144.44 481.469 134.288 481.417C129.62 481.391 131.417 484.47 129.706 486.765C127.531 489.68 122.986 492.027 128.268 492.771C137.962 494.137 146.444 495.977 153.722 498.289C155.866 498.971 157.982 499.739 160.063 500.593C165.644 502.874 163.54 497.971 165.919 496.029C168.828 493.659 175.138 493.59 169.324 490.043ZM161.679 508.741C155.823 507.655 150.588 507.385 145.976 507.93C141.525 508.457 136.498 509.979 130.895 512.498C126.212 514.603 127.591 516.816 129.023 519.085C130.124 520.831 130.194 523.182 134.038 522.057C138.584 520.726 142.828 519.737 146.77 519.085C151.755 518.263 157.119 518.004 162.863 518.31C166.975 518.529 166.379 516.098 165.8 513.643C165.306 511.539 165.439 509.44 161.679 508.741Z" fill="#8A88A2"/>
<path id="Vector_46" d="M130.368 424.929C126.321 442.359 133.226 461.286 144.178 474.387C145.063 475.443 145.546 476.777 145.543 478.155C145.54 479.532 145.05 480.864 144.161 481.916L131.773 496.591C131.529 496.878 131.261 497.14 130.973 497.372C131.14 497.834 131.359 498.39 131.636 499.036C131.786 499.388 131.948 499.756 132.165 500.232L132.608 501.214C132.787 501.612 132.926 501.924 133.056 502.227C133.41 503.034 133.685 503.709 133.919 504.355L150.055 548.706H168.9L154.949 512.227C153.581 508.65 153.419 504.725 154.489 501.048L157.583 490.412C157.992 489.008 158.912 487.807 160.161 487.047C161.411 486.287 162.899 486.022 164.334 486.305C166.567 486.743 168.837 486.964 171.113 486.964H194.024C213.419 486.964 229.146 471.239 229.146 451.842C229.146 449.914 228.986 447.988 228.67 446.088C228.544 445.33 228.569 444.554 228.742 443.805C228.916 443.056 229.236 442.349 229.683 441.724C230.13 441.098 230.696 440.567 231.348 440.16C232 439.754 232.726 439.479 233.485 439.353C234.243 439.227 235.019 439.252 235.768 439.426C236.517 439.599 237.224 439.919 237.849 440.366C238.475 440.813 239.006 441.379 239.412 442.031C239.819 442.684 240.093 443.41 240.219 444.168C240.641 446.705 240.853 449.272 240.854 451.844C240.854 477.707 219.888 498.673 194.024 498.673H171.111C169.876 498.673 168.645 498.625 167.414 498.527L165.73 504.324C165.372 505.549 165.426 506.857 165.882 508.049L182.875 552.476C184.34 556.308 181.511 560.42 177.406 560.42H145.956C144.754 560.419 143.582 560.05 142.598 559.36C141.614 558.671 140.866 557.695 140.455 556.566L122.92 508.363C122.67 507.674 122.623 507.569 121.486 505.032C121.248 504.504 121.062 504.082 120.883 503.667C119.564 500.601 118.883 498.375 118.859 496.002C118.824 492.367 120.639 489.333 123.849 487.834L132.149 478.006C120.889 462.664 114.356 442.145 118.965 422.289C124.715 397.503 135.131 383.444 153.808 375.007C154.116 374.868 154.436 374.756 154.764 374.671C166.21 371.737 176.278 371.737 184.891 374.833C185.614 375.093 186.279 375.493 186.848 376.01C187.417 376.527 187.879 377.151 188.206 377.847C188.534 378.542 188.722 379.295 188.759 380.063C188.795 380.831 188.68 381.599 188.42 382.322C188.16 383.046 187.76 383.711 187.243 384.28C186.726 384.849 186.102 385.31 185.407 385.638C184.712 385.966 183.958 386.153 183.191 386.19C182.423 386.227 181.655 386.112 180.932 385.852C174.838 383.661 167.273 383.622 158.169 385.887C143.324 392.738 135.287 403.735 130.368 424.929Z" fill="#524F75"/>
<path id="Vector_47" d="M236.51 431.723C236.51 432.628 236.334 433.524 235.991 434.36C235.649 435.196 235.146 435.956 234.513 436.596C233.88 437.236 233.129 437.744 232.302 438.09C231.475 438.436 230.588 438.615 229.693 438.615C228.797 438.615 227.911 438.436 227.084 438.09C226.257 437.744 225.505 437.236 224.872 436.596C224.239 435.956 223.737 435.196 223.394 434.36C223.051 433.524 222.875 432.628 222.875 431.723C222.875 430.818 223.051 429.922 223.394 429.085C223.737 428.249 224.239 427.49 224.872 426.85C225.505 426.21 226.257 425.702 227.084 425.356C227.911 425.009 228.797 424.831 229.693 424.831C230.588 424.831 231.475 425.009 232.302 425.356C233.129 425.702 233.88 426.21 234.513 426.85C235.146 427.49 235.649 428.249 235.991 429.085C236.334 429.922 236.51 430.818 236.51 431.723Z" fill="#524F75"/>
<path id="Vector_48" d="M163.339 532.146C160.905 532.146 158.495 532.626 156.246 533.557C153.997 534.489 151.953 535.854 150.232 537.576C148.511 539.297 147.145 541.34 146.214 543.589C145.282 545.838 144.803 548.249 144.803 550.683V559.464H181.876V550.683C181.876 545.767 179.923 541.052 176.447 537.576C172.97 534.099 168.256 532.146 163.339 532.146Z" fill="#8C664F"/>
<path id="Vector_49" d="M150.656 550.683C150.656 547.319 151.993 544.094 154.371 541.715C156.75 539.337 159.976 538 163.339 538C166.703 538 169.929 539.337 172.307 541.715C174.686 544.094 176.022 547.319 176.022 550.683V553.61H150.656V550.683ZM163.339 526.293C149.87 526.293 138.949 537.214 138.949 550.683V559.464C138.949 560.232 139.1 560.994 139.395 561.704C139.689 562.414 140.12 563.059 140.664 563.603C141.207 564.146 141.852 564.578 142.563 564.872C143.273 565.166 144.034 565.317 144.803 565.317H181.876C182.645 565.317 183.406 565.166 184.116 564.872C184.826 564.578 185.471 564.146 186.015 563.603C186.559 563.059 186.99 562.414 187.284 561.704C187.578 560.994 187.729 560.232 187.729 559.464V550.683C187.729 537.214 176.809 526.293 163.339 526.293Z" fill="#524F75"/>
</g>
<g id="zebra-right-hand">
<path id="Vector_50" d="M193.572 280.439C177.02 287.707 163.974 293.879 154.436 298.956C144.901 304.033 136.272 309.987 128.549 316.814C114.627 307.899 104.696 301.946 98.7542 298.956C92.8128 295.967 79.8684 288.882 59.9269 277.704L49.0703 301.534C69.2518 315.916 83.7786 325.505 92.6489 330.301C101.519 335.097 113.486 339.907 128.551 344.734C142.284 340.519 153.102 336.734 161.006 333.382C168.91 330.031 179.066 324.508 191.474 316.814" fill="#F4F4F4"/>
<path id="Vector_51" d="M144.782 303.764C147.609 308.191 150.055 312.851 152.093 317.694C154.192 322.653 155.918 327.763 157.256 332.98C158.746 338.749 170.411 334.062 169.369 328.5C168.216 322.347 166.555 316.716 164.385 311.608C162.309 306.679 159.622 302.03 156.385 297.772C153.416 293.875 141.954 299.366 144.782 303.764ZM116.298 314.172C117.991 317.212 119.519 320.342 120.875 323.547C123.663 330.113 125.814 337.065 127.332 344.4C128.171 348.449 139.63 344.73 139.199 341.169C138.124 332.304 136.116 324.402 133.17 317.463C126.971 302.866 112.813 307.943 116.298 314.172ZM99.0488 332.886C99.0118 327.518 99.4956 321.98 100.502 316.275C101.387 311.282 102.623 306.358 104.202 301.54C106.141 295.586 94.4868 291.725 92.4185 296.566C89.759 302.788 87.9093 308.827 86.879 314.683C86.0107 319.606 85.7044 324.47 85.962 329.276C86.2508 334.632 99.082 337.781 99.0488 332.886Z" fill="#8A88A2"/>
<path id="Vector_52" d="M70.313 308.66C81.9969 316.919 90.4086 322.437 95.431 325.149C103.603 329.569 114.664 334.061 128.59 338.595C141.312 334.652 151.365 331.112 158.719 327.992C166.303 324.777 176.212 319.388 188.387 311.838C189.707 311.02 191.297 310.76 192.809 311.114C194.321 311.469 195.629 312.409 196.448 313.729C197.266 315.049 197.526 316.639 197.172 318.151C196.817 319.662 195.877 320.971 194.557 321.789C181.915 329.629 171.511 335.284 163.289 338.771C155.172 342.217 144.176 346.061 130.266 350.332C129.125 350.683 127.901 350.675 126.764 350.31C111.378 345.38 99.0915 340.439 89.8622 335.452C83.671 332.104 73.4623 325.327 59.074 315.032C57.8721 314.173 57.0397 312.892 56.744 311.444C56.4483 309.997 56.7112 308.491 57.4798 307.23L71.9461 283.462C72.7485 282.143 74.039 281.195 75.5368 280.824C77.0347 280.452 78.6187 280.687 79.9442 281.477C90.4067 287.715 97.5891 291.817 101.388 293.727C107.01 296.556 115.866 301.817 128.042 309.548C135.23 303.606 143.113 298.353 151.687 293.789C161.373 288.634 174.541 282.402 191.218 275.079C192.64 274.455 194.251 274.421 195.698 274.985C197.144 275.549 198.307 276.665 198.931 278.086C199.556 279.508 199.589 281.119 199.026 282.565C198.462 284.012 197.346 285.175 195.925 285.799C179.493 293.013 166.574 299.126 157.187 304.123C148.052 308.988 139.802 314.677 132.428 321.198C131.474 322.042 130.272 322.552 129.002 322.65C127.733 322.748 126.466 322.43 125.394 321.743C111.634 312.929 101.839 307.06 96.1256 304.186C92.6759 302.451 86.9686 299.23 78.9374 294.492L70.313 308.66Z" fill="#524F75"/>
<path id="Vector_53" d="M50.0089 287.256C49.0853 289.187 48.5826 291.292 48.5339 293.432C48.4852 295.572 48.8917 297.698 49.7265 299.668C50.5613 301.639 51.8053 303.41 53.3761 304.864C54.947 306.318 56.8087 307.421 58.8382 308.101L65.0236 310.173L77.6616 287.368L70.9475 282.228C69.3093 280.974 67.4119 280.101 65.3935 279.673C63.3751 279.245 61.2867 279.273 59.2805 279.755C57.2743 280.237 55.4009 281.16 53.797 282.458C52.193 283.756 50.8989 285.395 50.0089 287.256Z" fill="#8C664F"/>
<path id="Vector_54" d="M61.3607 302.544C60.091 302.216 58.9055 301.621 57.883 300.8C56.8604 299.979 56.0241 298.949 55.4294 297.781C54.8348 296.612 54.4954 295.329 54.4338 294.019C54.3722 292.709 54.5897 291.401 55.072 290.181C55.5096 289.072 56.1893 288.075 57.0616 287.262C57.9338 286.449 58.9766 285.841 60.1138 285.482C61.251 285.124 62.4539 285.023 63.6347 285.189C64.8156 285.354 65.9445 285.781 66.9393 286.439L69.7822 288.316L62.9569 302.956L61.3607 302.544ZM55.9813 313.081C56.7793 313.395 57.5968 313.66 58.4261 313.875L64.7383 315.512C66.0626 315.855 67.465 315.723 68.7022 315.14C69.9394 314.556 70.9332 313.558 71.511 312.318L82.5276 288.685C83.1202 287.413 83.2361 285.97 82.8544 284.619C82.4726 283.269 81.6185 282.1 80.4476 281.327L73.39 276.669C64.3032 270.667 52.069 273.171 46.0671 282.259C45.3159 283.397 44.6837 284.613 44.1842 285.881C39.9325 296.65 45.2125 308.827 55.9813 313.081Z" fill="#524F75"/>
</g>
</g>
</svg>
